<svg xmlns="http://www.w3.org/2000/svg" width="1998.475" height="2334.156" viewBox="0 0 1998.475 2334.156">
  <g id="Group_38483" data-name="Group 38483" transform="translate(40 -256)">
    <g id="Group_38464" data-name="Group 38464" transform="translate(576.417 -1312.236) rotate(-82)">
      <path id="Path_40115" data-name="Path 40115" d="M-2320.957,217.569a13.972,13.972,0,0,1-6.7-1.7,13.766,13.766,0,0,1-6.882-9.65,14.09,14.09,0,0,1-11.881-.877,13.764,13.764,0,0,1-5.3-18.68,13.99,13.99,0,0,1,16.994-6.083l24.3-42.447a13.722,13.722,0,0,1-4.851-7.287,13.445,13.445,0,0,1,1.34-10.295,14.1,14.1,0,0,1,18.864-5.235,13.766,13.766,0,0,1,6.882,9.65,14.086,14.086,0,0,1,11.881.876,13.766,13.766,0,0,1,5.3,18.681A14.111,14.111,0,0,1-2288.1,150.6l-24.292,42.43a13.546,13.546,0,0,1,4.934,7.214,13.445,13.445,0,0,1-1.338,10.393h0A14.023,14.023,0,0,1-2320.957,217.569Zm-11.757-16.554a1.988,1.988,0,0,1,.986.261,2,2,0,0,1,1.009,1.874,9.757,9.757,0,0,0,5,9.219,10.071,10.071,0,0,0,13.458-3.734h0a9.471,9.471,0,0,0,.951-7.322,9.688,9.688,0,0,0-4.721-5.891,2,2,0,0,1-.959-1.211,2,2,0,0,1,.19-1.534l26.134-45.648a2,2,0,0,1,2.692-.763,10.073,10.073,0,0,0,13.484-3.72,9.638,9.638,0,0,0-3.783-13.219,10.047,10.047,0,0,0-10.6.483,2,2,0,0,1-2.126.1,2,2,0,0,1-1.009-1.874,9.758,9.758,0,0,0-5-9.219,10.069,10.069,0,0,0-13.459,3.734,9.467,9.467,0,0,0-.945,7.252,9.8,9.8,0,0,0,4.643,5.975,2,2,0,0,1,.937,1.211,2,2,0,0,1-.194,1.519l-26.134,45.65a2,2,0,0,1-2.7.755,9.945,9.945,0,0,0-13.373,3.727,9.639,9.639,0,0,0,3.783,13.219,10.049,10.049,0,0,0,10.6-.484A2,2,0,0,1-2332.714,201.015Zm22.189,8.619h0Z" fill="rgba(0,0,0,0.15)"/>
      <g id="Group_38462" data-name="Group 38462">
        <path id="Path_40116" data-name="Path 40116" d="M-2264.373,192.946a1.982,1.982,0,0,1-.946-.24l-7.594-4.087a2,2,0,0,1-.813-2.709,2,2,0,0,1,2.709-.813l7.594,4.088a2,2,0,0,1,.813,2.709A2,2,0,0,1-2264.373,192.946Z" fill="rgba(0,0,0,0.15)"/>
        <path id="Path_40117" data-name="Path 40117" d="M-2261.41,177.86c-.062,0-.123,0-.186-.009l-8.481-.779a2,2,0,0,1-1.808-2.174,2,2,0,0,1,2.175-1.809l8.481.78a2,2,0,0,1,1.808,2.173A2,2,0,0,1-2261.41,177.86Z" fill="rgba(0,0,0,0.15)"/>
        <path id="Path_40118" data-name="Path 40118" d="M-2275.514,203.653a2,2,0,0,1-1.559-.746l-5.325-6.62a2,2,0,0,1,.3-2.812,2,2,0,0,1,2.812.3l5.325,6.619a2,2,0,0,1-.3,2.812A2,2,0,0,1-2275.514,203.653Z" fill="rgba(0,0,0,0.15)"/>
      </g>
      <g id="Group_38463" data-name="Group 38463">
        <path id="Path_40119" data-name="Path 40119" d="M-2349.185,146.908a1.989,1.989,0,0,1-1.232-.426l-6.707-5.256a2,2,0,0,1-.34-2.808,2,2,0,0,1,2.808-.34l6.706,5.255a2,2,0,0,1,.341,2.808A2,2,0,0,1-2349.185,146.908Z" fill="rgba(0,0,0,0.15)"/>
        <path id="Path_40120" data-name="Path 40120" d="M-2353.226,158.2a1.978,1.978,0,0,1-.507-.067l-8.186-2.141a2,2,0,0,1-1.429-2.441,2,2,0,0,1,2.442-1.429l8.185,2.142a2,2,0,0,1,1.429,2.44A2,2,0,0,1-2353.226,158.2Z" fill="rgba(0,0,0,0.15)"/>
        <path id="Path_40121" data-name="Path 40121" d="M-2339.024,140.387a2,2,0,0,1-1.747-1.022l-4.142-7.4a2,2,0,0,1,.768-2.723,2,2,0,0,1,2.722.768l4.142,7.4a2,2,0,0,1-.768,2.722A1.989,1.989,0,0,1-2339.024,140.387Z" fill="rgba(0,0,0,0.15)"/>
      </g>
      <path id="Path_40122" data-name="Path 40122" d="M-2324.038,183.5a1.994,1.994,0,0,1-.992-.264,2,2,0,0,1-.741-2.731l4.241-7.4a2,2,0,0,1,2.729-.741,2,2,0,0,1,.74,2.731l-4.24,7.4A2,2,0,0,1-2324.038,183.5Z" fill="rgba(0,0,0,0.15)"/>
    </g>
    <g id="Group_38472" data-name="Group 38472" transform="matrix(0.966, 0.259, -0.259, 0.966, 3863.73, 1297.584)">
      <path id="Path_40123" data-name="Path 40123" d="M-2320.957,217.569a13.972,13.972,0,0,1-6.7-1.7,13.766,13.766,0,0,1-6.882-9.65,14.09,14.09,0,0,1-11.881-.877,13.764,13.764,0,0,1-5.3-18.68,13.99,13.99,0,0,1,16.994-6.083l24.3-42.447a13.722,13.722,0,0,1-4.851-7.287,13.445,13.445,0,0,1,1.34-10.295,14.1,14.1,0,0,1,18.864-5.235,13.766,13.766,0,0,1,6.882,9.65,14.086,14.086,0,0,1,11.881.876,13.766,13.766,0,0,1,5.3,18.681A14.111,14.111,0,0,1-2288.1,150.6l-24.292,42.43a13.546,13.546,0,0,1,4.934,7.214,13.445,13.445,0,0,1-1.338,10.393h0A14.023,14.023,0,0,1-2320.957,217.569Zm-11.757-16.554a1.988,1.988,0,0,1,.986.261,2,2,0,0,1,1.009,1.874,9.757,9.757,0,0,0,5,9.219,10.071,10.071,0,0,0,13.458-3.734h0a9.471,9.471,0,0,0,.951-7.322,9.688,9.688,0,0,0-4.721-5.891,2,2,0,0,1-.959-1.211,2,2,0,0,1,.19-1.534l26.134-45.648a2,2,0,0,1,2.692-.763,10.073,10.073,0,0,0,13.484-3.72,9.638,9.638,0,0,0-3.783-13.219,10.047,10.047,0,0,0-10.6.483,2,2,0,0,1-2.126.1,2,2,0,0,1-1.009-1.874,9.758,9.758,0,0,0-5-9.219,10.069,10.069,0,0,0-13.459,3.734,9.467,9.467,0,0,0-.945,7.252,9.8,9.8,0,0,0,4.643,5.975,2,2,0,0,1,.937,1.211,2,2,0,0,1-.194,1.519l-26.134,45.65a2,2,0,0,1-2.7.755,9.945,9.945,0,0,0-13.373,3.727,9.639,9.639,0,0,0,3.783,13.219,10.049,10.049,0,0,0,10.6-.484A2,2,0,0,1-2332.714,201.015Zm22.189,8.619h0Z" fill="rgba(0,0,0,0.15)"/>
      <g id="Group_38469" data-name="Group 38469">
        <path id="Path_40124" data-name="Path 40124" d="M-2264.373,192.946a1.982,1.982,0,0,1-.946-.24l-7.594-4.087a2,2,0,0,1-.813-2.709,2,2,0,0,1,2.709-.813l7.594,4.088a2,2,0,0,1,.813,2.709A2,2,0,0,1-2264.373,192.946Z" fill="rgba(0,0,0,0.15)"/>
        <path id="Path_40125" data-name="Path 40125" d="M-2261.41,177.86c-.062,0-.123,0-.186-.009l-8.481-.779a2,2,0,0,1-1.808-2.174,2,2,0,0,1,2.175-1.809l8.481.78a2,2,0,0,1,1.808,2.173A2,2,0,0,1-2261.41,177.86Z" fill="rgba(0,0,0,0.15)"/>
        <path id="Path_40126" data-name="Path 40126" d="M-2275.514,203.653a2,2,0,0,1-1.559-.746l-5.325-6.62a2,2,0,0,1,.3-2.812,2,2,0,0,1,2.812.3l5.325,6.619a2,2,0,0,1-.3,2.812A2,2,0,0,1-2275.514,203.653Z" fill="rgba(0,0,0,0.15)"/>
      </g>
      <g id="Group_38470" data-name="Group 38470">
        <path id="Path_40127" data-name="Path 40127" d="M-2349.185,146.908a1.989,1.989,0,0,1-1.232-.426l-6.707-5.256a2,2,0,0,1-.34-2.808,2,2,0,0,1,2.808-.34l6.706,5.255a2,2,0,0,1,.341,2.808A2,2,0,0,1-2349.185,146.908Z" fill="rgba(0,0,0,0.15)"/>
        <path id="Path_40128" data-name="Path 40128" d="M-2353.226,158.2a1.978,1.978,0,0,1-.507-.067l-8.186-2.141a2,2,0,0,1-1.429-2.441,2,2,0,0,1,2.442-1.429l8.185,2.142a2,2,0,0,1,1.429,2.44A2,2,0,0,1-2353.226,158.2Z" fill="rgba(0,0,0,0.15)"/>
        <path id="Path_40129" data-name="Path 40129" d="M-2339.024,140.387a2,2,0,0,1-1.747-1.022l-4.142-7.4a2,2,0,0,1,.768-2.723,2,2,0,0,1,2.722.768l4.142,7.4a2,2,0,0,1-.768,2.722A1.989,1.989,0,0,1-2339.024,140.387Z" fill="rgba(0,0,0,0.15)"/>
      </g>
      <path id="Path_40130" data-name="Path 40130" d="M-2324.038,183.5a1.994,1.994,0,0,1-.992-.264,2,2,0,0,1-.741-2.731l4.241-7.4a2,2,0,0,1,2.729-.741,2,2,0,0,1,.74,2.731l-4.24,7.4A2,2,0,0,1-2324.038,183.5Z" fill="rgba(0,0,0,0.15)"/>
    </g>
    <g id="Group_38474" data-name="Group 38474" transform="matrix(0.966, 0.259, -0.259, 0.966, 4179.83, 2133.289)">
      <path id="Path_40123-2" data-name="Path 40123" d="M-2320.957,217.569a13.972,13.972,0,0,1-6.7-1.7,13.766,13.766,0,0,1-6.882-9.65,14.09,14.09,0,0,1-11.881-.877,13.764,13.764,0,0,1-5.3-18.68,13.99,13.99,0,0,1,16.994-6.083l24.3-42.447a13.722,13.722,0,0,1-4.851-7.287,13.445,13.445,0,0,1,1.34-10.295,14.1,14.1,0,0,1,18.864-5.235,13.766,13.766,0,0,1,6.882,9.65,14.086,14.086,0,0,1,11.881.876,13.766,13.766,0,0,1,5.3,18.681A14.111,14.111,0,0,1-2288.1,150.6l-24.292,42.43a13.546,13.546,0,0,1,4.934,7.214,13.445,13.445,0,0,1-1.338,10.393h0A14.023,14.023,0,0,1-2320.957,217.569Zm-11.757-16.554a1.988,1.988,0,0,1,.986.261,2,2,0,0,1,1.009,1.874,9.757,9.757,0,0,0,5,9.219,10.071,10.071,0,0,0,13.458-3.734h0a9.471,9.471,0,0,0,.951-7.322,9.688,9.688,0,0,0-4.721-5.891,2,2,0,0,1-.959-1.211,2,2,0,0,1,.19-1.534l26.134-45.648a2,2,0,0,1,2.692-.763,10.073,10.073,0,0,0,13.484-3.72,9.638,9.638,0,0,0-3.783-13.219,10.047,10.047,0,0,0-10.6.483,2,2,0,0,1-2.126.1,2,2,0,0,1-1.009-1.874,9.758,9.758,0,0,0-5-9.219,10.069,10.069,0,0,0-13.459,3.734,9.467,9.467,0,0,0-.945,7.252,9.8,9.8,0,0,0,4.643,5.975,2,2,0,0,1,.937,1.211,2,2,0,0,1-.194,1.519l-26.134,45.65a2,2,0,0,1-2.7.755,9.945,9.945,0,0,0-13.373,3.727,9.639,9.639,0,0,0,3.783,13.219,10.049,10.049,0,0,0,10.6-.484A2,2,0,0,1-2332.714,201.015Zm22.189,8.619h0Z" fill="rgba(0,0,0,0.15)"/>
      <g id="Group_38469-2" data-name="Group 38469">
        <path id="Path_40124-2" data-name="Path 40124" d="M-2264.373,192.946a1.982,1.982,0,0,1-.946-.24l-7.594-4.087a2,2,0,0,1-.813-2.709,2,2,0,0,1,2.709-.813l7.594,4.088a2,2,0,0,1,.813,2.709A2,2,0,0,1-2264.373,192.946Z" fill="rgba(0,0,0,0.15)"/>
        <path id="Path_40125-2" data-name="Path 40125" d="M-2261.41,177.86c-.062,0-.123,0-.186-.009l-8.481-.779a2,2,0,0,1-1.808-2.174,2,2,0,0,1,2.175-1.809l8.481.78a2,2,0,0,1,1.808,2.173A2,2,0,0,1-2261.41,177.86Z" fill="rgba(0,0,0,0.15)"/>
        <path id="Path_40126-2" data-name="Path 40126" d="M-2275.514,203.653a2,2,0,0,1-1.559-.746l-5.325-6.62a2,2,0,0,1,.3-2.812,2,2,0,0,1,2.812.3l5.325,6.619a2,2,0,0,1-.3,2.812A2,2,0,0,1-2275.514,203.653Z" fill="rgba(0,0,0,0.15)"/>
      </g>
      <g id="Group_38470-2" data-name="Group 38470">
        <path id="Path_40127-2" data-name="Path 40127" d="M-2349.185,146.908a1.989,1.989,0,0,1-1.232-.426l-6.707-5.256a2,2,0,0,1-.34-2.808,2,2,0,0,1,2.808-.34l6.706,5.255a2,2,0,0,1,.341,2.808A2,2,0,0,1-2349.185,146.908Z" fill="rgba(0,0,0,0.15)"/>
        <path id="Path_40128-2" data-name="Path 40128" d="M-2353.226,158.2a1.978,1.978,0,0,1-.507-.067l-8.186-2.141a2,2,0,0,1-1.429-2.441,2,2,0,0,1,2.442-1.429l8.185,2.142a2,2,0,0,1,1.429,2.44A2,2,0,0,1-2353.226,158.2Z" fill="rgba(0,0,0,0.15)"/>
        <path id="Path_40129-2" data-name="Path 40129" d="M-2339.024,140.387a2,2,0,0,1-1.747-1.022l-4.142-7.4a2,2,0,0,1,.768-2.723,2,2,0,0,1,2.722.768l4.142,7.4a2,2,0,0,1-.768,2.722A1.989,1.989,0,0,1-2339.024,140.387Z" fill="rgba(0,0,0,0.15)"/>
      </g>
      <path id="Path_40130-2" data-name="Path 40130" d="M-2324.038,183.5a1.994,1.994,0,0,1-.992-.264,2,2,0,0,1-.741-2.731l4.241-7.4a2,2,0,0,1,2.729-.741,2,2,0,0,1,.74,2.731l-4.24,7.4A2,2,0,0,1-2324.038,183.5Z" fill="rgba(0,0,0,0.15)"/>
    </g>
    <g id="Group_38570" data-name="Group 38570" transform="matrix(-0.259, 0.966, -0.966, -0.259, 956.03, 4336.512)">
      <path id="Path_40123-3" data-name="Path 40123" d="M-2320.957,217.569a13.972,13.972,0,0,1-6.7-1.7,13.766,13.766,0,0,1-6.882-9.65,14.09,14.09,0,0,1-11.881-.877,13.764,13.764,0,0,1-5.3-18.68,13.99,13.99,0,0,1,16.994-6.083l24.3-42.447a13.722,13.722,0,0,1-4.851-7.287,13.445,13.445,0,0,1,1.34-10.295,14.1,14.1,0,0,1,18.864-5.235,13.766,13.766,0,0,1,6.882,9.65,14.086,14.086,0,0,1,11.881.876,13.766,13.766,0,0,1,5.3,18.681A14.111,14.111,0,0,1-2288.1,150.6l-24.292,42.43a13.546,13.546,0,0,1,4.934,7.214,13.445,13.445,0,0,1-1.338,10.393h0A14.023,14.023,0,0,1-2320.957,217.569Zm-11.757-16.554a1.988,1.988,0,0,1,.986.261,2,2,0,0,1,1.009,1.874,9.757,9.757,0,0,0,5,9.219,10.071,10.071,0,0,0,13.458-3.734h0a9.471,9.471,0,0,0,.951-7.322,9.688,9.688,0,0,0-4.721-5.891,2,2,0,0,1-.959-1.211,2,2,0,0,1,.19-1.534l26.134-45.648a2,2,0,0,1,2.692-.763,10.073,10.073,0,0,0,13.484-3.72,9.638,9.638,0,0,0-3.783-13.219,10.047,10.047,0,0,0-10.6.483,2,2,0,0,1-2.126.1,2,2,0,0,1-1.009-1.874,9.758,9.758,0,0,0-5-9.219,10.069,10.069,0,0,0-13.459,3.734,9.467,9.467,0,0,0-.945,7.252,9.8,9.8,0,0,0,4.643,5.975,2,2,0,0,1,.937,1.211,2,2,0,0,1-.194,1.519l-26.134,45.65a2,2,0,0,1-2.7.755,9.945,9.945,0,0,0-13.373,3.727,9.639,9.639,0,0,0,3.783,13.219,10.049,10.049,0,0,0,10.6-.484A2,2,0,0,1-2332.714,201.015Zm22.189,8.619h0Z" fill="rgba(0,0,0,0.15)"/>
      <g id="Group_38469-3" data-name="Group 38469">
        <path id="Path_40124-3" data-name="Path 40124" d="M-2264.373,192.946a1.982,1.982,0,0,1-.946-.24l-7.594-4.087a2,2,0,0,1-.813-2.709,2,2,0,0,1,2.709-.813l7.594,4.088a2,2,0,0,1,.813,2.709A2,2,0,0,1-2264.373,192.946Z" fill="rgba(0,0,0,0.15)"/>
        <path id="Path_40125-3" data-name="Path 40125" d="M-2261.41,177.86c-.062,0-.123,0-.186-.009l-8.481-.779a2,2,0,0,1-1.808-2.174,2,2,0,0,1,2.175-1.809l8.481.78a2,2,0,0,1,1.808,2.173A2,2,0,0,1-2261.41,177.86Z" fill="rgba(0,0,0,0.15)"/>
        <path id="Path_40126-3" data-name="Path 40126" d="M-2275.514,203.653a2,2,0,0,1-1.559-.746l-5.325-6.62a2,2,0,0,1,.3-2.812,2,2,0,0,1,2.812.3l5.325,6.619a2,2,0,0,1-.3,2.812A2,2,0,0,1-2275.514,203.653Z" fill="rgba(0,0,0,0.15)"/>
      </g>
      <g id="Group_38470-3" data-name="Group 38470">
        <path id="Path_40127-3" data-name="Path 40127" d="M-2349.185,146.908a1.989,1.989,0,0,1-1.232-.426l-6.707-5.256a2,2,0,0,1-.34-2.808,2,2,0,0,1,2.808-.34l6.706,5.255a2,2,0,0,1,.341,2.808A2,2,0,0,1-2349.185,146.908Z" fill="rgba(0,0,0,0.15)"/>
        <path id="Path_40128-3" data-name="Path 40128" d="M-2353.226,158.2a1.978,1.978,0,0,1-.507-.067l-8.186-2.141a2,2,0,0,1-1.429-2.441,2,2,0,0,1,2.442-1.429l8.185,2.142a2,2,0,0,1,1.429,2.44A2,2,0,0,1-2353.226,158.2Z" fill="rgba(0,0,0,0.15)"/>
        <path id="Path_40129-3" data-name="Path 40129" d="M-2339.024,140.387a2,2,0,0,1-1.747-1.022l-4.142-7.4a2,2,0,0,1,.768-2.723,2,2,0,0,1,2.722.768l4.142,7.4a2,2,0,0,1-.768,2.722A1.989,1.989,0,0,1-2339.024,140.387Z" fill="rgba(0,0,0,0.15)"/>
      </g>
      <path id="Path_40130-3" data-name="Path 40130" d="M-2324.038,183.5a1.994,1.994,0,0,1-.992-.264,2,2,0,0,1-.741-2.731l4.241-7.4a2,2,0,0,1,2.729-.741,2,2,0,0,1,.74,2.731l-4.24,7.4A2,2,0,0,1-2324.038,183.5Z" fill="rgba(0,0,0,0.15)"/>
    </g>
    <g id="Group_38571" data-name="Group 38571" transform="matrix(-0.259, 0.966, -0.966, -0.259, 1311.03, 4811.512)">
      <path id="Path_40123-4" data-name="Path 40123" d="M-2320.957,217.569a13.972,13.972,0,0,1-6.7-1.7,13.766,13.766,0,0,1-6.882-9.65,14.09,14.09,0,0,1-11.881-.877,13.764,13.764,0,0,1-5.3-18.68,13.99,13.99,0,0,1,16.994-6.083l24.3-42.447a13.722,13.722,0,0,1-4.851-7.287,13.445,13.445,0,0,1,1.34-10.295,14.1,14.1,0,0,1,18.864-5.235,13.766,13.766,0,0,1,6.882,9.65,14.086,14.086,0,0,1,11.881.876,13.766,13.766,0,0,1,5.3,18.681A14.111,14.111,0,0,1-2288.1,150.6l-24.292,42.43a13.546,13.546,0,0,1,4.934,7.214,13.445,13.445,0,0,1-1.338,10.393h0A14.023,14.023,0,0,1-2320.957,217.569Zm-11.757-16.554a1.988,1.988,0,0,1,.986.261,2,2,0,0,1,1.009,1.874,9.757,9.757,0,0,0,5,9.219,10.071,10.071,0,0,0,13.458-3.734h0a9.471,9.471,0,0,0,.951-7.322,9.688,9.688,0,0,0-4.721-5.891,2,2,0,0,1-.959-1.211,2,2,0,0,1,.19-1.534l26.134-45.648a2,2,0,0,1,2.692-.763,10.073,10.073,0,0,0,13.484-3.72,9.638,9.638,0,0,0-3.783-13.219,10.047,10.047,0,0,0-10.6.483,2,2,0,0,1-2.126.1,2,2,0,0,1-1.009-1.874,9.758,9.758,0,0,0-5-9.219,10.069,10.069,0,0,0-13.459,3.734,9.467,9.467,0,0,0-.945,7.252,9.8,9.8,0,0,0,4.643,5.975,2,2,0,0,1,.937,1.211,2,2,0,0,1-.194,1.519l-26.134,45.65a2,2,0,0,1-2.7.755,9.945,9.945,0,0,0-13.373,3.727,9.639,9.639,0,0,0,3.783,13.219,10.049,10.049,0,0,0,10.6-.484A2,2,0,0,1-2332.714,201.015Zm22.189,8.619h0Z" fill="rgba(0,0,0,0.15)"/>
      <g id="Group_38469-4" data-name="Group 38469">
        <path id="Path_40124-4" data-name="Path 40124" d="M-2264.373,192.946a1.982,1.982,0,0,1-.946-.24l-7.594-4.087a2,2,0,0,1-.813-2.709,2,2,0,0,1,2.709-.813l7.594,4.088a2,2,0,0,1,.813,2.709A2,2,0,0,1-2264.373,192.946Z" fill="rgba(0,0,0,0.15)"/>
        <path id="Path_40125-4" data-name="Path 40125" d="M-2261.41,177.86c-.062,0-.123,0-.186-.009l-8.481-.779a2,2,0,0,1-1.808-2.174,2,2,0,0,1,2.175-1.809l8.481.78a2,2,0,0,1,1.808,2.173A2,2,0,0,1-2261.41,177.86Z" fill="rgba(0,0,0,0.15)"/>
        <path id="Path_40126-4" data-name="Path 40126" d="M-2275.514,203.653a2,2,0,0,1-1.559-.746l-5.325-6.62a2,2,0,0,1,.3-2.812,2,2,0,0,1,2.812.3l5.325,6.619a2,2,0,0,1-.3,2.812A2,2,0,0,1-2275.514,203.653Z" fill="rgba(0,0,0,0.15)"/>
      </g>
      <g id="Group_38470-4" data-name="Group 38470">
        <path id="Path_40127-4" data-name="Path 40127" d="M-2349.185,146.908a1.989,1.989,0,0,1-1.232-.426l-6.707-5.256a2,2,0,0,1-.34-2.808,2,2,0,0,1,2.808-.34l6.706,5.255a2,2,0,0,1,.341,2.808A2,2,0,0,1-2349.185,146.908Z" fill="rgba(0,0,0,0.15)"/>
        <path id="Path_40128-4" data-name="Path 40128" d="M-2353.226,158.2a1.978,1.978,0,0,1-.507-.067l-8.186-2.141a2,2,0,0,1-1.429-2.441,2,2,0,0,1,2.442-1.429l8.185,2.142a2,2,0,0,1,1.429,2.44A2,2,0,0,1-2353.226,158.2Z" fill="rgba(0,0,0,0.15)"/>
        <path id="Path_40129-4" data-name="Path 40129" d="M-2339.024,140.387a2,2,0,0,1-1.747-1.022l-4.142-7.4a2,2,0,0,1,.768-2.723,2,2,0,0,1,2.722.768l4.142,7.4a2,2,0,0,1-.768,2.722A1.989,1.989,0,0,1-2339.024,140.387Z" fill="rgba(0,0,0,0.15)"/>
      </g>
      <path id="Path_40130-4" data-name="Path 40130" d="M-2324.038,183.5a1.994,1.994,0,0,1-.992-.264,2,2,0,0,1-.741-2.731l4.241-7.4a2,2,0,0,1,2.729-.741,2,2,0,0,1,.74,2.731l-4.24,7.4A2,2,0,0,1-2324.038,183.5Z" fill="rgba(0,0,0,0.15)"/>
    </g>
    <g id="Group_38572" data-name="Group 38572" transform="matrix(-0.259, 0.966, -0.966, -0.259, -141.954, 3668.512)">
      <path id="Path_40123-5" data-name="Path 40123" d="M-2320.957,217.569a13.972,13.972,0,0,1-6.7-1.7,13.766,13.766,0,0,1-6.882-9.65,14.09,14.09,0,0,1-11.881-.877,13.764,13.764,0,0,1-5.3-18.68,13.99,13.99,0,0,1,16.994-6.083l24.3-42.447a13.722,13.722,0,0,1-4.851-7.287,13.445,13.445,0,0,1,1.34-10.295,14.1,14.1,0,0,1,18.864-5.235,13.766,13.766,0,0,1,6.882,9.65,14.086,14.086,0,0,1,11.881.876,13.766,13.766,0,0,1,5.3,18.681A14.111,14.111,0,0,1-2288.1,150.6l-24.292,42.43a13.546,13.546,0,0,1,4.934,7.214,13.445,13.445,0,0,1-1.338,10.393h0A14.023,14.023,0,0,1-2320.957,217.569Zm-11.757-16.554a1.988,1.988,0,0,1,.986.261,2,2,0,0,1,1.009,1.874,9.757,9.757,0,0,0,5,9.219,10.071,10.071,0,0,0,13.458-3.734h0a9.471,9.471,0,0,0,.951-7.322,9.688,9.688,0,0,0-4.721-5.891,2,2,0,0,1-.959-1.211,2,2,0,0,1,.19-1.534l26.134-45.648a2,2,0,0,1,2.692-.763,10.073,10.073,0,0,0,13.484-3.72,9.638,9.638,0,0,0-3.783-13.219,10.047,10.047,0,0,0-10.6.483,2,2,0,0,1-2.126.1,2,2,0,0,1-1.009-1.874,9.758,9.758,0,0,0-5-9.219,10.069,10.069,0,0,0-13.459,3.734,9.467,9.467,0,0,0-.945,7.252,9.8,9.8,0,0,0,4.643,5.975,2,2,0,0,1,.937,1.211,2,2,0,0,1-.194,1.519l-26.134,45.65a2,2,0,0,1-2.7.755,9.945,9.945,0,0,0-13.373,3.727,9.639,9.639,0,0,0,3.783,13.219,10.049,10.049,0,0,0,10.6-.484A2,2,0,0,1-2332.714,201.015Zm22.189,8.619h0Z" fill="rgba(0,0,0,0.15)"/>
      <g id="Group_38469-5" data-name="Group 38469">
        <path id="Path_40124-5" data-name="Path 40124" d="M-2264.373,192.946a1.982,1.982,0,0,1-.946-.24l-7.594-4.087a2,2,0,0,1-.813-2.709,2,2,0,0,1,2.709-.813l7.594,4.088a2,2,0,0,1,.813,2.709A2,2,0,0,1-2264.373,192.946Z" fill="rgba(0,0,0,0.15)"/>
        <path id="Path_40125-5" data-name="Path 40125" d="M-2261.41,177.86c-.062,0-.123,0-.186-.009l-8.481-.779a2,2,0,0,1-1.808-2.174,2,2,0,0,1,2.175-1.809l8.481.78a2,2,0,0,1,1.808,2.173A2,2,0,0,1-2261.41,177.86Z" fill="rgba(0,0,0,0.15)"/>
        <path id="Path_40126-5" data-name="Path 40126" d="M-2275.514,203.653a2,2,0,0,1-1.559-.746l-5.325-6.62a2,2,0,0,1,.3-2.812,2,2,0,0,1,2.812.3l5.325,6.619a2,2,0,0,1-.3,2.812A2,2,0,0,1-2275.514,203.653Z" fill="rgba(0,0,0,0.15)"/>
      </g>
      <g id="Group_38470-5" data-name="Group 38470">
        <path id="Path_40127-5" data-name="Path 40127" d="M-2349.185,146.908a1.989,1.989,0,0,1-1.232-.426l-6.707-5.256a2,2,0,0,1-.34-2.808,2,2,0,0,1,2.808-.34l6.706,5.255a2,2,0,0,1,.341,2.808A2,2,0,0,1-2349.185,146.908Z" fill="rgba(0,0,0,0.15)"/>
        <path id="Path_40128-5" data-name="Path 40128" d="M-2353.226,158.2a1.978,1.978,0,0,1-.507-.067l-8.186-2.141a2,2,0,0,1-1.429-2.441,2,2,0,0,1,2.442-1.429l8.185,2.142a2,2,0,0,1,1.429,2.44A2,2,0,0,1-2353.226,158.2Z" fill="rgba(0,0,0,0.15)"/>
        <path id="Path_40129-5" data-name="Path 40129" d="M-2339.024,140.387a2,2,0,0,1-1.747-1.022l-4.142-7.4a2,2,0,0,1,.768-2.723,2,2,0,0,1,2.722.768l4.142,7.4a2,2,0,0,1-.768,2.722A1.989,1.989,0,0,1-2339.024,140.387Z" fill="rgba(0,0,0,0.15)"/>
      </g>
      <path id="Path_40130-5" data-name="Path 40130" d="M-2324.038,183.5a1.994,1.994,0,0,1-.992-.264,2,2,0,0,1-.741-2.731l4.241-7.4a2,2,0,0,1,2.729-.741,2,2,0,0,1,.74,2.731l-4.24,7.4A2,2,0,0,1-2324.038,183.5Z" fill="rgba(0,0,0,0.15)"/>
    </g>
    <g id="Group_38461" data-name="Group 38461" transform="translate(2483.653 164.5)">
      <ellipse id="Ellipse_137" data-name="Ellipse 137" cx="3.812" cy="3.842" rx="3.812" ry="3.842" transform="translate(-2254.529 254.86) rotate(-0.074)" fill="rgba(0,0,0,0.15)"/>
      <path id="Path_40114" data-name="Path 40114" d="M-2207.56,262.02a3.265,3.265,0,0,1-.66.3,26.127,26.127,0,0,1,.32,4.01,24.364,24.364,0,0,1-14.48,22.32,30.817,30.817,0,0,1-3.31,1.19,23.993,23.993,0,0,1-17.48-1.83,25.268,25.268,0,0,1-5.44-3.88l-20.49,10.03-1.26-.87c-1.77-1.23-3.97-2.75-7.25-2.23a8.678,8.678,0,0,0-7.32,7.59,8.387,8.387,0,0,0,1.19,4.97,8.294,8.294,0,0,0,7.09,4.06h.58a5.609,5.609,0,0,1,4.17,1.64,6.1,6.1,0,0,1,1.84,4.11,10.065,10.065,0,0,0,.84,3.69,6.946,6.946,0,0,0,3.36,3.44,8.606,8.606,0,0,0,8.42-.34,8.252,8.252,0,0,0,3.81-7,8.319,8.319,0,0,0-3.56-6.84l-2.34-1.66,18.34-12.57,1.03,2.06a8.169,8.169,0,0,0,7.29,4.5,8.44,8.44,0,0,0,4.04-1.04,2,2,0,0,1,2.71.82,1.994,1.994,0,0,1-.81,2.7,12.411,12.411,0,0,1-5.94,1.52,12.232,12.232,0,0,1-9.67-4.79l-10.26,7.04a12.188,12.188,0,0,1,3.17,8.26,12.248,12.248,0,0,1-5.66,10.38,12.049,12.049,0,0,1-6.53,1.9,13.56,13.56,0,0,1-5.71-1.3,11.066,11.066,0,0,1-5.38-5.53,14.059,14.059,0,0,1-1.15-5.15,2.1,2.1,0,0,0-.63-1.34,1.73,1.73,0,0,0-1.29-.5h-.67a12.3,12.3,0,0,1-10.52-6,12.365,12.365,0,0,1-1.74-7.4,12.713,12.713,0,0,1,10.69-11.17,12.6,12.6,0,0,1,9.46,2.43l21-10.29,1.01,1.08a20.764,20.764,0,0,0,5.43,4.13,19.992,19.992,0,0,0,14.59,1.51,22.691,22.691,0,0,0,2.78-1,20.35,20.35,0,0,0,12.05-18.64,20.884,20.884,0,0,0-.2-2.87l-16.32-.45a10.9,10.9,0,0,1-8.54-4.7,52.361,52.361,0,0,0-8.45-9.28,48.319,48.319,0,0,0-31.24-11.53,36.97,36.97,0,0,0-4.54.18,48.314,48.314,0,0,0-41.55,33.69,20.874,20.874,0,0,0-.65,2.14,13.193,13.193,0,0,0-.15,4.43,13.113,13.113,0,0,0,13.65,11.32h.3a11.9,11.9,0,0,0,5.61-1.78,13.45,13.45,0,0,0,1.34-.93l.1-.08a47.471,47.471,0,0,0,12.76-13.61,50.162,50.162,0,0,0,7.41-25.76v-.27a2,2,0,0,1,2-2,1.993,1.993,0,0,1,2,2v.29a54.163,54.163,0,0,1-8.02,27.85,51.278,51.278,0,0,1-13.79,14.73,17.3,17.3,0,0,1-1.73,1.2,15.713,15.713,0,0,1-7.6,2.35l-.22.01a17.146,17.146,0,0,1-17.78-14.86,16.938,16.938,0,0,1,.23-5.82,21.818,21.818,0,0,1,.76-2.51,52.218,52.218,0,0,1,44.89-36.36,38.724,38.724,0,0,1,4.98-.21,52.334,52.334,0,0,1,33.84,12.49,57.137,57.137,0,0,1,9.13,10.02,6.844,6.844,0,0,0,5.38,3l15.1.42a3.843,3.843,0,0,1,1.83-4.06,3.8,3.8,0,0,1,5.21,1.41A3.857,3.857,0,0,1-2207.56,262.02Z" fill="rgba(0,0,0,0.15)"/>
    </g>
    <g id="Group_38569" data-name="Group 38569" transform="translate(2287.653 1993.5)">
      <ellipse id="Ellipse_137-2" data-name="Ellipse 137" cx="3.812" cy="3.842" rx="3.812" ry="3.842" transform="translate(-2254.529 254.86) rotate(-0.074)" fill="rgba(0,0,0,0.15)"/>
      <path id="Path_40114-2" data-name="Path 40114" d="M-2207.56,262.02a3.265,3.265,0,0,1-.66.3,26.127,26.127,0,0,1,.32,4.01,24.364,24.364,0,0,1-14.48,22.32,30.817,30.817,0,0,1-3.31,1.19,23.993,23.993,0,0,1-17.48-1.83,25.268,25.268,0,0,1-5.44-3.88l-20.49,10.03-1.26-.87c-1.77-1.23-3.97-2.75-7.25-2.23a8.678,8.678,0,0,0-7.32,7.59,8.387,8.387,0,0,0,1.19,4.97,8.294,8.294,0,0,0,7.09,4.06h.58a5.609,5.609,0,0,1,4.17,1.64,6.1,6.1,0,0,1,1.84,4.11,10.065,10.065,0,0,0,.84,3.69,6.946,6.946,0,0,0,3.36,3.44,8.606,8.606,0,0,0,8.42-.34,8.252,8.252,0,0,0,3.81-7,8.319,8.319,0,0,0-3.56-6.84l-2.34-1.66,18.34-12.57,1.03,2.06a8.169,8.169,0,0,0,7.29,4.5,8.44,8.44,0,0,0,4.04-1.04,2,2,0,0,1,2.71.82,1.994,1.994,0,0,1-.81,2.7,12.411,12.411,0,0,1-5.94,1.52,12.232,12.232,0,0,1-9.67-4.79l-10.26,7.04a12.188,12.188,0,0,1,3.17,8.26,12.248,12.248,0,0,1-5.66,10.38,12.049,12.049,0,0,1-6.53,1.9,13.56,13.56,0,0,1-5.71-1.3,11.066,11.066,0,0,1-5.38-5.53,14.059,14.059,0,0,1-1.15-5.15,2.1,2.1,0,0,0-.63-1.34,1.73,1.73,0,0,0-1.29-.5h-.67a12.3,12.3,0,0,1-10.52-6,12.365,12.365,0,0,1-1.74-7.4,12.713,12.713,0,0,1,10.69-11.17,12.6,12.6,0,0,1,9.46,2.43l21-10.29,1.01,1.08a20.764,20.764,0,0,0,5.43,4.13,19.992,19.992,0,0,0,14.59,1.51,22.691,22.691,0,0,0,2.78-1,20.35,20.35,0,0,0,12.05-18.64,20.884,20.884,0,0,0-.2-2.87l-16.32-.45a10.9,10.9,0,0,1-8.54-4.7,52.361,52.361,0,0,0-8.45-9.28,48.319,48.319,0,0,0-31.24-11.53,36.97,36.97,0,0,0-4.54.18,48.314,48.314,0,0,0-41.55,33.69,20.874,20.874,0,0,0-.65,2.14,13.193,13.193,0,0,0-.15,4.43,13.113,13.113,0,0,0,13.65,11.32h.3a11.9,11.9,0,0,0,5.61-1.78,13.45,13.45,0,0,0,1.34-.93l.1-.08a47.471,47.471,0,0,0,12.76-13.61,50.162,50.162,0,0,0,7.41-25.76v-.27a2,2,0,0,1,2-2,1.993,1.993,0,0,1,2,2v.29a54.163,54.163,0,0,1-8.02,27.85,51.278,51.278,0,0,1-13.79,14.73,17.3,17.3,0,0,1-1.73,1.2,15.713,15.713,0,0,1-7.6,2.35l-.22.01a17.146,17.146,0,0,1-17.78-14.86,16.938,16.938,0,0,1,.23-5.82,21.818,21.818,0,0,1,.76-2.51,52.218,52.218,0,0,1,44.89-36.36,38.724,38.724,0,0,1,4.98-.21,52.334,52.334,0,0,1,33.84,12.49,57.137,57.137,0,0,1,9.13,10.02,6.844,6.844,0,0,0,5.38,3l15.1.42a3.843,3.843,0,0,1,1.83-4.06,3.8,3.8,0,0,1,5.21,1.41A3.857,3.857,0,0,1-2207.56,262.02Z" fill="rgba(0,0,0,0.15)"/>
    </g>
    <g id="Group_38573" data-name="Group 38573" transform="translate(3459.653 1067.5)">
      <ellipse id="Ellipse_137-3" data-name="Ellipse 137" cx="3.812" cy="3.842" rx="3.812" ry="3.842" transform="translate(-2254.529 254.86) rotate(-0.074)" fill="rgba(0,0,0,0.15)"/>
      <path id="Path_40114-3" data-name="Path 40114" d="M-2207.56,262.02a3.265,3.265,0,0,1-.66.3,26.127,26.127,0,0,1,.32,4.01,24.364,24.364,0,0,1-14.48,22.32,30.817,30.817,0,0,1-3.31,1.19,23.993,23.993,0,0,1-17.48-1.83,25.268,25.268,0,0,1-5.44-3.88l-20.49,10.03-1.26-.87c-1.77-1.23-3.97-2.75-7.25-2.23a8.678,8.678,0,0,0-7.32,7.59,8.387,8.387,0,0,0,1.19,4.97,8.294,8.294,0,0,0,7.09,4.06h.58a5.609,5.609,0,0,1,4.17,1.64,6.1,6.1,0,0,1,1.84,4.11,10.065,10.065,0,0,0,.84,3.69,6.946,6.946,0,0,0,3.36,3.44,8.606,8.606,0,0,0,8.42-.34,8.252,8.252,0,0,0,3.81-7,8.319,8.319,0,0,0-3.56-6.84l-2.34-1.66,18.34-12.57,1.03,2.06a8.169,8.169,0,0,0,7.29,4.5,8.44,8.44,0,0,0,4.04-1.04,2,2,0,0,1,2.71.82,1.994,1.994,0,0,1-.81,2.7,12.411,12.411,0,0,1-5.94,1.52,12.232,12.232,0,0,1-9.67-4.79l-10.26,7.04a12.188,12.188,0,0,1,3.17,8.26,12.248,12.248,0,0,1-5.66,10.38,12.049,12.049,0,0,1-6.53,1.9,13.56,13.56,0,0,1-5.71-1.3,11.066,11.066,0,0,1-5.38-5.53,14.059,14.059,0,0,1-1.15-5.15,2.1,2.1,0,0,0-.63-1.34,1.73,1.73,0,0,0-1.29-.5h-.67a12.3,12.3,0,0,1-10.52-6,12.365,12.365,0,0,1-1.74-7.4,12.713,12.713,0,0,1,10.69-11.17,12.6,12.6,0,0,1,9.46,2.43l21-10.29,1.01,1.08a20.764,20.764,0,0,0,5.43,4.13,19.992,19.992,0,0,0,14.59,1.51,22.691,22.691,0,0,0,2.78-1,20.35,20.35,0,0,0,12.05-18.64,20.884,20.884,0,0,0-.2-2.87l-16.32-.45a10.9,10.9,0,0,1-8.54-4.7,52.361,52.361,0,0,0-8.45-9.28,48.319,48.319,0,0,0-31.24-11.53,36.97,36.97,0,0,0-4.54.18,48.314,48.314,0,0,0-41.55,33.69,20.874,20.874,0,0,0-.65,2.14,13.193,13.193,0,0,0-.15,4.43,13.113,13.113,0,0,0,13.65,11.32h.3a11.9,11.9,0,0,0,5.61-1.78,13.45,13.45,0,0,0,1.34-.93l.1-.08a47.471,47.471,0,0,0,12.76-13.61,50.162,50.162,0,0,0,7.41-25.76v-.27a2,2,0,0,1,2-2,1.993,1.993,0,0,1,2,2v.29a54.163,54.163,0,0,1-8.02,27.85,51.278,51.278,0,0,1-13.79,14.73,17.3,17.3,0,0,1-1.73,1.2,15.713,15.713,0,0,1-7.6,2.35l-.22.01a17.146,17.146,0,0,1-17.78-14.86,16.938,16.938,0,0,1,.23-5.82,21.818,21.818,0,0,1,.76-2.51,52.218,52.218,0,0,1,44.89-36.36,38.724,38.724,0,0,1,4.98-.21,52.334,52.334,0,0,1,33.84,12.49,57.137,57.137,0,0,1,9.13,10.02,6.844,6.844,0,0,0,5.38,3l15.1.42a3.843,3.843,0,0,1,1.83-4.06,3.8,3.8,0,0,1,5.21,1.41A3.857,3.857,0,0,1-2207.56,262.02Z" fill="rgba(0,0,0,0.15)"/>
    </g>
    <g id="Group_38465" data-name="Group 38465" transform="translate(4096.652 22.5)">
      <ellipse id="Ellipse_137-4" data-name="Ellipse 137" cx="3.812" cy="3.842" rx="3.812" ry="3.842" transform="translate(-2254.529 254.86) rotate(-0.074)" fill="rgba(0,0,0,0.15)"/>
      <path id="Path_40114-4" data-name="Path 40114" d="M-2207.56,262.02a3.265,3.265,0,0,1-.66.3,26.127,26.127,0,0,1,.32,4.01,24.364,24.364,0,0,1-14.48,22.32,30.817,30.817,0,0,1-3.31,1.19,23.993,23.993,0,0,1-17.48-1.83,25.268,25.268,0,0,1-5.44-3.88l-20.49,10.03-1.26-.87c-1.77-1.23-3.97-2.75-7.25-2.23a8.678,8.678,0,0,0-7.32,7.59,8.387,8.387,0,0,0,1.19,4.97,8.294,8.294,0,0,0,7.09,4.06h.58a5.609,5.609,0,0,1,4.17,1.64,6.1,6.1,0,0,1,1.84,4.11,10.065,10.065,0,0,0,.84,3.69,6.946,6.946,0,0,0,3.36,3.44,8.606,8.606,0,0,0,8.42-.34,8.252,8.252,0,0,0,3.81-7,8.319,8.319,0,0,0-3.56-6.84l-2.34-1.66,18.34-12.57,1.03,2.06a8.169,8.169,0,0,0,7.29,4.5,8.44,8.44,0,0,0,4.04-1.04,2,2,0,0,1,2.71.82,1.994,1.994,0,0,1-.81,2.7,12.411,12.411,0,0,1-5.94,1.52,12.232,12.232,0,0,1-9.67-4.79l-10.26,7.04a12.188,12.188,0,0,1,3.17,8.26,12.248,12.248,0,0,1-5.66,10.38,12.049,12.049,0,0,1-6.53,1.9,13.56,13.56,0,0,1-5.71-1.3,11.066,11.066,0,0,1-5.38-5.53,14.059,14.059,0,0,1-1.15-5.15,2.1,2.1,0,0,0-.63-1.34,1.73,1.73,0,0,0-1.29-.5h-.67a12.3,12.3,0,0,1-10.52-6,12.365,12.365,0,0,1-1.74-7.4,12.713,12.713,0,0,1,10.69-11.17,12.6,12.6,0,0,1,9.46,2.43l21-10.29,1.01,1.08a20.764,20.764,0,0,0,5.43,4.13,19.992,19.992,0,0,0,14.59,1.51,22.691,22.691,0,0,0,2.78-1,20.35,20.35,0,0,0,12.05-18.64,20.884,20.884,0,0,0-.2-2.87l-16.32-.45a10.9,10.9,0,0,1-8.54-4.7,52.361,52.361,0,0,0-8.45-9.28,48.319,48.319,0,0,0-31.24-11.53,36.97,36.97,0,0,0-4.54.18,48.314,48.314,0,0,0-41.55,33.69,20.874,20.874,0,0,0-.65,2.14,13.193,13.193,0,0,0-.15,4.43,13.113,13.113,0,0,0,13.65,11.32h.3a11.9,11.9,0,0,0,5.61-1.78,13.45,13.45,0,0,0,1.34-.93l.1-.08a47.471,47.471,0,0,0,12.76-13.61,50.162,50.162,0,0,0,7.41-25.76v-.27a2,2,0,0,1,2-2,1.993,1.993,0,0,1,2,2v.29a54.163,54.163,0,0,1-8.02,27.85,51.278,51.278,0,0,1-13.79,14.73,17.3,17.3,0,0,1-1.73,1.2,15.713,15.713,0,0,1-7.6,2.35l-.22.01a17.146,17.146,0,0,1-17.78-14.86,16.938,16.938,0,0,1,.23-5.82,21.818,21.818,0,0,1,.76-2.51,52.218,52.218,0,0,1,44.89-36.36,38.724,38.724,0,0,1,4.98-.21,52.334,52.334,0,0,1,33.84,12.49,57.137,57.137,0,0,1,9.13,10.02,6.844,6.844,0,0,0,5.38,3l15.1.42a3.843,3.843,0,0,1,1.83-4.06,3.8,3.8,0,0,1,5.21,1.41A3.857,3.857,0,0,1-2207.56,262.02Z" fill="rgba(0,0,0,0.15)"/>
    </g>
  </g>
</svg>
