<svg xmlns="http://www.w3.org/2000/svg" width="18" height="24" viewBox="0 0 18 24">
  <g id="Group_38610" data-name="Group 38610" transform="translate(27.697 -38.7)">
    <path id="Path_40165" data-name="Path 40165" d="M-18.7,62.7a1,1,0,0,1-.78-.374c-.841-1.05-8.22-10.379-8.22-14.879a8.885,8.885,0,0,1,9-8.747,8.885,8.885,0,0,1,9,8.747c0,4.5-7.379,13.829-8.219,14.879A1,1,0,0,1-18.7,62.7Zm0-22a6.885,6.885,0,0,0-7,6.747c0,2.884,4.505,9.369,7,12.629,2.5-3.261,7-9.747,7-12.629A6.884,6.884,0,0,0-18.7,40.7Z" fill="#db003b"/>
    <path id="Path_40166" data-name="Path 40166" d="M-18.7,50.148a3.2,3.2,0,0,1-3.23-3.16,3.2,3.2,0,0,1,3.23-3.16,3.2,3.2,0,0,1,3.232,3.16A3.2,3.2,0,0,1-18.7,50.148Zm0-4.32a1.2,1.2,0,0,0-1.23,1.16,1.2,1.2,0,0,0,1.23,1.16,1.2,1.2,0,0,0,1.232-1.16A1.2,1.2,0,0,0-18.7,45.828Z" fill="#db003b"/>
  </g>
</svg>
