<svg xmlns="http://www.w3.org/2000/svg" width="100" height="70" viewBox="0 0 100 70">
  <g id="Group_38634" data-name="Group 38634" transform="translate(-9716.753 6257.362)">
    <g id="Group_38621" data-name="Group 38621" transform="translate(9859.53 -6442.383)">
      <path id="Path_40177" data-name="Path 40177" d="M-107.624,232.776a1.292,1.292,0,0,1-1.573-.959,1.336,1.336,0,0,1,.932-1.62,1.292,1.292,0,0,1,1.573.958A1.341,1.341,0,0,1-107.624,232.776Z" fill="#db003c"/>
      <ellipse id="Ellipse_147" data-name="Ellipse 147" cx="1.291" cy="1.33" rx="1.291" ry="1.33" transform="translate(-114.706 210.998)" fill="#db003c"/>
      <ellipse id="Ellipse_148" data-name="Ellipse 148" cx="1.291" cy="1.33" rx="1.291" ry="1.33" transform="translate(-127.942 214.471)" fill="#db003c"/>
      <path id="Path_40178" data-name="Path 40178" d="M-116.914,227.919a1.468,1.468,0,0,1-.932-.333l-5.834-4.8a1.431,1.431,0,0,1-.524-1.117,1.432,1.432,0,0,1,.544-1.109l.781-.62a10.1,10.1,0,0,1,8.125-2.128l.973.159a1.454,1.454,0,0,1,1.033.714,1.426,1.426,0,0,1,.081,1.243l-2.9,7.088a1.451,1.451,0,0,1-.995.857A1.488,1.488,0,0,1-116.914,227.919Zm-3.507-6.193,2.9,2.388,1.452-3.557A7.089,7.089,0,0,0-120.421,221.726Z" fill="#db003c"/>
      <path id="Path_40179" data-name="Path 40179" d="M-122.032,251.8a.192.192,0,0,1-.058-.038.418.418,0,0,1-.087-.1A1.768,1.768,0,0,0-122.032,251.8Z" fill="#db003c"/>
      <path id="Path_40180" data-name="Path 40180" d="M-115.1,233.226" fill="none" stroke="#db003c" stroke-linecap="round" stroke-linejoin="round" stroke-width="3"/>
      <path id="Path_40181" data-name="Path 40181" d="M-122.032,251.8a.192.192,0,0,1-.058-.038.418.418,0,0,1-.087-.1A1.768,1.768,0,0,0-122.032,251.8Z" fill="#db003c"/>
      <path id="Path_40182" data-name="Path 40182" d="M-91.8,219.3c-.01.086-.02.163-.029.249a10.133,10.133,0,0,0,.33,1.247C-91.576,220.3-91.673,219.8-91.8,219.3Z" fill="#db003c"/>
      <path id="Path_40183" data-name="Path 40183" d="M-52.111,204.212a18.863,18.863,0,0,0-2.942-.048c2.272-4.1,3.8-10.029-.844-13.788a3.024,3.024,0,0,0-3.447-.3c-1.621.93-2.573,3.1-2.825,6.453a10.831,10.831,0,0,1-1.456,3.912c-.107-.058-.2-.106-.311-.154-.32-.153-.66-.3-1-.441a1.529,1.529,0,0,0-1.01-.048,1.477,1.477,0,0,0-.8-.623c-.7-.23-1.446-.441-2.213-.623a24.2,24.2,0,0,0-6.689-.652,9.892,9.892,0,0,1,.242-4.545c1.165-3.107,1.224-5.465.165-7.019A3.041,3.041,0,0,0-78.46,185.1c-5.971,1.371-6.738,7.671-6.524,11.995a19.16,19.16,0,0,0-2.456-1.15c-3.427-1.314-6.884-1.534-9.01-.576a3.8,3.8,0,0,0-2.1,2.129c-1.039,2.867,2.126,6.539,7.359,8.553q.365.144.728.259a23.108,23.108,0,0,0-2.33,4.6,30.56,30.56,0,0,0-1,3.164,12.611,12.611,0,0,0-4.446-4.88,6.165,6.165,0,0,0-4.718-.8,3.992,3.992,0,0,0-.806.288,38.365,38.365,0,0,0-8.99-8.975,20.738,20.738,0,0,0-2.622-1.534c-.009-.125-.019-.24-.019-.365a2.364,2.364,0,0,1,.058-.527,4.294,4.294,0,0,0-1.641-4.775,3.962,3.962,0,0,0-4.339.307,4.131,4.131,0,0,0-4.534-2.2,4.21,4.21,0,0,0-2.913,4.085,3.883,3.883,0,0,0-3.592,1.86,4.2,4.2,0,0,0,.524,4.631,2.864,2.864,0,0,1,.5,1.074,23.258,23.258,0,0,0-1.282,2.052,38.879,38.879,0,0,0-4.078,12.983,5.737,5.737,0,0,0-.7.134c-4.427,1.16-6.524,7.632-4.766,14.737,1.33,5.36,4.446,9.464,7.931,10.548a16.317,16.317,0,0,0,6.2,7.392,15.994,15.994,0,0,0,8.573,2.215,34.4,34.4,0,0,0,8.669-1.285c7.8-2.042,12.554-5.168,14.981-9.837a16.991,16.991,0,0,0,1.7-8.87l.009-.009c.146.7.311,1.4.505,2.109a1.415,1.415,0,0,0,.563.8,11.536,11.536,0,0,0-1.495,3.634,11.355,11.355,0,0,0,8.311,13.52,10.861,10.861,0,0,0,5.291-.1,10.963,10.963,0,0,0,4.728,2.435,10.889,10.889,0,0,0,2.476.288A10.783,10.783,0,0,0-68,253.381a11.245,11.245,0,0,0,5.039-7.181,11.48,11.48,0,0,0,.194-3.778,1.405,1.405,0,0,0,.864-.5,41.923,41.923,0,0,0,7.621-13.74,1.441,1.441,0,0,0-.941-1.812,1.467,1.467,0,0,0-1.835.93,39.181,39.181,0,0,1-6.495,12.081,11.1,11.1,0,0,0-7.719-6.693,10.639,10.639,0,0,0-5.291.1,10.841,10.841,0,0,0-4.728-2.445,10.922,10.922,0,0,0-9.689,2.513c-.194-.768-.359-1.525-.476-2.273a1.444,1.444,0,0,0-.8-1.064,12.364,12.364,0,0,0,.835-3.145,11.652,11.652,0,0,0,5.719,3.221,11.792,11.792,0,0,0,2.65.307,11.6,11.6,0,0,0,6.116-1.764,12.063,12.063,0,0,0,5.408-7.7,12.421,12.421,0,0,0-.049-5.543,11.867,11.867,0,0,0,3.942-3.336,12.244,12.244,0,0,0,2.194-4.775,12.356,12.356,0,0,0,.224-3.912c.009.009.029.009.038.019a17.8,17.8,0,0,1,2.321,1.313,15.6,15.6,0,0,1,2.543,2.033l.1.1c.292.278.554.575.816.873q.248.273.495.6a10.215,10.215,0,0,1,.7.987c.146.2.272.422.4.633s.243.432.359.652c.078.144.156.288.224.441.058.106.106.221.155.326s.1.221.146.336c.1.22.184.45.271.681a3.888,3.888,0,0,1,.166.469.649.649,0,0,1,.058.192,1.975,1.975,0,0,1,.107.326c.009.019.019.029.019.048.078.249.146.5.214.748a.077.077,0,0,0,.009.048c.1.383.175.8.272,1.342a20.028,20.028,0,0,1,.272,3.423,1.445,1.445,0,0,0,1.447,1.448h.009a1.451,1.451,0,0,0,1.457-1.429,22.118,22.118,0,0,0-.253-3.49c.524.048,1.039.067,1.544.067,2.941-.009,5.543-.709,7.068-1.956a3.814,3.814,0,0,0,1.475-2.608C-42.519,207.434-46.529,204.73-52.111,204.212Zm-77.707-6.223a1.091,1.091,0,0,1,.961-.4,1.155,1.155,0,0,1,.185.01,2.867,2.867,0,0,1,.961.268,1.444,1.444,0,0,0,1.592-.2,1.43,1.43,0,0,0,.437-1.534,1.427,1.427,0,0,1-.068-.221,3.461,3.461,0,0,1-.107-.939c.029-.9.408-1.477.757-1.573.389-.1.932.3,1.3.93a3.146,3.146,0,0,1,.369.911,4.4,4.4,0,0,1,.088.489,1.443,1.443,0,0,0,1.155,1.266,1.466,1.466,0,0,0,1.573-.719,3.1,3.1,0,0,1,.844-1.007,1.238,1.238,0,0,1,1.263-.307,1.226,1.226,0,0,1,.407,1.055,3,3,0,0,1-.077.633,5.66,5.66,0,0,0,.058,2.608l.048.211a6.068,6.068,0,0,1,.107,1.783,5.5,5.5,0,0,1-3.971,4.861,5.206,5.206,0,0,1-5.844-2.54,5.783,5.783,0,0,1-.583-1.372l-.009-.019-.088-.412a5.817,5.817,0,0,0-1.029-2.273A1.519,1.519,0,0,1-129.818,197.989Zm-9.514,33.512c-1.359-5.514.068-10.078,2.272-11.123-.078.786-.136,1.582-.166,2.378-.019.3-.029.594-.038.9-.039.691-.049,1.391-.049,2.09q0,.908.029,1.813a47.479,47.479,0,0,0,1.3,9.991c.068.278.136.556.214.824A14.842,14.842,0,0,1-139.332,231.5Zm17.242,20.26a.418.418,0,0,1-.087-.1,1.768,1.768,0,0,0,.145.134A.192.192,0,0,1-122.09,251.761Zm24.747-14.766a16.909,16.909,0,0,0-6.029-5.494,1.471,1.471,0,0,0-1.98.565,1.429,1.429,0,0,0,.582,1.956,14,14,0,0,1,6.058,6.444v.009l-.145.23a5.775,5.775,0,0,1-.4.6c-.135.192-.281.383-.436.575a11.747,11.747,0,0,1-1.36,1.429c-.136.124-.271.24-.417.355a3.221,3.221,0,0,1-.291.239c-.029-1.486-.059-3.384-.107-4.314a1.457,1.457,0,0,0-1.534-1.362,1.444,1.444,0,0,0-1.379,1.505q.015.316.029.777a1.474,1.474,0,0,0-1.475-.058,1.432,1.432,0,0,0-.583,1.957l.563,1.025-1.126-.383a1.472,1.472,0,0,0-1.854.892,1.437,1.437,0,0,0,.9,1.831l2.106.719a37.862,37.862,0,0,1-5.31,1.793,33.967,33.967,0,0,1-6.456,1.122l1.3-1.429a1.436,1.436,0,0,0-.107-2.032,1.478,1.478,0,0,0-2.058.105l-.767.834.019-1.074a1.445,1.445,0,0,0-1.437-1.457,1.508,1.508,0,0,0-1.291.738c-.116-.239-.223-.45-.3-.623a1.469,1.469,0,0,0-1.932-.71,1.432,1.432,0,0,0-.709,1.909c.33.719,1,2.061,1.612,3.25a11.973,11.973,0,0,1-2.233-.892c-.01-.115-.019-.23-.019-.345-.02-.211-.02-.412-.03-.623v-.192c0-.249.01-.5.02-.738.01-.269.039-.528.068-.786.019-.231.048-.451.087-.681.039-.259.088-.528.136-.786.058-.24.117-.48.175-.71.048-.182.1-.364.165-.547q.073-.273.175-.546a13.12,13.12,0,0,1,.543-1.323c.1-.211.2-.422.311-.633.146-.269.291-.537.456-.8.117-.192.233-.383.369-.566a7.534,7.534,0,0,1,.515-.719c.087-.115.175-.23.272-.345s.184-.23.281-.336c.136-.163.282-.316.427-.469.195-.211.389-.4.593-.6s.436-.4.66-.585.466-.383.709-.556a7.272,7.272,0,0,1,.66-.451,3.261,3.261,0,0,1,.33-.211,9.618,9.618,0,0,1,.874-.5,12.808,12.808,0,0,1,1.281-.595c.282-.115.573-.22.864-.316s.592-.192.893-.268a10.206,10.206,0,0,1,2.884-.413l.2-.009a1.446,1.446,0,0,0,1.4-1.5,1.419,1.419,0,0,0-1.525-1.371l-.2.009a12.252,12.252,0,0,0-3.321.461,1.514,1.514,0,0,0-.184.038q-.539.144-1.049.316c-.359.115-.708.24-1.058.384-.272.115-.544.23-.806.355s-.524.249-.776.383-.476.259-.709.393a.366.366,0,0,0-.078.048c-.233.134-.456.278-.67.422a15.539,15.539,0,0,0-1.3.94c-.242.192-.475.393-.708.6a9.526,9.526,0,0,0-.729.681c-.2.2-.407.412-.6.632a15.053,15.053,0,0,0-1.078,1.314c-.165.211-.321.432-.466.652s-.3.451-.447.69c-.058.106-.126.211-.184.317-.1.163-.194.335-.291.508-.214.393-.408.8-.593,1.208a17.589,17.589,0,0,0-.65,1.726c-.1.288-.185.585-.262.892-.126.46-.224.92-.311,1.39-.039.221-.068.441-.1.662-.029.182-.049.374-.068.556-.029.23-.049.46-.058.69a15.694,15.694,0,0,1-2.922-4.6l-.1-.24a27.334,27.334,0,0,1-1.33-4.075,45.772,45.772,0,0,1-1.213-9.4,54.586,54.586,0,0,1,.4-8.552,37.157,37.157,0,0,1,3.912-13.2c.03-.057.068-.115.1-.172a1.827,1.827,0,0,0,.156.211.141.141,0,0,0,.048.057c.1.134.2.269.311.393s.194.23.3.336a4.294,4.294,0,0,0,.476.46,4.057,4.057,0,0,0,.446.384,4.144,4.144,0,0,0,.35.259c.155.115.31.211.466.306s.291.173.437.25a5,5,0,0,0,.456.22c.126.058.262.115.408.173.272.105.543.192.825.278.311.077.621.144.942.192.106.019.2.028.32.038a7.9,7.9,0,0,0,.835.048,7.876,7.876,0,0,0,2-.259,7.925,7.925,0,0,0,1.194-.412c.146-.067.291-.144.437-.221.078-.038.155-.076.223-.115.156-.086.311-.182.457-.278.174-.115.349-.23.514-.364a2.566,2.566,0,0,0,.35-.288,2.439,2.439,0,0,0,.242-.211,2.99,2.99,0,0,0,.311-.3c.146-.144.282-.3.418-.46s.281-.355.417-.537a8.67,8.67,0,0,0,.689-1.151c.058-.105.107-.23.156-.345a.078.078,0,0,0,.019-.048,4.562,4.562,0,0,0,.2-.508c.048-.125.087-.249.126-.374a6.915,6.915,0,0,0,.243-.988,2.008,2.008,0,0,0,.039-.23,2.382,2.382,0,0,0,.039-.249l.029-.173c.223.144.456.288.689.441a36.985,36.985,0,0,1,9.029,9.349,54.391,54.391,0,0,1,4.116,6.913,45.511,45.511,0,0,1,3.456,9.176,28.913,28.913,0,0,1,.738,4.325v.019l.02.211A16.488,16.488,0,0,1-97.343,236.995Zm2.612-9.148q-.1-.5-.233-1.006a47.488,47.488,0,0,0-3.67-9.771c-.272-.556-.563-1.1-.855-1.649-.145-.269-.291-.528-.446-.8-.185-.355-.388-.7-.592-1.036-.088-.153-.185-.316-.282-.469-.281-.47-.563-.931-.854-1.391-.058-.1-.117-.182-.175-.268l-.2-.317a3.311,3.311,0,0,1,2.311.528,9.212,9.212,0,0,1,3.009,3.126,17.029,17.029,0,0,1,1.981,4.736c.019.058.029.125.048.192a16.907,16.907,0,0,1,.35,1.755A13.882,13.882,0,0,1-94.731,227.847Zm3.068,11.641a8.361,8.361,0,0,1,1.2-2.867,7.96,7.96,0,0,1,8.5-3.481A8.048,8.048,0,0,1-78,235.413a1.476,1.476,0,0,0,1.563.354,7.747,7.747,0,0,1,4.5-.278,8.348,8.348,0,0,1,6.262,7.077,9.432,9.432,0,0,1,.077,1.169,8.721,8.721,0,0,1-.2,1.86,8.35,8.35,0,0,1-3.747,5.351,7.852,7.852,0,0,1-5.961.987,7.963,7.963,0,0,1-3.952-2.262,1.492,1.492,0,0,0-1.058-.451,1.508,1.508,0,0,0-.5.1,7.931,7.931,0,0,1-4.5.278A8.442,8.442,0,0,1-91.663,239.488ZM-77.8,187.9c.01,0,.107-.019.146.048.184.259.67,1.342-.476,4.411a3.365,3.365,0,0,0-.107.326,13.217,13.217,0,0,0-.32,5.561,17.357,17.357,0,0,0-3.3.949c.02.087.029.173.039.25l-.194-.192c.058-.019.107-.039.155-.058C-82.295,196.091-82.712,189.034-77.8,187.9Zm-18,10.566a1.042,1.042,0,0,1,.553-.479,5.163,5.163,0,0,1,2.029-.335,13.425,13.425,0,0,1,4.719.978,14.743,14.743,0,0,1,3.708,2.042c-.291.182-.573.374-.854.575-.088.058-.165.115-.243.173a.907.907,0,0,0-.116.1c-.233.163-.466.345-.69.537-.087.076-.174.143-.262.22-.165.134-.32.278-.466.422a4.806,4.806,0,0,0-.4.374c-.2.2-.408.4-.6.614-.058.067-.116.124-.175.191a14.707,14.707,0,0,1-1.533-.508C-94.188,201.815-96.11,199.312-95.8,198.468Zm27.514,7.7a9.143,9.143,0,0,1-5.573,6.606,1.429,1.429,0,0,0-.835,1.813,9.517,9.517,0,0,1,.311,5.235,9.127,9.127,0,0,1-4.107,5.878,8.6,8.6,0,0,1-6.544,1.093A9.025,9.025,0,0,1-91.5,220.8a10.133,10.133,0,0,1-.33-1.247c.009-.086.019-.163.029-.249.136-1.179.33-2.33.572-3.442a28.355,28.355,0,0,1,1.165-3.931,19.7,19.7,0,0,1,3.127-5.542c.184-.221.369-.432.563-.643.029-.038.068-.077.1-.115.145-.163.3-.316.456-.47l.029-.029a6.954,6.954,0,0,1,.554-.517,1.022,1.022,0,0,1,.116-.106c.194-.172.388-.335.583-.479.2-.163.407-.317.611-.47l.088-.058c.213-.153.427-.287.65-.421a5.858,5.858,0,0,1,.621-.365c.272-.153.534-.3.816-.431h.01a18.265,18.265,0,0,1,12.106-.93c.437.105.855.211,1.262.326a9.842,9.842,0,0,1,.311,2.435A9.813,9.813,0,0,1-68.285,206.168Zm9.873-2.109a17.952,17.952,0,0,0-2.7-2.167,13.814,13.814,0,0,0,1.806-4.833,2.141,2.141,0,0,0,.039-.336c.2-2.588.854-3.854,1.388-4.171a.182.182,0,0,1,.136.058C-53.742,195.841-56.839,201.642-58.412,204.059Zm12.272,6.826a8.688,8.688,0,0,1-5.165,1.285c-.476,0-.971-.019-1.495-.067-.243-.019-.476-.048-.719-.077h-.009c-.136-.441-.282-.872-.447-1.294-.184-.479-.379-.949-.6-1.4-.107-.23-.223-.46-.349-.681s-.243-.441-.369-.661c-.136-.24-.282-.48-.437-.71l-.088-.144a15.174,15.174,0,0,1,3.437-.057c4.466.412,6.767,2.311,6.689,3.164A1.063,1.063,0,0,1-46.14,210.885Z" fill="#db003c"/>
      <g id="Group_38620" data-name="Group 38620">
        <path id="Path_40184" data-name="Path 40184" d="M-122.032,251.8a.192.192,0,0,1-.058-.038.418.418,0,0,1-.087-.1A1.768,1.768,0,0,0-122.032,251.8Z" fill="#db003c"/>
      </g>
    </g>
    <g id="Group_38623" data-name="Group 38623" transform="translate(9859.53 -6442.383)">
      <g id="Group_38622" data-name="Group 38622">
        <path id="Path_40185" data-name="Path 40185" d="M-53.975,210.732c.165.422.311.853.447,1.294h.009C-53.655,211.585-53.81,211.154-53.975,210.732Z" fill="#db003c"/>
        <path id="Path_40186" data-name="Path 40186" d="M-81.819,199.447l-.194-.192c.058-.019.107-.039.155-.058C-81.838,199.284-81.829,199.37-81.819,199.447Z" fill="#db003c"/>
        <path id="Path_40187" data-name="Path 40187" d="M-56.305,212.9c.078.24.146.489.2.738l.01.01C-56.159,213.4-56.227,213.148-56.305,212.9Z" fill="#db003c"/>
        <path id="Path_40188" data-name="Path 40188" d="M-80.607,223.178a1.408,1.408,0,0,1-1.686,1.093,1.453,1.453,0,0,1-1.062-1.736,1.408,1.408,0,0,1,1.686-1.094A1.453,1.453,0,0,1-80.607,223.178Z" fill="#db003c"/>
        <path id="Path_40189" data-name="Path 40189" d="M-67.285,226.295a1.408,1.408,0,0,1-1.684,1.094,1.453,1.453,0,0,1-1.063-1.736,1.408,1.408,0,0,1,1.686-1.1A1.452,1.452,0,0,1-67.285,226.295Z" fill="#db003c"/>
        <path id="Path_40190" data-name="Path 40190" d="M-86.149,246.958a3.251,3.251,0,0,1-.744-.087,3.31,3.31,0,0,1-2.449-3.934,3.27,3.27,0,0,1,1.478-2.094,3.215,3.215,0,0,1,2.446-.4,3.311,3.311,0,0,1,2.449,3.935h0a3.271,3.271,0,0,1-1.477,2.093A3.211,3.211,0,0,1-86.149,246.958Zm-.009-3.727a.3.3,0,0,0-.156.046.421.421,0,0,0-.182.272.437.437,0,0,0,.275.523.28.28,0,0,0,.224-.038.415.415,0,0,0,.182-.272.435.435,0,0,0-.275-.523A.264.264,0,0,0-86.158,243.231Zm1.766.838h0Z" fill="#db003c"/>
        <path id="Path_40191" data-name="Path 40191" d="M-73.066,250.019a3.279,3.279,0,0,1-.741-.085A3.313,3.313,0,0,1-76.258,246a3.27,3.27,0,0,1,1.475-2.092,3.223,3.223,0,0,1,2.447-.406,3.313,3.313,0,0,1,2.451,3.935h0a3.274,3.274,0,0,1-1.476,2.093A3.218,3.218,0,0,1-73.066,250.019Zm-.007-3.727a.287.287,0,0,0-.157.047.415.415,0,0,0-.182.271.438.438,0,0,0,.276.525.288.288,0,0,0,.223-.04.415.415,0,0,0,.182-.272.436.436,0,0,0-.275-.523A.261.261,0,0,0-73.073,246.292Zm1.765.838h0Z" fill="#db003c"/>
        <path id="Path_40192" data-name="Path 40192" d="M-94.693,219.726c-.019-.067-.029-.134-.048-.192a.813.813,0,0,0,.01.307,13.05,13.05,0,0,0,.388,1.64A16.907,16.907,0,0,0-94.693,219.726ZM-81.858,199.2c-.048.019-.1.039-.155.058l.194.192C-81.829,199.37-81.838,199.284-81.858,199.2Z" fill="#db003c"/>
      </g>
      <ellipse id="Ellipse_149" data-name="Ellipse 149" cx="1.291" cy="1.33" rx="1.291" ry="1.33" transform="translate(-55.975 221.857)" fill="#db003c"/>
    </g>
  </g>
</svg>
