<svg xmlns="http://www.w3.org/2000/svg" width="100" height="90" viewBox="0 0 100 90">
  <g id="Group_38639" data-name="Group 38639" transform="translate(-9877.245 6119.885)">
    <g id="Group_38631" data-name="Group 38631" transform="translate(9859.53 -6442.383)">
      <g id="Group_38630" data-name="Group 38630">
        <path id="Path_40208" data-name="Path 40208" d="M71.393,391.686h-.01l.049,4.583Zm0,0h-.01l.049,4.583Zm0,0h-.01l.049,4.583Zm0,0h-.01l.049,4.583Z" fill="#db003c"/>
        <path id="Path_40209" data-name="Path 40209" d="M113.031,380.147l-24.672,5.842,24.682-5.832Z" fill="#db003c"/>
        <path id="Path_40210" data-name="Path 40210" d="M117.122,379.8l-.019-.019-.02-.02-.359-.3L106.1,370.448a1.466,1.466,0,0,0-2.06.165,1.444,1.444,0,0,0,.175,2.045l8.813,7.489.01.01-24.682,5.832-14.964,3.537h-.01L55.272,367.678l29.268-5.61,5.87-1.124,5.179,4.4a1.456,1.456,0,0,0,1.885-2.219l-5.7-4.845a1.507,1.507,0,0,0-1.224-.319l-1.643.319,6.851-6.472a17.053,17.053,0,0,0,3.4-19.871c3.139-1.26,3.187-2.519,3.207-2.965.078-1.8-1.8-2.693-2.517-2.965-.738-.484-1.5-1.027-1.875-1.337a3.855,3.855,0,0,0-1.186-1.773,1.473,1.473,0,0,0-2.109.1L92.8,325.144a15.112,15.112,0,0,0-7.609-2.054,15.37,15.37,0,0,0-10.543,4.244L61.705,339.551a1.442,1.442,0,0,0-.058,2.054,1.46,1.46,0,0,0,2.06.058L76.65,329.446A12.463,12.463,0,0,1,85.191,326a12.21,12.21,0,0,1,6.21,1.695c.282.165.563.339.835.533.253.175.5.359.739.552a14.513,14.513,0,0,1,1.749,1.706,14.093,14.093,0,0,1-.972,19.212l-10.174,9.6-30.764,5.9a.02.02,0,0,0-.03,0l-.466.087a1.3,1.3,0,0,0-.641.32c-.049.049-.107.1-.156.155a1.313,1.313,0,0,0-.311.552.755.755,0,0,0-.048.2,1.665,1.665,0,0,0-.02.223v.106l.029.349,1.293,16.849a1.4,1.4,0,0,0,.262.726l1.535,2.171-8.91,8.419a12.267,12.267,0,0,1-13.517,2.393c.156-.174.311-.368.467-.571a1.5,1.5,0,0,0,.272-.591,3.127,3.127,0,0,0-.9-2.926c-.641-.553-4.062-3.169-4.451-3.459a1.421,1.421,0,0,0-.631-.281,3.022,3.022,0,0,0-1.5.135,13.469,13.469,0,0,1,3.158-14.949l28-26.412a1.455,1.455,0,1,0-2-2.112L26.247,373A16.384,16.384,0,0,0,23.03,392.51l.117-.029a1.084,1.084,0,0,0-.039.164.382.382,0,0,1-.078-.135c-2.779.678-4.8,3.429-5.053,3.807a1.458,1.458,0,0,0,0,1.667l1.225,1.744a1.328,1.328,0,0,0,1.078.62,7.639,7.639,0,0,1,2.3,2.519,1.492,1.492,0,0,0,1.176.688l2.089.087h.068a1.444,1.444,0,0,0,.661-.165,7.349,7.349,0,0,0,3.012-3.585,15.06,15.06,0,0,0,7.22,1.841,15.341,15.341,0,0,0,10.544-4.263l8.609-8.129,15.625,22.042c0,.01,0,.01.01.02l.214.31c.01.009.01.019.019.029l.01.009.087.126a1.437,1.437,0,0,0,1.2.62,1.548,1.548,0,0,0,.369-.048l.321-.087a.036.036,0,0,0,.029-.01L92.781,407.3c.009.01.009,0,.019,0h.019l5.627-1.5a2.35,2.35,0,0,0,.233-.068l17.19-4.564a1.457,1.457,0,0,0,1.088-1.346l.739-18.438.019-.407v-.019a1.522,1.522,0,0,0-.369-.93M97.581,329.407c-.194-.281-.418-.552-.641-.814a15.907,15.907,0,0,0-1.759-1.753l.388-.446a14.256,14.256,0,0,0,2.838,2.141,1.4,1.4,0,0,0,.321.155c.077.029.165.068.252.107A13.259,13.259,0,0,1,97.581,329.407ZM25.528,400.716l-.9-.039a8.375,8.375,0,0,0-3.353-3.061L21,397.228c.807-.872,2.109-1.976,3.314-1.967a12.36,12.36,0,0,1,3.148,2.083A7.912,7.912,0,0,1,25.528,400.716ZM57.42,386.357l-2.08-2.935L54.4,371.185l16.985,20.491v.01h.01l.039,4.583.1,9.989Zm17.053,22.827-.087-8.739-.058-6.356L89.214,405.26Zm22.8-6.065-4.48,1.191-16.6-12.459,36.479-8.623Zm16.811-4.476-12.166,3.236,12.7-16.394Z" fill="#db003c"/>
      </g>
    </g>
    <ellipse id="Ellipse_155" data-name="Ellipse 155" cx="1.295" cy="1.361" rx="1.295" ry="1.361" transform="translate(9917.208 -6099.788)" fill="#db003c"/>
    <path id="Path_40211" data-name="Path 40211" d="M103.06,368.293a1.34,1.34,0,0,1-1.6,1.06,1.4,1.4,0,0,1-1-1.68,1.325,1.325,0,0,1,1.59-1.06A1.408,1.408,0,0,1,103.06,368.293Z" transform="translate(9859.53 -6442.383)" fill="#db003c"/>
  </g>
</svg>
