<svg xmlns="http://www.w3.org/2000/svg" width="100" height="94.999" viewBox="0 0 100 94.999">
  <g id="Group_38640" data-name="Group 38640" transform="translate(-9561.186 5966.001)">
    <path id="Path_40212" data-name="Path 40212" d="M-282.3,506.954a1.476,1.476,0,0,1-1.19-.6,1.443,1.443,0,0,1,.321-2.031c1.222-.887,4.36-3.8,4.183-6.578-.108-1.7-1.464-3.277-4.031-4.688-3.479-1.914-5.341-4.289-5.533-7.061-.349-5.016,5.131-9.151,5.364-9.325a1.482,1.482,0,0,1,2.06.288,1.444,1.444,0,0,1-.289,2.035h0c-1.238.925-4.4,3.954-4.2,6.81.123,1.724,1.478,3.309,4.029,4.712,3.5,1.926,5.366,4.3,5.537,7.057.306,4.935-5.153,8.932-5.385,9.1A1.474,1.474,0,0,1-282.3,506.954Z" transform="translate(9859.53 -6442.383)" fill="#db003c"/>
    <path id="Path_40213" data-name="Path 40213" d="M-263.97,511.916a1.474,1.474,0,0,1-1.19-.6,1.443,1.443,0,0,1,.322-2.031c1.222-.887,4.359-3.8,4.182-6.578-.108-1.7-1.464-3.276-4.031-4.688-3.479-1.914-5.341-4.289-5.533-7.061-.349-5.016,5.131-9.151,5.364-9.325a1.481,1.481,0,0,1,2.06.289,1.443,1.443,0,0,1-.289,2.034c-1.237.927-4.4,3.955-4.2,6.81.123,1.724,1.478,3.309,4.029,4.712,3.5,1.927,5.366,4.3,5.537,7.057.306,4.935-5.153,8.932-5.385,9.1A1.481,1.481,0,0,1-263.97,511.916Z" transform="translate(9859.53 -6442.383)" fill="#db003c"/>
    <path id="Path_40214" data-name="Path 40214" d="M-247.465,506.954a1.473,1.473,0,0,1-1.19-.6,1.443,1.443,0,0,1,.321-2.031c1.222-.887,4.36-3.8,4.183-6.578-.108-1.7-1.464-3.277-4.031-4.688-3.479-1.914-5.341-4.289-5.533-7.061-.349-5.016,5.131-9.151,5.364-9.325a1.482,1.482,0,0,1,2.06.288A1.444,1.444,0,0,1-246.58,479h0c-1.238.925-4.4,3.954-4.2,6.81.123,1.724,1.478,3.309,4.029,4.712,3.5,1.926,5.366,4.3,5.537,7.057.306,4.935-5.153,8.932-5.385,9.1A1.474,1.474,0,0,1-247.465,506.954Z" transform="translate(9859.53 -6442.383)" fill="#db003c"/>
    <path id="Path_40215" data-name="Path 40215" d="M-199.669,524.581a9.757,9.757,0,0,0-2.432-2.569,16.193,16.193,0,0,0-.785-3.392,1.338,1.338,0,0,0-.108-.252,8.824,8.824,0,0,0-11.788-3.16c-.029.019-.068.038-.1.058a10.387,10.387,0,0,0-2.922,2.83,9.338,9.338,0,0,0-.686-1.308,10.081,10.081,0,0,0-2.433-2.579,16.874,16.874,0,0,0-.784-3.383,2.728,2.728,0,0,0-.108-.252,8.825,8.825,0,0,0-11.788-3.16c-.029.019-.068.039-.1.058a9.275,9.275,0,0,0-4.373,6.65l-7.738,4.3a47.306,47.306,0,0,0-13.425-1.91c-15.691,0-29.813,7.677-35.981,19.571a1.44,1.44,0,0,0,.637,1.958,1.381,1.381,0,0,0,.667.165,1.479,1.479,0,0,0,1.314-.8c5.669-10.934,18.761-17.991,33.363-17.991,10.022,0,19.319,3.209,26,8.9-6.158-.785-13.562.94-19.976,4.721-6.217,3.683-10.709,8-12.984,12.475a1.445,1.445,0,0,0,.657,1.949,1.461,1.461,0,0,0,1.971-.65c2.02-3.974,6.129-7.881,11.866-11.273,6.59-3.9,14.563-5.439,20.32-3.926a1.474,1.474,0,0,0,1.108-.146l13.17-7.415a1.464,1.464,0,0,0,.746-1.27,6.135,6.135,0,0,1,3.059-5.06,5.824,5.824,0,0,1,7.669,1.948,11.383,11.383,0,0,1,.638,3.112,1.453,1.453,0,0,0,.657,1.212,7.367,7.367,0,0,1,2.226,2.2,4.843,4.843,0,0,1,.667,3.926,5.725,5.725,0,0,1-2.736,3.606,6.528,6.528,0,0,1-5.845,0,1.515,1.515,0,0,0-1.383.039l-11.543,6.514c-.009,0-.009,0-.019.009l-.863.485-.745.417a1.436,1.436,0,0,0-.687.843,25.012,25.012,0,0,1-7.482,10.847,1.442,1.442,0,0,0-.1,2.055,1.443,1.443,0,0,0,1.088.475,1.481,1.481,0,0,0,.991-.368,30.02,30.02,0,0,0,7.4-9.761,21.012,21.012,0,0,1,.294,3.479c0,13.63-11.15,19.707-36.167,19.707S-295.4,562.4-295.4,548.766a1.474,1.474,0,0,0-1.471-1.454,1.467,1.467,0,0,0-1.471,1.454c0,20.27,22.32,22.615,39.109,22.615s39.109-2.345,39.109-22.615a24.425,24.425,0,0,0-.834-6.261l10.366-5.836a9.546,9.546,0,0,0,7.786-.359,8.663,8.663,0,0,0,4.227-5.5A7.711,7.711,0,0,0-199.669,524.581Zm-20.6-2.094-9.268,5.235a37.915,37.915,0,0,0-12.562-8.017l6.178-3.441a1.463,1.463,0,0,0,.746-1.27,6.137,6.137,0,0,1,3.059-5.06,5.826,5.826,0,0,1,7.669,1.949,11.377,11.377,0,0,1,.638,3.111,1.452,1.452,0,0,0,.657,1.212,7.27,7.27,0,0,1,2.186,2.142A4.608,4.608,0,0,1-220.273,522.487Z" transform="translate(9859.53 -6442.383)" fill="#db003c"/>
    <path id="Path_40216" data-name="Path 40216" d="M-222.97,540.294l-.863.485a1.388,1.388,0,0,1,.647-.436A1.677,1.677,0,0,1-222.97,540.294Z" transform="translate(9859.53 -6442.383)" fill="#db003c"/>
    <ellipse id="Ellipse_156" data-name="Ellipse 156" cx="1.988" cy="1.96" rx="1.988" ry="1.96" transform="translate(9561.646 -5901.725)" fill="#db003c"/>
  </g>
</svg>
