<svg xmlns="http://www.w3.org/2000/svg" width="52.393" height="47.625" viewBox="0 0 52.393 47.625">
  <path id="Path_40143" data-name="Path 40143" d="M298.862,178.092a6.769,6.769,0,0,1-1.981,5.223,6.994,6.994,0,0,1-4.779,1.6,7.9,7.9,0,0,1-1.558,5.864.128.128,0,0,1-.1.051c0,.011-.2.147-.39,1.026-.221,1.007.8,3.217.927,3.493l1.988,1.6c1.1,1.03,1.6,1.924,1.5,2.663a1.246,1.246,0,0,1-.486.836,4.826,4.826,0,0,1-.769,3.969,2.071,2.071,0,0,0-.471,1.851.158.158,0,0,1-.008.1l-.524,1.136a.143.143,0,0,1-.124.082l-1.367.043a6.41,6.41,0,0,1-1.952.342,1.852,1.852,0,0,1-.653.152,1.43,1.43,0,0,1-.98-.348,2,2,0,0,1-.5-.631c-.255-.2-.354-.406-.3-.612.209-.737,2.661-1.035,3.344-1.105,1.456-3.486.4-4.817.392-4.83l-.018-.025a6.33,6.33,0,0,0-1.97-1.66,3.424,3.424,0,0,1,.606,2.008c-.09.412-.471.578-.775.71-.34.148-.4.2-.36.314.331.894-1.432,2.537-1.633,2.722l-1.369,1.166a.141.141,0,0,1-.086.034l-.5.015-.5.534a.113.113,0,0,1-.035.029l-1.1.595a.162.162,0,0,1-.062.016l-1.4.044a.2.2,0,0,1-.034,0,9.789,9.789,0,0,0-1.653-.225c-.627.019-1.238-.827-1.265-.862a.149.149,0,0,1-.024-.078c-.021-.646,1.467-.973,1.765-1.032l1.949-.064c1.548-.8,2.391-1.685,2.5-2.644a2.637,2.637,0,0,0-.9-2.063c-4.263-2.814-4.823-5.389-4.9-6.056l-4.541.649-1.641.326-1.085.586a.158.158,0,0,1-.061.016l-1.958.061a.1.1,0,0,1-.051-.009,56.514,56.514,0,0,0-1.571,6.391.186.186,0,0,1-.024.054l-.777,1.108.034,1.071a.151.151,0,0,1-.025.085l-.8,1.145-.485.782.556,1.03a.138.138,0,0,1-.051.183l-1.922,1.181a8.383,8.383,0,0,1-2.853.112,2.989,2.989,0,0,1-.894.151,5.182,5.182,0,0,1-1.111-.094.15.15,0,0,1-.11-.117,1.664,1.664,0,0,1,2.045-2.181c.5-.046,1.126-1.751,1.426-2.981a2.269,2.269,0,0,1,.237-1.741l.452-3.346c.14-.7.261-1.419.34-2.088a.072.072,0,0,1-.019,0l-3.615-.715-.421.226c.246,2.307-3.012,7.435-3.153,7.655a.147.147,0,0,1-.052.05l-1.024.552.024.753a.132.132,0,0,1-.039.1l-2.98,3.173a.134.134,0,0,1-.1.046.137.137,0,0,1-.028,0l-1.37-.229a8.436,8.436,0,0,1-3.958.116.142.142,0,0,1-.109-.165,2.308,2.308,0,0,1,1.016-1.611,3.4,3.4,0,0,1,2.379-.3l2.359-2.51a40.006,40.006,0,0,0,1.629-10c-1.142-1.148-.98-4.11-.973-4.239a.189.189,0,0,1,.02-.065l.491-.788-.556-1.03a.153.153,0,0,1-.016-.061l-.043-1.37-.591-1.356a.115.115,0,0,1-.013-.053l-.088-2.8a.131.131,0,0,1,.039-.1l.85-.909-.5.016a.139.139,0,0,1-.111-.05.134.134,0,0,1-.029-.12l.232-1.076-.571-1.058a.14.14,0,0,1,0-.123l.593-1.289a2.429,2.429,0,0,0-.618-.779,14.221,14.221,0,0,1-2.334-2.192l-1.16-1.36a.145.145,0,0,1-.022-.148l.223-.48c-3.945-4.037-1.791-9-1.432-9.754l-.21-.2a.138.138,0,0,1-.046-.11.156.156,0,0,1,.059-.106l.821-.586a.146.146,0,0,1,.106-.023,9.107,9.107,0,0,1,6.833,6.035c.136-.055.363-.143.662-.245.016-.006.036-.015.055-.021a.053.053,0,0,1,.017,0h0c1.652-.544,5.293-1.392,8.109.543a6.028,6.028,0,0,1,2.689-2.257,8.725,8.725,0,0,1,6.162-2.444.15.15,0,0,1,.114.066.148.148,0,0,1,.007.131l-.231.5c.213.358,1.022,2.049-.139,5.38a6.881,6.881,0,0,1-1.8,2.817l.176.166a.137.137,0,0,1,.046.11.16.16,0,0,1-.059.106c-.03.017-.594.422-1.1.726l.537.162a.139.139,0,0,1,.1.109.145.145,0,0,1-.057.139,7.669,7.669,0,0,1-2.462,1.214,15.749,15.749,0,0,1-2.088,3.935c.638.534,8.189,1.059,14.879.849,5.891-.186,11.188,3,11.633,3.279a3.653,3.653,0,0,0,3.555-1.343c.956-1.411.827-3.814-.326-6.124a4.486,4.486,0,0,1-.55-3.514,2.07,2.07,0,0,1,1.038-1.172.144.144,0,0,1,.158.037.139.139,0,0,1,.019.162,1.646,1.646,0,0,0,.045,2.068C298.434,174.385,298.846,177.942,298.862,178.092Z" transform="translate(-246.469 -161.36)" fill="#e60b4c"/>
</svg>
