<svg xmlns="http://www.w3.org/2000/svg" width="93.766" height="76.026" viewBox="0 0 93.766 76.026">
  <path id="Path_40146" data-name="Path 40146" d="M495.392,205.821a3.365,3.365,0,0,1-4.066-.876,13.482,13.482,0,0,1-.749,4.107c-.681,1.025-3.833,1.972-5.935,2.027-.075,0-.151,0-.222,0a2.881,2.881,0,0,1-2.407-.824,2.142,2.142,0,0,1-.036-2.558,2.823,2.823,0,0,1,2.55-1.279c.657-.954,3.2-5.159-.115-8.806a12.067,12.067,0,0,0-2.1-1.726l-1.576,10.231a.387.387,0,0,1-.213.293,16.228,16.228,0,0,1-4.883,1.228,9.69,9.69,0,0,1-1.231.083c-2.3,0-2.712-1.01-2.756-1.14a.467.467,0,0,1-.02-.127c0-1.956,1.465-2.5,2.756-2.978,1.073-.4,2.091-.776,2.408-1.88,0,0,.7-4.043-1.382-5.085-1.624-.815-8.545-6.272-9.393-8.715a36.291,36.291,0,0,1-10.584,1.631l-1.916.384-1.026.341-1.113,1.853-.8,1.2a.363.363,0,0,1-.151.135l-1.584.791a.161.161,0,0,1-.039.016c.158,1.549.245,2.61.257,2.768a.406.406,0,0,1-.024.17l-3.563,9.5a.552.552,0,0,1-.044.079l-3.168,4.751a.394.394,0,0,1-.328.179h-7.92a.4.4,0,0,1-.376-.27l-.4-1.188a.429.429,0,0,1-.016-.071,1.856,1.856,0,0,1,.535-1.782c.823-.708,2.289-.522,3.057-.356.031-.471.055-.935.079-1.382a8.229,8.229,0,0,0-2.008.776c-.249.246-1.156.372-2.712.372q-.921,0-2.142-.059a.544.544,0,0,1-.388-.2c-.246-.281-.3-.8-.182-1.635a3.173,3.173,0,0,1,3.159-2.717c.02,0,.25-.016.539-.368.728-.875,1.746-3.678.487-12.639-12.121-6.356-14.057-18.6-14.263-20.238a21.57,21.57,0,0,0-2.182-1.445.636.636,0,0,1-.435-.646c.028-.265.253-.491.673-.673l-.341-.337a.408.408,0,0,1-.114-.281v-.9l-.919-.3a.4.4,0,0,1-.091-.048l-1.188-.792a.391.391,0,0,1-.111-.546l.792-1.188c0-.008,1.869-3.417,1.14-5.6-.483-1.457-3.231-2.511-5.436-3.358a19.722,19.722,0,0,1-2.705-1.18c-2.13-1.279-2.55-5.662-2.57-5.849a.383.383,0,0,1,.012-.13c0-.02.515-1.936,3.22-1.485,1.873.313,5.274.079,6.561-1.01a1.25,1.25,0,0,0,.5-.974c0-.566.891-1.615,6.8-2.34.278-1.144,1.588-5.183,6.269-5.183a.4.4,0,0,1,.4.4v4.047l1.283.32a.4.4,0,0,1,.142.7l-1.176.883,1.58,1.263a.38.38,0,0,1,.131.182l.344,1.034.646.325a.4.4,0,0,1,.2.479l-.29.859.488.245a.366.366,0,0,1,.138.115l1.188,1.584a.393.393,0,0,1,.079.238v1c1.069.931,7.464,6.677,7.535,10.882,3.22.063,23.406.53,29.377,2.375.935.143,7.753,1.2,9.543,2.368.725.02,4.2.222,4.617,2.3.357,1.79,3.354,3.683,3.386,3.7.012.008.023.02.035.028l3.96,3.168a.384.384,0,0,1,.147.356c0,.032-.365,3.061.74,4.9,1.227,2.043.146,6.965.051,7.4l-.384,3.453c.78,2.308,3.148,8.07,5.195,8.363a1.179,1.179,0,0,1,1.034,1.089C499.894,201.366,497.831,204.743,495.392,205.821Z" transform="translate(-405.906 -135.58)" fill="#e60b4c"/>
</svg>
