<svg xmlns="http://www.w3.org/2000/svg" width="155.54" height="97.227" viewBox="0 0 155.54 97.227">
  <path id="Path_40145" data-name="Path 40145" d="M718.823,179.754a4.159,4.159,0,0,1,.579,2.525.6.6,0,0,1-.585.568l-2.119.059-1.493,2.645a.567.567,0,0,1-.358.286.6.6,0,0,1-.453-.053l-.556-.317.042,1.409a.6.6,0,0,1-.436.591l-1.994.561-.567,1.738a.588.588,0,0,1-.567.411h-.042l-6.913-.525-3.558.388a.613.613,0,0,1-.507-.2l-.77-.848-4.669-1.05a.614.614,0,0,1-.22-.1L676.473,175.36a40.92,40.92,0,0,1,5.23,15.868c1.092-.9,2.973-2.083,4.746-1.4,2.43.932,3.612,4.812,3.612,11.862a.594.594,0,0,1-.018.144L688,210.188a.594.594,0,0,1-.579.454H676.676a.6.6,0,0,1-.6-.6c0-.113.018-2.8,1.576-4.119a3.054,3.054,0,0,1,2.12-.705c.185-1.194.352-4.166-2.221-5.456a27.493,27.493,0,0,0-3.988-1.206,59.217,59.217,0,0,1-13.181-4.68l2.561,7.158a.582.582,0,0,1-.042.495l-3.672,6.424a.591.591,0,0,1-.519.3H647.7a.6.6,0,0,1-.6-.6v-1.839a.556.556,0,0,1,.03-.173c.853-2.746,3.97-2.877,5.223-2.812a2.02,2.02,0,0,0-.7-2.393c-12.2-1.033-12.638-14.8-12.638-14.931a.323.323,0,0,1,.012-.107c-2.52.155-5.4.274-8.143.274a43.753,43.753,0,0,1-7.9-.555c.25,7.874.531,16.913.531,17.945,0,1.923-2.525,7.033-2.818,7.612a.588.588,0,0,1-.531.328h-10.1a.594.594,0,0,1-.579-.454,3.765,3.765,0,0,1,.591-3.008,3.382,3.382,0,0,1,1.689-1.129h-8.125a.6.6,0,0,1-.579-.447,3.764,3.764,0,0,1,.591-3.009,4.034,4.034,0,0,1,3.063-1.385v-3.1c.006-.144.531-11.516-2.173-17.331-9.092-8.023-12.226-21.718-12.6-23.473-.86-.932-6.066-6.6-7.737-8.83-1.135-1.51-6.09-1.032-8.943-.376-.233.054-5.689,1.23-8.865-1.307-1.332-1.069-1.988-2.1-1.946-3.069a1.9,1.9,0,0,1,.794-1.474l9.366-7.027c1.188-3.88,4.687-7.617,5.361-8.31a9.711,9.711,0,0,0-.6-6.584,7.1,7.1,0,0,1-.083-6.137v-.024a.7.7,0,0,1,.2-.5.62.62,0,0,1,.853-.143.585.585,0,0,1,.221.711c.788,1.253,5.785,6.292,10.477,10.739l22.966,16.608c24.518,7.277,52.481,20.525,52.761,20.656a.528.528,0,0,1,.15.1c.012.006.071.066.185.179a.548.548,0,0,1,.274.054c10.274,4.937,37.9,17.384,42.285,15.665,5.307-2.072,6.745-3.636,6.757-3.654a.607.607,0,0,1,.424-.2.6.6,0,0,1,.436.162l2.531,2.388a.6.6,0,0,1,.108.728l-.83,1.468A.546.546,0,0,1,718.823,179.754Z" transform="translate(-564.46 -113.785)" fill="#e60b4c"/>
</svg>
