<svg xmlns="http://www.w3.org/2000/svg" width="155" height="113.427" viewBox="0 0 155 113.427">
  <path id="Path_40144" data-name="Path 40144" d="M926,189.18a.211.211,0,0,1-.113.221.2.2,0,0,1-.237-.038l-1.259-1.209-.454,1.459a.22.22,0,0,1-.151.138.2.2,0,0,1-.2-.05l-1.376-1.326-.617.442-1.938,1.167a.178.178,0,0,1-.1.029.218.218,0,0,1-.125-.037l-.851-.613-1.054.55a.2.2,0,0,1-.13.021l-1.3-.208-2.7-.842a.194.194,0,0,1-.117-.088l-1.25-2.042-1.943.387a.19.19,0,0,1-.075,0l-2.5-.416a.1.1,0,0,1-.045-.013l-2.085-.834a.208.208,0,0,1-.112-.112l-.763-1.905-1.063.354a.2.2,0,0,1-.212-.05L897.4,178.33a.2.2,0,0,1-.063-.146v-1.668c0-.325-.291-2.721-.408-3.676l-1.792-2.776c.2,4.973-.084,10.787-.226,13.184a2.275,2.275,0,0,0,.738,1.8c5.815,5.373,5.119,11.258,5.027,11.88l.9,2.984a2.636,2.636,0,0,1-.379,2.284l-1.363,1.9-.408,4.114a.228.228,0,0,1-.084.146,8.874,8.874,0,0,1-5.539,1.88,12.918,12.918,0,0,1-6.374-1.871.215.215,0,0,1-.092-.176c0-2.759,1.2-3.388,2.264-3.939,1.084-.566,2.109-1.1,1.905-3.964-.405-5.668-6.928-10.22-6.995-10.266l-11.971-9.575.092,2.81c1.317,2.647,1.788,4.768,1.4,6.306a2.549,2.549,0,0,1-.95,1.526c.217,7.2-.421,11.217-1.892,11.921a1.06,1.06,0,0,1-1-.037,15.6,15.6,0,0,0-2.1,2.534c-.488.967-4,1.017-4.7,1.017a.181.181,0,0,1-.067-.012,10.94,10.94,0,0,0-3.092-.438c-1.926,0-2.864-2.288-2.9-2.388a.245.245,0,0,1-.012-.075c0-2.677,5.014-2.9,5.936-2.914.333-.775,2.134-5.094,1.734-7.887-.471-3.3-2.3-8.515-3.518-9.328s-5.882-9.921-7.037-12.209c-.562.579-.908.988-.921,1a.189.189,0,0,1-.087.063c-.142.05-14.206,5.014-16.678,5.836a3.331,3.331,0,0,1-1.05.145c-3.018,0-8.433-2.534-8.691-2.655a.2.2,0,0,1-.1-.116q-.839,2.795-2.509,7.64l1.65,6.19a.216.216,0,0,1-.012.146c-.055.112-5.415,11.3-6.232,18.274-.271,2.3-2.276,3.5-5.815,3.5-.329,0-.671-.008-1.029-.029-2.864-.171-7.091-1.209-7.32-1.784h0c-.008-.034-.054-.234-.113-.542a11.408,11.408,0,0,1-2.909.413,7.25,7.25,0,0,1-1.4-.13,2.509,2.509,0,0,1-2.25-2.259,6.882,6.882,0,0,1,.433-3.86c.6-1.492,2.23-1.359,3.426-1.263.5.038,1.063.084,1.205-.054,1.109-1.113.146-6.077-.429-9.045a21.731,21.731,0,0,1-.467-2.9,4.98,4.98,0,0,0-.951-2.413,13.8,13.8,0,0,1-1.542-3.364c-.829-2.9-2.126-11.2-2.138-11.28a.2.2,0,0,1,.175-.237c.012,0,.021,0,.033,0h-.788a.215.215,0,0,1-.175-.092,16.638,16.638,0,0,1-1.7-2.989,8.761,8.761,0,0,0-.855-.721c-1.809-1.426-5.564-4.389-7.469-8.828-2.4-5.6-6.223-23.551-3.406-31.238a12.94,12.94,0,0,1-10.733-4.56c-.517-.8-2.976-4.752-2.53-5.644.458-.917,2.63-2.192,3.872-2.605,1.2-.4,4.885-3.668,5.29-4.873a9.509,9.509,0,0,0,.175-1.325c.308-3.151.95-9.716,6.261-10.071.12-.016,3.23-.4,4.526-.417.363-.275,2.268-1.646,3.873-1.242a12.389,12.389,0,0,0,2.059.23,10.184,10.184,0,0,1,4.668,1.042,10.883,10.883,0,0,1,3.818,3.814,12.531,12.531,0,0,1,1.7,4.7c0,.234.671.63,1.321,1.013a10.584,10.584,0,0,1,3.648,3.039,23.952,23.952,0,0,1,2.509,5.015c.521.612,8.979,10.4,16.532,11.988,2.9.612,8.574.546,15.139.466,11-.129,24.676-.287,30.766,2.889,5.294,2.759,9.045,5.373,11.492,8.062a1.939,1.939,0,0,1,.15.166c.05.054.1.109.142.163a.146.146,0,0,1,.025.025c1.88,2.117,11.663,13.222,15.781,19.582l.5.622c.084.15,6.19,11.667,13.214,14.243a16.337,16.337,0,0,1,6.531,8.37Z" transform="translate(-771 -97.878)" fill="#e60b4c"/>
</svg>
