<svg xmlns="http://www.w3.org/2000/svg" width="24" height="18" viewBox="0 0 24 18">
  <g id="email" transform="translate(-26.304 -45.75)">
    <g id="Group_38611" data-name="Group 38611" transform="translate(26.304 45.75)">
      <g id="Group_38611-2" data-name="Group 38611">
        <path id="Path_40167" data-name="Path 40167" d="M47.986,45.75H28.622A2.3,2.3,0,0,0,26.3,48.023V61.477a2.3,2.3,0,0,0,2.318,2.273H47.986A2.3,2.3,0,0,0,50.3,61.477V48.023A2.3,2.3,0,0,0,47.986,45.75Zm.429,14.842L42.44,54.75l5.974-5.842ZM28.193,48.9,34.2,54.719l-6.005,5.873Zm1.358-1.286H47.077l-8.732,8.527Zm5.995,8.414L37.691,58.1a.951.951,0,0,0,1.328,0L41.1,56.067l5.964,5.822H29.541Z" transform="translate(-26.304 -45.75)" fill="#db003b"/>
      </g>
    </g>
  </g>
</svg>
