<svg xmlns="http://www.w3.org/2000/svg" width="89.999" height="90.001" viewBox="0 0 89.999 90.001">
  <g id="Group_38648" data-name="Group 38648" transform="translate(-9882.53 5964.06)">
    <ellipse id="Ellipse_158" data-name="Ellipse 158" cx="1.824" cy="1.82" rx="1.824" ry="1.82" transform="translate(9894.043 -5943.357)" fill="#db003c"/>
    <path id="Path_40218" data-name="Path 40218" d="M112.98,552.453a7.413,7.413,0,0,0-1.88-4.6,1.391,1.391,0,0,0-.44-.69,8.58,8.58,0,0,0-11.56-.24c-1.39-1.39-2.82-2.81-4.25-4.25a.949.949,0,0,1-.24-.36,31.558,31.558,0,0,1-1.42-5.48c-.32-3.49-.4-7.02-.37-10.52a47.831,47.831,0,0,0-4.03-19.17c-4.21-9.92-10.66-18.25-18.37-25.67a11.25,11.25,0,0,0-5.47-2.8c-.51-.11-1.01-.23-1.52-.35H59.39c-1.65.37-3.32.64-4.93,1.13a41.186,41.186,0,0,0-14.27,7.87,50.39,50.39,0,0,0-14.78,18.92,27.873,27.873,0,0,0-2.26,8.07,1.8,1.8,0,0,1-.15.4v4.04a3.063,3.063,0,0,1,.17.48,11.738,11.738,0,0,0,3.4,6.96c1.06,1.06,2.12,2.1,3.21,3.13a76.152,76.152,0,0,0,19.33,13.56,49.012,49.012,0,0,0,21.35,5.25c3.71.01,7.44.06,11.14.38a11.948,11.948,0,0,1,5.4,1.57c1.79,1.2,3.09,3.15,4.63,4.79a7.95,7.95,0,0,0-1.73,7.28,8.134,8.134,0,0,0,15.86-.31c.08-.39.1-.65.62-.76A8,8,0,0,0,112.98,552.453Zm-87.19-33.78a22.655,22.655,0,0,1,2.85-13A47.834,47.834,0,0,1,53,482.793a23.028,23.028,0,0,1,8.43-1.83c3.25.11,6.22.87,8.24,3.69a10.822,10.822,0,0,1,1.76,7.44c-.52,6.27-3.26,11.66-6.93,16.6-5.32,7.18-11.89,12.88-20.27,16.27a21.449,21.449,0,0,1-10.35,1.73A8.9,8.9,0,0,1,25.79,518.673Zm61.86,27.96a1.078,1.078,0,0,1-.86.31c-3.46-1.36-7.09-1.4-10.72-1.5-3.27-.08-6.56-.09-9.82-.31a42.415,42.415,0,0,1-13.83-3.66,72.284,72.284,0,0,1-18.31-11.78c2.27-.29,4.55-.42,6.75-.89a35.511,35.511,0,0,0,13.11-6.09,51.736,51.736,0,0,0,17.09-19.69,27.035,27.035,0,0,0,3.08-13.35,1.752,1.752,0,0,1,.08-.45c1.03,1.27,2.01,2.42,2.93,3.61a63.874,63.874,0,0,1,11.32,21.42,44.217,44.217,0,0,1,1.7,11.94c.03,3.25-.01,6.51.22,9.75a36.436,36.436,0,0,0,1.16,5.81c.12.54.18.88-.27,1.3C90.05,544.213,88.88,545.453,87.65,546.633Zm22.42,8.13a5.339,5.339,0,0,1-4.98,3.76c-1.49.06-1.83.41-1.89,1.92a5.4,5.4,0,0,1-7.22,4.9,5.458,5.458,0,0,1-1.87-9.16c1.41-1.41,1.41-1.65.02-3.04-1.51-1.5-3.04-3-4.46-4.41,1.28-1.27,2.48-2.48,3.73-3.72,1.56,1.56,3.19,3.21,4.83,4.83.86.85,1.53.74,2.4-.09a11.663,11.663,0,0,1,1.91-1.44,5.423,5.423,0,0,1,6.14,1.1,1.409,1.409,0,0,0,.4.25A5.31,5.31,0,0,1,110.07,554.763Z" transform="translate(9859.53 -6442.383)" fill="#db003c"/>
    <path id="Path_40219" data-name="Path 40219" d="M59.773,486.532a19.134,19.134,0,0,0-8.256,1.958c-5.209,2.878-5.432,2.721-9.823,7.238-.184.189-.328.413-.492.619-.715.9-1.5,1.114-2.159.6-.71-.548-.752-1.331.034-2.211A41.138,41.138,0,0,1,43,491.057a33.126,33.126,0,0,1,11.5-6.294,14.066,14.066,0,0,1,8.534-.466,7.758,7.758,0,0,1,5.5,6.8,18.565,18.565,0,0,1-2.305,10.474c-5.01,9.706-12.393,16.944-22.6,21.09a14.83,14.83,0,0,1-8.846,1.014,7.776,7.776,0,0,1-6.173-6.9c-.428-3.914.781-7.442,2.422-10.884a9.152,9.152,0,0,1,.656-1.239,1.232,1.232,0,0,1,1.673-.51,1.28,1.28,0,0,1,.679,1.692c-.272.676-.652,1.307-.951,1.974a17.524,17.524,0,0,0-1.866,7.947,5.31,5.31,0,0,0,5.512,5.471,18.025,18.025,0,0,0,9.428-2.634c8.421-4.729,14.837-11.334,18.582-20.341a14.486,14.486,0,0,0,1.164-5.632C65.906,488.612,63.784,486.5,59.773,486.532Z" transform="translate(9859.53 -6442.383)" fill="#db003c"/>
    <path id="Path_40220" data-name="Path 40220" d="M61.928,494.423a8.327,8.327,0,0,1-.266,1.383,12.366,12.366,0,0,1-7.57,7.973,4.975,4.975,0,0,1-2.144.3,3.532,3.532,0,0,1-3.241-4.108c.42-4.209,4.841-8.918,8.989-9.576C60.141,490.011,62.011,491.675,61.928,494.423Zm-10.593,5.771c.045,1.02.333,1.31,1.333,1.166a4.353,4.353,0,0,0,1.324-.42,10.48,10.48,0,0,0,4.822-5.029,4.681,4.681,0,0,0,.388-1.339c.18-1.26-.408-1.765-1.64-1.421a5.4,5.4,0,0,0-1.212.5,10.435,10.435,0,0,0-4.41,4.733A15.748,15.748,0,0,0,51.335,500.194Z" transform="translate(9859.53 -6442.383)" fill="#db003c"/>
  </g>
</svg>
