<svg xmlns="http://www.w3.org/2000/svg" width="90" height="90" viewBox="0 0 90 90">
  <g id="Group_38646" data-name="Group 38646" transform="translate(-10059.652 6120.863)">
    <g id="Snowflake" transform="translate(9870.226 -6442.446)">
      <g id="Group_38643" data-name="Group 38643">
        <g id="Group_38642" data-name="Group 38642">
          <path id="Path_40221" data-name="Path 40221" d="M277.3,372.767l-13.887,7.326-11.091-5.8,15.823-6.358a.176.176,0,0,0,.077-.039,1.1,1.1,0,0,0,.184-.106.976.976,0,0,0,.223-.174c.01-.01.029-.029.029-.039a1.16,1.16,0,0,0,.174-.213,1.844,1.844,0,0,0,.126-.242,1.4,1.4,0,0,0,.029-.987.661.661,0,0,0-.068-.174,1.413,1.413,0,0,0-.513-.59.857.857,0,0,0-.106-.058.829.829,0,0,0-.155-.078l-.126-.048-15.7-6.32,11.091-5.787,13.887,7.326a1.4,1.4,0,0,0,.677.165,1.449,1.449,0,0,0,.678-2.729l-12.107-6.4,10.229-5.352a1.452,1.452,0,1,0-1.345-2.574l-10.577,5.526-.068-12.881a1.49,1.49,0,0,0-1.461-1.442,1.449,1.449,0,0,0-1.442,1.462l.077,14.371-11.429,5.97,1.926-16.277a1.438,1.438,0,0,0-.019-.455,1.172,1.172,0,0,0-.068-.242,1.321,1.321,0,0,0-.116-.232c-.039-.068-.087-.126-.126-.184l-.019-.019a1.684,1.684,0,0,0-.407-.32.031.031,0,0,0-.019-.009.957.957,0,0,0-.233-.1,1.153,1.153,0,0,0-.261-.058,1.237,1.237,0,0,0-.6.058,1.685,1.685,0,0,0-.2.077,1.209,1.209,0,0,0-.194.107l-14.313,9.8V337.174L249.614,330a1.445,1.445,0,0,0,.619-1.955,1.464,1.464,0,0,0-1.964-.62L235.881,333.9V323.035a1.452,1.452,0,1,0-2.9,0V333.9l-12.4-6.475A1.453,1.453,0,0,0,219.236,330l13.742,7.171V348.68l-14.322-9.8a.563.563,0,0,0-.194-.107,1.686,1.686,0,0,0-.2-.077,1.25,1.25,0,0,0-.184-.048,1.155,1.155,0,0,0-.406-.01,1.174,1.174,0,0,0-.262.058.949.949,0,0,0-.232.1.071.071,0,0,0-.039.019.926.926,0,0,0-.174.116,1.6,1.6,0,0,0-.232.213c-.039.058-.087.116-.126.184a1.321,1.321,0,0,0-.116.232.754.754,0,0,0-.058.194,1.133,1.133,0,0,0-.029.193,1.512,1.512,0,0,0,0,.213v.1l.019.174v.01l1.907,16.1-11.429-5.98.077-14.371a1.464,1.464,0,0,0-1.452-1.462,1.448,1.448,0,0,0-1.451,1.442L204,349.048l-10.587-5.526a1.452,1.452,0,0,0-1.345,2.574l10.239,5.352-12.107,6.4a1.446,1.446,0,0,0,.677,2.729,1.4,1.4,0,0,0,.678-.165l13.877-7.326,11.091,5.787L200.7,365.238c-.01,0-.01.01-.019.01a.576.576,0,0,0-.136.068.733.733,0,0,0-.116.067c-.048.039-.106.078-.155.126a.753.753,0,0,0-.145.155.838.838,0,0,0-.155.223.739.739,0,0,0-.077.154c-.029.087-.058.175-.078.262a1.4,1.4,0,0,0,0,.561c.02.087.049.174.078.261a1.768,1.768,0,0,0,.232.387,1.032,1.032,0,0,0,.145.155,1.073,1.073,0,0,0,.165.126,1.735,1.735,0,0,0,.184.106.176.176,0,0,0,.077.039l15.823,6.358-11.091,5.8-13.877-7.326a1.45,1.45,0,1,0-1.355,2.565l12.107,6.387-10.239,5.351a1.452,1.452,0,0,0,.677,2.739,1.392,1.392,0,0,0,.668-.164L204,384.119l.068,12.88a1.449,1.449,0,0,0,1.451,1.452,1.464,1.464,0,0,0,1.452-1.461l-.077-14.381,11.429-5.981-1.907,16.113v.01l-.019.174a1.376,1.376,0,0,0,.019.445.71.71,0,0,0,.068.233.07.07,0,0,0,.01.038.731.731,0,0,0,.087.175c.019.029.038.067.067.106l.02.019a.443.443,0,0,0,.087.117,1.075,1.075,0,0,0,.184.174,1.254,1.254,0,0,0,.2.135c.01.01.019.01.029.02a1.4,1.4,0,0,0,.494.145,1.021,1.021,0,0,0,.164.019h.01a1.291,1.291,0,0,0,.435-.077.8.8,0,0,0,.145-.049,1.547,1.547,0,0,0,.378-.242l14.177-9.7V396l-13.742,7.161a1.452,1.452,0,0,0,1.345,2.574l12.4-6.464v10.858a1.452,1.452,0,0,0,2.9,0V399.274l12.388,6.464a1.428,1.428,0,0,0,.677.165,1.45,1.45,0,0,0,.668-2.739L235.881,396v-11.5l14.313,9.9a.282.282,0,0,0,.068.039,1.357,1.357,0,0,0,.232.116,1.109,1.109,0,0,0,.242.067,1.341,1.341,0,0,0,.281.03,1.018,1.018,0,0,0,.174-.01,1.155,1.155,0,0,0,.261-.058,1.357,1.357,0,0,0,.271-.116.565.565,0,0,0,.184-.126.725.725,0,0,0,.184-.165l.116-.145a.915.915,0,0,0,.126-.232,1.389,1.389,0,0,0,.068-.174,1.212,1.212,0,0,0,.058-.591v-.029l-1.926-16.374,11.429,5.971-.077,14.381a1.449,1.449,0,0,0,1.442,1.461h.009A1.462,1.462,0,0,0,264.788,397l.068-12.88,10.577,5.526a1.43,1.43,0,0,0,.678.164,1.45,1.45,0,0,0,.667-2.739l-10.229-5.351,12.107-6.387a1.45,1.45,0,0,0-1.355-2.565ZM232.978,352.2v11.99l-11.535-6.029-1.791-15.087Zm-27.832,14.39,14.768-5.952,11.371,5.942-11.371,5.942h-.01ZM219.652,390.1l1.791-15.1,11.535-6.029v12Zm16.229-37.9,13.317-9.116-1.781,15.067-11.536,6.029Zm0,28.771V368.983l11.536,6.029,1.781,15.175Zm13.065-8.439-11.381-5.952,11.371-5.942,14.768,5.952Z" fill="#db003c"/>
        </g>
      </g>
    </g>
  </g>
</svg>
