<svg xmlns="http://www.w3.org/2000/svg" width="79.995" height="100.002" viewBox="0 0 79.995 100.002">
  <g id="Group_38647" data-name="Group 38647" transform="translate(132.406 -318.653)">
    <path id="Path_40223" data-name="Path 40223" d="M-52.62,352.093l-9.18-14.25-.41-.64-11.54-17.92a1.355,1.355,0,0,0-1.18-.63,27.763,27.763,0,0,0-7.29,1.01,28.05,28.05,0,0,0-6.79,2.91c-5.37,3.14-9.74,7.82-13.97,12.34-4.34,4.65-8.39,8.99-13.47,11.98a24.855,24.855,0,0,1-10.92,3.45l-.97.09-1.52-2.37a1.39,1.39,0,0,0-1.18-.63,1.413,1.413,0,0,0-.71.2,1.311,1.311,0,0,0-.62.82,1.243,1.243,0,0,0,.17.99l30.91,48.02c0,.01.01.01.01.02s.01.01.02.01a1.405,1.405,0,0,0,1.88.42,1.28,1.28,0,0,0,.46-1.8.01.01,0,0,1-.01-.01.01.01,0,0,0-.01-.01l-6.59-10.24,2.27-.41a27.3,27.3,0,0,0,9.37-3.51c5.39-3.15,9.78-7.84,14.03-12.37,4.09-4.4,8.32-8.94,13.43-11.93a24.783,24.783,0,0,1,12.67-3.54,1.369,1.369,0,0,0,1.18-.67A1.275,1.275,0,0,0-52.62,352.093Zm-74.04.93,2.28-.39a27.879,27.879,0,0,0,9.37-3.5c5.38-3.16,9.77-7.85,14.02-12.4,4.29-4.6,8.36-8.95,13.42-11.92a24.855,24.855,0,0,1,10.92-3.45l.98-.07,9.93,15.43c-5.51.04-18.23,1.58-25.81,13.82-6.75,10.92-24.05,14.13-27.28,14.65Z" fill="#db003c"/>
    <path id="Path_40224" data-name="Path 40224" d="M-61.8,337.843l-.41-.64A1.362,1.362,0,0,1-61.8,337.843Z" fill="#db003c"/>
    <path id="Path_40225" data-name="Path 40225" d="M-96.789,401.932a1.413,1.413,0,0,1-1.9-.434,1.286,1.286,0,0,1,.446-1.81,1.413,1.413,0,0,1,1.9.435A1.277,1.277,0,0,1-96.789,401.932Z" fill="#db003c"/>
    <path id="Path_40226" data-name="Path 40226" d="M-84.772,417.634a1.3,1.3,0,0,1-.613.825,1.436,1.436,0,0,1-1.907-.425l-8.093-12.518a1.279,1.279,0,0,1,.455-1.809,1.436,1.436,0,0,1,1.795.292.854.854,0,0,1,.1.142,1.4,1.4,0,0,1,.093.16l8,12.366A1.218,1.218,0,0,1-84.772,417.634Z" fill="#db003c"/>
  </g>
</svg>
