<svg xmlns="http://www.w3.org/2000/svg" width="180" height="50.618" viewBox="0 0 180 50.618">
  <g id="Group_38361" data-name="Group 38361" transform="translate(-56.705 -47.959)">
    <path id="Path_40019" data-name="Path 40019" d="M78.585,92.529l-.007.007v-.007Z" transform="translate(-6.73 -13.713)" fill="#fff"/>
    <path id="Path_40020" data-name="Path 40020" d="M78.616,92.5a.007.007,0,0,0-.007.007l-.007.007c-.007,0-.007.007-.014.007l.007-.014c.007,0,.007,0,.014-.007Z" transform="translate(-6.733 -13.704)" fill="#fff"/>
    <g id="Group_38359" data-name="Group 38359" transform="translate(56.705 47.959)">
      <path id="Path_40021" data-name="Path 40021" d="M118.777,65.856a2.768,2.768,0,0,1,.362,1.651,2.645,2.645,0,0,1-.858,1.725,2.614,2.614,0,0,1-2.132.638,2.782,2.782,0,0,1-2.168-3.748,2.613,2.613,0,0,1,1.621-1.531,2.654,2.654,0,0,1,1.927.123A2.783,2.783,0,0,1,118.777,65.856Zm0,0A1.716,1.716,0,0,0,117.449,65,1.506,1.506,0,0,0,115.8,66.6a1.909,1.909,0,0,0,.845,1.473,1.521,1.521,0,0,0,1.1.228,1.536,1.536,0,0,0,1.111-.865A1.723,1.723,0,0,0,118.777,65.856Z" transform="translate(-74.27 -53.038)" fill="#fff"/>
      <path id="Path_40022" data-name="Path 40022" d="M125.026,61.646a2.6,2.6,0,0,1-2.077,2.34,13.417,13.417,0,0,1-7.006,13.9,13.4,13.4,0,0,1-15.453-2.112L89.7,81.052l-.561.277-.505-.346a7.965,7.965,0,0,0-2.416-1.26,4.816,4.816,0,0,0-5.795,3.517,4.571,4.571,0,0,0,1.537,4.493,4.638,4.638,0,0,0,2.25,1.018,4.723,4.723,0,0,0,.623.048c.1.007.208-.007.312-.007a3.974,3.974,0,0,1,.561.021,3.138,3.138,0,0,1,2.035,1.073,3.352,3.352,0,0,1,.8,2.091,5.643,5.643,0,0,0,.208,1.253,4.227,4.227,0,0,0,1.281,2.077,3.524,3.524,0,0,0,1.025.63,5.731,5.731,0,0,0,1.232.374,4.625,4.625,0,0,0,2.458-.242,4.738,4.738,0,0,0,3.122-3.69,4.875,4.875,0,0,0-1.9-4.68l-.838-.623.845-.526,8.01-5.068.36-.228.173.367a5.512,5.512,0,0,0,3.136,2.839,5.624,5.624,0,0,0,4.369-.3,5.79,5.79,0,0,1-4.472.658,5.9,5.9,0,0,1-3.462-2.5l-6.563,4.812a6.425,6.425,0,0,1,1.53,2.008,6.618,6.618,0,0,1-3.531,9.014,6.735,6.735,0,0,1-3.621.3c-.3-.055-.582-.145-.872-.215s-.561-.208-.845-.312a5.825,5.825,0,0,1-1.585-.983,6.313,6.313,0,0,1-1.212-1.433,6.8,6.8,0,0,1-.72-1.675,7.039,7.039,0,0,1-.3-1.786,1.232,1.232,0,0,0-.277-.748.986.986,0,0,0-.63-.339c-.069-.007-.1,0-.215,0-.152,0-.3.014-.457.007a8.133,8.133,0,0,1-.914-.076,6.775,6.775,0,0,1-5.587-8.128A6.921,6.921,0,0,1,83.126,77.7a6.813,6.813,0,0,1,3.635-.076,8.378,8.378,0,0,1,2.541,1.2l10.932-5.345.72-.353.547.588a11.233,11.233,0,0,0,13.431,2.25,11.227,11.227,0,0,0,5.885-11.527l-8.862-.242c-.18-.007-.436-.014-.692-.042a6.615,6.615,0,0,1-.741-.125,5.841,5.841,0,0,1-1.392-.533,6.144,6.144,0,0,1-2.16-1.959A26.973,26.973,0,0,0,87.294,50.23c-.775-.062-1.558-.09-2.34-.1l-2.34.111c-.775.076-1.551.187-2.326.3-.755.18-1.53.291-2.278.519a27.157,27.157,0,0,0-8.453,3.932,27.869,27.869,0,0,0-6.591,6.6,27.449,27.449,0,0,0-3.946,8.4V70a.042.042,0,0,1-.007.028v.007a7.415,7.415,0,0,0,.443,4.3,7.276,7.276,0,0,0,7.069,4.341,7.911,7.911,0,0,0,4.106-1.412c.014-.007.021-.014.035-.021a.022.022,0,0,0,.014-.007,27.727,27.727,0,0,0,12.3-21.974,28.335,28.335,0,0,1-.512,6.653,27.025,27.025,0,0,1-2.125,6.383,28.723,28.723,0,0,1-8.46,10.5h-.007c-.007.007-.007.007-.014.007l-.007.014h-.007v.007c-.007,0-.014.007-.021.014a8.846,8.846,0,0,1-5.186,2.056,9.641,9.641,0,0,1-5.476-1.44,9.372,9.372,0,0,1-3.7-4.265,9.484,9.484,0,0,1-.575-5.566.062.062,0,0,1,.007-.035c.007-.042.014-.076.021-.111V69.47l.007-.007.007-.028a29.533,29.533,0,0,1,4.258-9.09,30.033,30.033,0,0,1,7.124-7.131,29.53,29.53,0,0,1,9.139-4.251c.8-.249,1.641-.374,2.465-.561.838-.118,1.669-.242,2.513-.318l2.527-.125c.845.007,1.689.042,2.527.111A29.038,29.038,0,0,1,108.743,60.3a3.909,3.909,0,0,0,1.412,1.288,3.67,3.67,0,0,0,.879.339,3.313,3.313,0,0,0,.457.076c.152.014.3.021.526.028l7.844.215a2.75,2.75,0,0,1,.007-1.98,2.634,2.634,0,0,1,1.62-1.53,2.673,2.673,0,0,1,1.925.125,2.733,2.733,0,0,1,1.135.969,1.7,1.7,0,0,0-1.212-.678,1.5,1.5,0,0,0-1.648,1.592,1.775,1.775,0,0,0,.249.831,1.863,1.863,0,0,0,.6.644,1.507,1.507,0,0,0,1.094.222,1.53,1.53,0,0,0,1.115-.858A1.744,1.744,0,0,0,124.666,60,2.764,2.764,0,0,1,125.026,61.646Z" transform="translate(-56.705 -47.959)" fill="#fff"/>
      <g id="Group_38358" data-name="Group 38358" transform="translate(82.959 2.814)">
        <g id="Group_38347" data-name="Group 38347">
          <path id="Path_40023" data-name="Path 40023" d="M187.261,54.848a5.3,5.3,0,0,0-2.064-2.085,6.012,6.012,0,0,0-2.978-.739h-4.107a1.544,1.544,0,0,0-1.581,1.581v13.9a1.577,1.577,0,0,0,1.581,1.581,1.54,1.54,0,0,0,1.14-.472,1.561,1.561,0,0,0,.442-1.109V63.524h2.526a6.049,6.049,0,0,0,2.967-.729,5.171,5.171,0,0,0,2.074-2.023,5.863,5.863,0,0,0,.729-2.926A6.17,6.17,0,0,0,187.261,54.848Zm-2.351,3a2.568,2.568,0,0,1-2.69,2.679h-2.526v-5.5h2.526a2.545,2.545,0,0,1,1.93.78A2.8,2.8,0,0,1,184.91,57.846Z" transform="translate(-176.531 -52.024)" fill="#fff"/>
        </g>
        <g id="Group_38348" data-name="Group 38348" transform="translate(15.546 4.717)">
          <path id="Path_40024" data-name="Path 40024" d="M209.252,67.387a3.571,3.571,0,0,1-.6,1.992,3.9,3.9,0,0,1-1.735,1.4,6.267,6.267,0,0,1-2.6.493,8.593,8.593,0,0,1-2.793-.462,5.644,5.644,0,0,1-2.125-1.252,1.379,1.379,0,0,1-.421-1.006,1.493,1.493,0,0,1,.616-1.212,1.533,1.533,0,0,1,2.166.133,2.69,2.69,0,0,0,1.006.637,3.855,3.855,0,0,0,1.468.277,3.106,3.106,0,0,0,1.551-.308.665.665,0,0,0,.4-.606c0-.164-.042-.39-.411-.636a5.5,5.5,0,0,0-1.961-.627c-2.9-.564-4.364-1.817-4.364-3.748a3.063,3.063,0,0,1,.719-2.043,4.139,4.139,0,0,1,1.777-1.2,7.1,7.1,0,0,1,4.815.092,4.586,4.586,0,0,1,1.88,1.345,1.551,1.551,0,0,1,.379.986,1.3,1.3,0,0,1-.534,1.027,1.76,1.76,0,0,1-2.208-.236,2.569,2.569,0,0,0-.914-.565,3.849,3.849,0,0,0-1.232-.164,2.828,2.828,0,0,0-1.315.256c-.328.174-.328.35-.328.431a.629.629,0,0,0,.1.39,1.376,1.376,0,0,0,.565.339,10.616,10.616,0,0,0,1.571.442,7.577,7.577,0,0,1,3.409,1.356A3.121,3.121,0,0,1,209.252,67.387Z" transform="translate(-198.985 -58.837)" fill="#fff"/>
        </g>
        <g id="Group_38349" data-name="Group 38349" transform="translate(31.029 0.265)">
          <path id="Path_40025" data-name="Path 40025" d="M225.087,54.277a1.869,1.869,0,1,1-3.183-1.324,1.853,1.853,0,0,1,2.629,0A1.808,1.808,0,0,1,225.087,54.277Z" transform="translate(-221.349 -52.406)" fill="#fff"/>
          <path id="Path_40026" data-name="Path 40026" d="M224.916,60.525v9.128a1.526,1.526,0,0,1-1.56,1.571,1.551,1.551,0,0,1-1.109-.451,1.535,1.535,0,0,1-.452-1.119V60.525a1.508,1.508,0,0,1,.452-1.13,1.644,1.644,0,0,1,2.228,0A1.5,1.5,0,0,1,224.916,60.525Z" transform="translate(-221.486 -54.423)" fill="#fff"/>
        </g>
        <g id="Group_38350" data-name="Group 38350" transform="translate(40.455 4.722)">
          <path id="Path_40027" data-name="Path 40027" d="M246.484,61.906a6.057,6.057,0,0,0-2.218-2.249,6.443,6.443,0,0,0-6.263,0,5.929,5.929,0,0,0-2.228,2.249,6.22,6.22,0,0,0-.811,3.163,6.731,6.731,0,0,0,.749,3.142,5.6,5.6,0,0,0,2.074,2.238,5.5,5.5,0,0,0,2.947.822,5.666,5.666,0,0,0,2.443-.544,5.9,5.9,0,0,0,1.058-.667,1.548,1.548,0,0,0,.4.7,1.62,1.62,0,0,0,2.218,0,1.526,1.526,0,0,0,.451-1.108v-4.58A6.234,6.234,0,0,0,246.484,61.906Zm-2.629,4.877a3.092,3.092,0,0,1-1.119,1.18,3.083,3.083,0,0,1-4.312-1.191,3.36,3.36,0,0,1-.421-1.7,3.5,3.5,0,0,1,.421-1.735,3.154,3.154,0,0,1,1.129-1.191,3.062,3.062,0,0,1,4.3,1.191,3.6,3.6,0,0,1,.411,1.735A3.525,3.525,0,0,1,243.856,66.783Z" transform="translate(-234.964 -58.845)" fill="#fff"/>
        </g>
        <g id="Group_38351" data-name="Group 38351" transform="translate(1.387 27.879)">
          <path id="Path_40028" data-name="Path 40028" d="M189.891,106.831a1.6,1.6,0,0,1,.308.955,1.63,1.63,0,0,1-.39,1.068,1.363,1.363,0,0,1-1.068.5,1.507,1.507,0,0,1-1.3-.678l-4.837-6.551-.9.9v4.744a1.519,1.519,0,0,1-.462,1.119,1.612,1.612,0,0,1-2.228,0,1.528,1.528,0,0,1-.473-1.119v-13.9a1.536,1.536,0,0,1,.473-1.13,1.612,1.612,0,0,1,2.228,0,1.527,1.527,0,0,1,.462,1.13v4.918l5.925-5.925a2.291,2.291,0,0,1,.585-.441,1.53,1.53,0,0,1,.657-.134,1.352,1.352,0,0,1,1.047.421,1.392,1.392,0,0,1,.37.975,1.764,1.764,0,0,1-.544,1.284l-4.918,4.938Z" transform="translate(-178.535 -92.292)" fill="#fff"/>
        </g>
        <g id="Group_38352" data-name="Group 38352" transform="translate(16.769 32.597)">
          <path id="Path_40029" data-name="Path 40029" d="M212.272,102.172a6.049,6.049,0,0,0-2.218-2.249,6.415,6.415,0,0,0-6.263,0,6.025,6.025,0,0,0-2.238,2.249,6.316,6.316,0,0,0-.8,3.162,6.734,6.734,0,0,0,.749,3.142,5.6,5.6,0,0,0,2.074,2.238,5.5,5.5,0,0,0,2.947.821,5.635,5.635,0,0,0,2.443-.544,5.928,5.928,0,0,0,1.058-.667,1.452,1.452,0,0,0,.4.7,1.621,1.621,0,0,0,2.218,0,1.527,1.527,0,0,0,.451-1.109v-4.58A6.232,6.232,0,0,0,212.272,102.172Zm-6.931,6.058a3.071,3.071,0,0,1-1.129-1.191,3.359,3.359,0,0,1-.421-1.7,3.436,3.436,0,0,1,.421-1.725,3.1,3.1,0,0,1,1.129-1.2,3.062,3.062,0,0,1,4.3,1.191,3.613,3.613,0,0,1,.411,1.735,3.53,3.53,0,0,1-.411,1.715,3.089,3.089,0,0,1-1.119,1.181A3.155,3.155,0,0,1,205.341,108.23Z" transform="translate(-200.752 -99.107)" fill="#fff"/>
        </g>
        <g id="Group_38353" data-name="Group 38353" transform="translate(34.491 27.878)">
          <path id="Path_40030" data-name="Path 40030" d="M231.894,107.817a1.391,1.391,0,0,1-.6,1.15,2.167,2.167,0,0,1-1.314.39,3.311,3.311,0,0,1-1.921-.575,3.678,3.678,0,0,1-1.284-1.571,5.3,5.3,0,0,1-.431-2.166V93.832a1.525,1.525,0,0,1,.441-1.108,1.615,1.615,0,0,1,2.2,0,1.525,1.525,0,0,1,.442,1.108v11.213a1.952,1.952,0,0,0,.215.985c.144.246.246.246.3.246h.514a1.36,1.36,0,0,1,1.047.452A1.59,1.59,0,0,1,231.894,107.817Z" transform="translate(-226.35 -92.292)" fill="#fff"/>
        </g>
        <g id="Group_38354" data-name="Group 38354" transform="translate(43.567 32.591)">
          <path id="Path_40031" data-name="Path 40031" d="M251,102.118a5.709,5.709,0,0,0-2.2-2.218,6.407,6.407,0,0,0-3.163-.8,6.493,6.493,0,0,0-3.193.8,5.725,5.725,0,0,0-2.208,2.218,6.946,6.946,0,0,0,0,6.4,5.721,5.721,0,0,0,2.208,2.218,6.485,6.485,0,0,0,3.193.8,6.417,6.417,0,0,0,3.183-.8,5.765,5.765,0,0,0,2.2-2.218,6.551,6.551,0,0,0,.78-3.183A6.383,6.383,0,0,0,251,102.118Zm-2.238,3.214a3.664,3.664,0,0,1-.4,1.736,2.9,2.9,0,0,1-1.109,1.171,3.3,3.3,0,0,1-3.234,0,2.976,2.976,0,0,1-1.109-1.171,3.557,3.557,0,0,1-.411-1.736,3.638,3.638,0,0,1,.411-1.756,3.073,3.073,0,0,1,1.109-1.18,3.178,3.178,0,0,1,1.622-.421,3.114,3.114,0,0,1,1.612.421,2.857,2.857,0,0,1,1.109,1.18A3.718,3.718,0,0,1,248.763,105.331Z" transform="translate(-239.46 -99.099)" fill="#fff"/>
        </g>
        <g id="Group_38355" data-name="Group 38355" transform="translate(61.7 32.55)">
          <path id="Path_40032" data-name="Path 40032" d="M274.5,100.7a1.277,1.277,0,0,1-.041.37,1.309,1.309,0,0,1-1.315,1.007,1.776,1.776,0,0,1-.411-.051,8.063,8.063,0,0,0-1.232-.123,3.319,3.319,0,0,0-2.074.575,1.648,1.648,0,0,0-.7,1.417v6a1.534,1.534,0,0,1-.4,1.109,1.494,1.494,0,0,1-1.14.431,1.6,1.6,0,0,1-1.12-.4,1.543,1.543,0,0,1-.421-1.14V100.7a1.526,1.526,0,0,1,.421-1.119,1.511,1.511,0,0,1,1.12-.421,1.411,1.411,0,0,1,1.427.872,5.006,5.006,0,0,1,.9-.534,5.068,5.068,0,0,1,2.146-.462,4.123,4.123,0,0,1,1.941.39h.01A1.442,1.442,0,0,1,274.5,100.7Z" transform="translate(-265.651 -99.04)" fill="#fff"/>
        </g>
        <g id="Group_38356" data-name="Group 38356" transform="translate(75.274 28.143)">
          <path id="Path_40033" data-name="Path 40033" d="M288.994,94.545a1.869,1.869,0,0,1-3.737,0,1.837,1.837,0,0,1,.544-1.324,1.866,1.866,0,0,1,2.639,0A1.808,1.808,0,0,1,288.994,94.545Z" transform="translate(-285.257 -92.674)" fill="#fff"/>
          <path id="Path_40034" data-name="Path 40034" d="M288.824,100.793v9.128a1.561,1.561,0,1,1-3.122,0v-9.128a1.505,1.505,0,0,1,.452-1.129,1.654,1.654,0,0,1,2.228,0A1.556,1.556,0,0,1,288.824,100.793Z" transform="translate(-285.394 -94.692)" fill="#fff"/>
        </g>
        <g id="Group_38357" data-name="Group 38357" transform="translate(84.7 32.597)">
          <path id="Path_40035" data-name="Path 40035" d="M310.392,102.172a6.049,6.049,0,0,0-2.218-2.249,6.415,6.415,0,0,0-6.263,0,6.028,6.028,0,0,0-2.239,2.249,6.323,6.323,0,0,0-.8,3.162,6.61,6.61,0,0,0,.749,3.142,5.6,5.6,0,0,0,2.074,2.238,5.493,5.493,0,0,0,2.947.821,5.635,5.635,0,0,0,2.443-.544,5.929,5.929,0,0,0,1.058-.667,1.379,1.379,0,0,0,.4.7,1.621,1.621,0,0,0,2.218,0,1.527,1.527,0,0,0,.451-1.109v-4.58A6.232,6.232,0,0,0,310.392,102.172Zm-6.931,6.058a3.071,3.071,0,0,1-1.129-1.191,3.352,3.352,0,0,1-.421-1.7,3.429,3.429,0,0,1,.421-1.725,3.1,3.1,0,0,1,1.129-1.2,3.062,3.062,0,0,1,4.3,1.191,3.727,3.727,0,0,1,.411,1.735,3.522,3.522,0,0,1-.411,1.715,3.09,3.09,0,0,1-1.119,1.181A3.155,3.155,0,0,1,303.461,108.23Z" transform="translate(-298.872 -99.107)" fill="#fff"/>
        </g>
      </g>
    </g>
  </g>
</svg>
