<svg xmlns="http://www.w3.org/2000/svg" width="100" height="85" viewBox="0 0 100 85">
  <g id="Group_38645" data-name="Group 38645" transform="translate(-9727.121 5956.002)">
    <g id="Group_38644" data-name="Group 38644" transform="translate(9870.226 -6442.446)">
      <path id="Path_40222" data-name="Path 40222" d="M-43.227,490.182a1.486,1.486,0,0,0-.9-.85,57.247,57.247,0,0,0-44.417,3.6,1.576,1.576,0,0,0-.65,2.059,1.42,1.42,0,0,0,1.951.686,54.49,54.49,0,0,1,40.679-3.9,125.326,125.326,0,0,0-6.2,21.152c-2.486,11.022-4.631,20.549-13.884,29.153-13.5,12.559-26.912,13.112-43.883,13.8-1.281.062-2.573.113-3.883.164,2.679-8.83,15.038-43.965,43.854-51.094a1.548,1.548,0,0,0,1.077-1.854,1.438,1.438,0,0,0-1.747-1.137c-27.563,6.812-40.485,36.753-44.825,49.547a55.609,55.609,0,0,1-.466-6.228v-.041a55.427,55.427,0,0,1,.534-8.686,54.4,54.4,0,0,1,2.912-11.5c.214-.564.428-1.127.661-1.68a54.267,54.267,0,0,1,2.961-6.085c0-.01.01-.01.01-.02.436-.8.9-1.568,1.3-2.213a55.272,55.272,0,0,1,9.078-10.971,1.6,1.6,0,0,0,.126-2.172,1.4,1.4,0,0,0-2.048-.133,57.932,57.932,0,0,0-9.447,11.381,72.48,72.48,0,0,0-3.98-7.375,70.1,70.1,0,0,1-6.224-12.579,1.534,1.534,0,0,0-.805-.871,1.381,1.381,0,0,0-1.156.01,35.979,35.979,0,0,0-20.427,30.136,36.614,36.614,0,0,0,.6,9.353,35.363,35.363,0,0,0,5.884,13.828,35.342,35.342,0,0,0,9.339,9.138l2.457,7.293a1.474,1.474,0,0,0,1.369,1.024,1.4,1.4,0,0,0,.495-.092,1.573,1.573,0,0,0,.883-1.967l-2.32-6.863c.641-.676,1.272-1.321,1.893-1.967,1.1-1.137,2.155-2.233,3.165-3.318a56.679,56.679,0,0,0,1.33,8.584l-5.349,11.769a1.58,1.58,0,0,0,.679,2.049,1.382,1.382,0,0,0,.631.144,1.434,1.434,0,0,0,1.311-.871l5.2-11.411c1.718-.072,3.388-.144,5.029-.216,17.553-.717,31.427-1.28,45.708-14.566,9.942-9.25,12.185-19.217,14.787-30.751,1.572-6.965,3.194-14.166,6.7-22.187A1.625,1.625,0,0,0-43.227,490.182Zm-76.222,54.485c-1.534,1.752-3.233,3.5-5.02,5.347-.388.4-.776.809-1.175,1.219-2.805-5.9-10.825-25.434-1.582-39.888a1.6,1.6,0,0,0-.388-2.141,1.408,1.408,0,0,0-2.02.42c-8.65,13.522-3.893,30.372-.34,39.1a31.258,31.258,0,0,1-4.233-4.906,32.369,32.369,0,0,1-5.378-12.62,33.2,33.2,0,0,1-.534-8.523,32.875,32.875,0,0,1,17.33-26.838,79.366,79.366,0,0,0,5.893,11.555,55.642,55.642,0,0,1,4.582,8.943c-.242.45-.485.9-.728,1.362-.155.318-.32.645-.475.963-.195.389-.379.789-.563,1.178-.369.789-.719,1.588-1.049,2.387-.5,1.208-.951,2.427-1.359,3.667-.136.409-.272.829-.4,1.249-.107.328-.2.656-.292.994-.126.43-.242.861-.359,1.3-.378,1.434-.7,2.878-.961,4.353q-.219,1.137-.379,2.3A59.091,59.091,0,0,0-119.449,544.667Z" fill="#db003c"/>
    </g>
    <ellipse id="Ellipse_159" data-name="Ellipse 159" cx="1.968" cy="2.071" rx="1.968" ry="2.071" transform="translate(9773.789 -5946.057)" fill="#db003c"/>
  </g>
</svg>
