<svg id="search" xmlns="http://www.w3.org/2000/svg" width="24.004" height="24.004" viewBox="0 0 24.004 24.004">
  <path id="Path_40135" data-name="Path 40135" d="M5.32,146.292l-.836,3.119-3.054.065a12.023,12.023,0,0,1-.088-11.207h0l2.719.5,1.191,2.7a7.163,7.163,0,0,0,.067,4.823Z" transform="translate(0 -131.786)" fill="#fbbb00"/>
  <path id="Path_40136" data-name="Path 40136" d="M273.156,208.176a12,12,0,0,1-4.278,11.6h0l-3.424-.175-.485-3.026a7.153,7.153,0,0,0,3.078-3.653h-6.418v-4.748h11.528Z" transform="translate(-249.362 -198.416)" fill="#518ef8"/>
  <path id="Path_40137" data-name="Path 40137" d="M48.594,316.264h0a12.006,12.006,0,0,1-18.085-3.672l3.889-3.184a7.138,7.138,0,0,0,10.286,3.655Z" transform="translate(-29.079 -294.903)" fill="#28b446"/>
  <path id="Path_40138" data-name="Path 40138" d="M46.945,2.763,43.057,5.946A7.137,7.137,0,0,0,32.535,9.683l-3.91-3.2h0A12,12,0,0,1,46.945,2.763Z" transform="translate(-27.282)" fill="#f14336"/>
</svg>
