<svg id="Group_38537" data-name="Group 38537" xmlns="http://www.w3.org/2000/svg" width="22" height="21" viewBox="0 0 22 21">
  <g id="Group_38535" data-name="Group 38535">
    <path id="Path_40155" data-name="Path 40155" d="M-31.641,22.75c-.01.02-.03.03-.04.04a.169.169,0,0,0,.05.02A.127.127,0,0,0-31.641,22.75Zm.74,1.64v.04c.01-.01.03-.02.04-.03C-30.871,24.4-30.891,24.39-30.9,24.39Zm6.64.01a.176.176,0,0,0,.05.04v-.06A.169.169,0,0,1-24.261,24.4Zm.72-1.36c-.01.02-.01.06-.02.08.01,0,.03-.01.04-.01a.037.037,0,0,1,.03-.01C-23.511,23.08-23.521,23.06-23.541,23.04Zm4.07,6.35v.05l.03-.03C-19.451,29.4-19.461,29.39-19.471,29.39Z" transform="translate(38.44 -17.416)" fill="#db003b"/>
    <path id="Path_40156" data-name="Path 40156" d="M-18.618,26.109a.914.914,0,0,0-.731.349,7.969,7.969,0,0,0-3.476-4.169c.01-.1.01-.2.02-.31a4.866,4.866,0,0,0-4.9-4.809,4.874,4.874,0,0,0-4.868,4.276l-1.116-.64a1.294,1.294,0,0,0-.948-.126,1.262,1.262,0,0,0-.75.572,1.211,1.211,0,0,0-.168.611v2.424a7.689,7.689,0,0,0-1.086,1.861h-.454a1.631,1.631,0,0,0-1.629,1.609v2.569a1.616,1.616,0,0,0,1.629,1.6h.454a7.9,7.9,0,0,0,2.587,3.345v1.561a1.355,1.355,0,0,0,1.372,1.338h1.53a1.371,1.371,0,0,0,1.215-.727l.3-.582c.138.01.286.019.425.019h2.34c.138,0,.276-.01.415-.019l.306.582a1.345,1.345,0,0,0,1.2.727h1.54a1.355,1.355,0,0,0,1.363-1.348V35.271a7.7,7.7,0,0,0,3.091-5.342h.336a1.93,1.93,0,0,0,1.9-1.958A1.925,1.925,0,0,0-18.618,26.109Zm-5.115-3.248c.02.019.03.039.049.058a.037.037,0,0,0-.03.01c-.01,0-.03.01-.039.01C-23.742,22.919-23.742,22.881-23.732,22.861Zm-.662,1.3v.058a.173.173,0,0,1-.049-.039A.169.169,0,0,0-24.394,24.16Zm-4.848-4.819a3.15,3.15,0,0,1,1.471-.4h.069a3.072,3.072,0,0,1,3.081,3.035,2.911,2.911,0,0,1-.207,1.086,7.442,7.442,0,0,0-1.521-.475,6.143,6.143,0,0,0-2.666,0,6.615,6.615,0,0,0-1.56.485A3.021,3.021,0,0,1-29.242,19.342ZM-31,24.17c.01,0,.03.01.039.01-.01.01-.03.019-.039.029Zm-.731-1.59a.121.121,0,0,1,.01.058.169.169,0,0,1-.049-.019C-31.76,22.609-31.74,22.6-31.73,22.58Zm10.19,9.492a5.959,5.959,0,0,1-1.916,2.007.893.893,0,0,0-.395.737V36.4h-.82l-.464-.873a.893.893,0,0,0-.918-.475,5.95,5.95,0,0,1-.829.048h-2.33a5.95,5.95,0,0,1-.829-.048.907.907,0,0,0-.918.475l-.464.873h-.82v-1.58a.88.88,0,0,0-.395-.737,6.107,6.107,0,0,1-2.488-3.287.9.9,0,0,0-.869-.64h-.918v-2.22H-36a.945.945,0,0,0,.869-.64,6.139,6.139,0,0,1,1.165-2.123.915.915,0,0,0,.227-.582V22.832l1.145.65a.96.96,0,0,0,.276.107c.059.145.118.3.188.436-.168.145-.336.3-.513.465a.891.891,0,0,0,.128,1.26.953.953,0,0,0,1.185-.039,5.217,5.217,0,0,1,7.257,0,.937.937,0,0,0,1.284,0,.879.879,0,0,0,.267-.63.906.906,0,0,0-.128-.456,5.98,5.98,0,0,1,1.728,2.85A5.9,5.9,0,0,1-21.54,32.072Zm1.827-3.006v-.048c.01,0,.02.01.03.019Zm1.086-.911h-.326c-.01-.116-.03-.233-.049-.349a.865.865,0,0,0,.355.078.125.125,0,0,1,.128.136A.139.139,0,0,1-18.627,28.155Z" transform="translate(38.721 -17.17)" fill="#db003b"/>
  </g>
  <g id="Group_38536" data-name="Group 38536" transform="translate(4.665 8.536)">
    <path id="Path_40157" data-name="Path 40157" d="M-32.161,26.92a.913.913,0,0,1-.91.91.918.918,0,0,1-.92-.92.951.951,0,0,1,.27-.65.906.906,0,0,1,.65-.26.933.933,0,0,1,.65.27A.906.906,0,0,1-32.161,26.92Z" transform="translate(33.991 -26)" fill="#db003b"/>
  </g>
</svg>
