<svg xmlns="http://www.w3.org/2000/svg" width="23.483" height="23.503" viewBox="0 0 23.483 23.503">
  <g id="home" transform="translate(-0.208 0)">
    <g id="Group_38579" data-name="Group 38579" transform="translate(0.208 0)">
      <path id="Path_40163" data-name="Path 40163" d="M23.455,11.157,21.777,9.479,12.543.246a.839.839,0,0,0-1.187,0L2.122,9.479.444,11.158a.839.839,0,0,0,1.187,1.187l.245-.247V22.663a.839.839,0,0,0,.839.839H21.182a.839.839,0,0,0,.839-.839V12.1l.246.246a.839.839,0,0,0,1.187-1.187ZM14.467,21.824H9.43V15.108h5.037Zm5.876,0h-4.2V14.269a.839.839,0,0,0-.839-.839H8.591a.839.839,0,0,0-.839.839v7.555h-4.2v-11.4l8.394-8.394,8.394,8.394Z" transform="translate(-0.208 0)" fill="#828d93"/>
    </g>
  </g>
</svg>
