<svg xmlns="http://www.w3.org/2000/svg" width="24" height="24.001" viewBox="0 0 24 24.001">
  <g id="Group_38612" data-name="Group 38612" transform="translate(-51.514 -37.428)">
    <g id="Group_38614" data-name="Group 38614">
      <path id="Path_40169" data-name="Path 40169" d="M74.621,54.387l-2.9-2.892a2.685,2.685,0,0,0-3.962-.01l-1.526,1.532L65.99,52.9a5.626,5.626,0,0,1-.495-.272,18.074,18.074,0,0,1-4.286-3.889,10.764,10.764,0,0,1-1.324-2.025c.4-.353.758-.725,1.112-1.088.142-.151.293-.292.435-.443a2.647,2.647,0,0,0,0-4.01L59.5,39.245c-.323-.333-.657-.675-.98-.978a2.759,2.759,0,0,0-3.962,0l-1.809,1.8a4.091,4.091,0,0,0-1.212,2.609,9.088,9.088,0,0,0,.7,4.02,22.746,22.746,0,0,0,4.073,6.8,25.288,25.288,0,0,0,8.368,6.528,13.314,13.314,0,0,0,4.76,1.391c.111.01.222.01.334.01A4.21,4.21,0,0,0,73.044,60a11.247,11.247,0,0,1,.839-.866l.061-.061c.232-.221.465-.453.7-.685A2.706,2.706,0,0,0,74.621,54.387Zm-16.373-8.8a1.349,1.349,0,0,0-.313,1.521,11.591,11.591,0,0,0,1.758,2.841,19.5,19.5,0,0,0,4.74,4.312,6.235,6.235,0,0,0,.566.312l.112.05c.181.091.353.182.5.272l.091.051a1.352,1.352,0,0,0,1.627-.272l1.809-1.8a.925.925,0,0,1,.616-.322.849.849,0,0,1,.587.322l2.92,2.9a.8.8,0,0,1-.03,1.289c-.192.212-.4.414-.687.675-.324.323-.667.655-.96,1.008a2.281,2.281,0,0,1-1.8.756h-.233A11.52,11.52,0,0,1,65.525,58.3a23.146,23.146,0,0,1-7.711-6.025,21.013,21.013,0,0,1-3.76-6.226,7.565,7.565,0,0,1-.586-3.194,2.159,2.159,0,0,1,.667-1.41l1.789-1.783a.778.778,0,0,1,1.243.01q.395.378.788.786l2.1,2.1a1.042,1.042,0,0,1,.344.635,1.013,1.013,0,0,1-.344.634l-.525.524C59.117,44.765,58.723,45.169,58.248,45.592Z" fill="#db003b"/>
    </g>
  </g>
</svg>
