<svg xmlns="http://www.w3.org/2000/svg" width="90" height="100" viewBox="0 0 90 100">
  <g id="Group_38633" data-name="Group 38633" transform="translate(-9560 6269.43)">
    <g id="Group_38617" data-name="Group 38617" transform="translate(9859.53 -6442.383)">
      <path id="Path_40170" data-name="Path 40170" d="M-243.335,225.548a1.208,1.208,0,0,1,.892.328,1.174,1.174,0,0,1,.33.869v2.16h-13.932v-1.2a2.229,2.229,0,0,1,.147-.766,1.987,1.987,0,0,1,.471-.722l6.166-6.423q.771-.817,1.383-1.562a10.1,10.1,0,0,0,1.018-1.474,7.063,7.063,0,0,0,.625-1.482,5.67,5.67,0,0,0,.217-1.584,3.889,3.889,0,0,0-.21-1.335,2.681,2.681,0,0,0-.6-.971,2.448,2.448,0,0,0-.927-.591,3.509,3.509,0,0,0-1.214-.2,3.489,3.489,0,0,0-1.145.183,3.081,3.081,0,0,0-.934.511,3.175,3.175,0,0,0-.688.766,3.4,3.4,0,0,0-.422.964,1.592,1.592,0,0,1-.618.89,1.67,1.67,0,0,1-1.1.1l-1.826-.335a8.053,8.053,0,0,1,.815-2.664,6.3,6.3,0,0,1,1.51-1.912,6.17,6.17,0,0,1,2.078-1.154,8.021,8.021,0,0,1,2.521-.387,7.368,7.368,0,0,1,2.57.431,5.738,5.738,0,0,1,1.995,1.219,5.516,5.516,0,0,1,1.291,1.9,6.337,6.337,0,0,1,.464,2.466,6.831,6.831,0,0,1-.33,2.16,9.093,9.093,0,0,1-.885,1.9,12.7,12.7,0,0,1-1.3,1.752q-.745.846-1.559,1.722l-4.579,4.862a10.139,10.139,0,0,1,1.314-.315,7.513,7.513,0,0,1,1.243-.109Z" fill="#db003c"/>
      <path id="Path_40171" data-name="Path 40171" d="M-235.12,215.461a12.345,12.345,0,0,1,1.293-.211,11.215,11.215,0,0,1,1.193-.066,7.46,7.46,0,0,1,2.823.5,5.75,5.75,0,0,1,2.051,1.371,5.786,5.786,0,0,1,1.249,2.051,7.451,7.451,0,0,1,.421,2.533,8,8,0,0,1-.568,3.065,6.942,6.942,0,0,1-1.58,2.372,7.072,7.072,0,0,1-2.394,1.526,8.22,8.22,0,0,1-3.013.54,7.746,7.746,0,0,1-1.812-.205,8.714,8.714,0,0,1-1.608-.547,8.789,8.789,0,0,1-1.39-.788,8.86,8.86,0,0,1-1.145-.942l1.067-1.532a1.028,1.028,0,0,1,.885-.5,1.329,1.329,0,0,1,.717.234q.364.234.835.511a6.822,6.822,0,0,0,1.109.511,4.513,4.513,0,0,0,1.538.233,4.157,4.157,0,0,0,1.686-.321,3.29,3.29,0,0,0,1.215-.9,3.91,3.91,0,0,0,.73-1.373,5.827,5.827,0,0,0,.246-1.729,3.663,3.663,0,0,0-.962-2.694,3.839,3.839,0,0,0-2.844-.971,8.611,8.611,0,0,0-2.963.555l-2.164-.642,1.686-10.247h10.028v1.533a1.734,1.734,0,0,1-.464,1.255,2.124,2.124,0,0,1-1.573.481H-234.4Z" fill="#db003c"/>
    </g>
    <g id="Group_38618" data-name="Group 38618" transform="translate(9859.53 -6442.383)">
      <path id="Path_40172" data-name="Path 40172" d="M-211.766,226.343a.444.444,0,0,1,.326.148l.887,1a4.9,4.9,0,0,1-1.812,1.452,6.03,6.03,0,0,1-2.582.505,5.9,5.9,0,0,1-2.424-.478,5.34,5.34,0,0,1-1.837-1.332,5.872,5.872,0,0,1-1.168-2.035,7.933,7.933,0,0,1-.406-2.584,7.429,7.429,0,0,1,.436-2.6,5.974,5.974,0,0,1,1.226-2.032,5.538,5.538,0,0,1,1.888-1.327,6.071,6.071,0,0,1,2.427-.474,5.775,5.775,0,0,1,2.348.452,5.6,5.6,0,0,1,1.745,1.184l-.753,1.087a.707.707,0,0,1-.171.183.478.478,0,0,1-.29.078.528.528,0,0,1-.259-.074c-.089-.049-.187-.109-.293-.182s-.229-.152-.368-.239a2.974,2.974,0,0,0-.486-.24,3.851,3.851,0,0,0-.64-.182,4.2,4.2,0,0,0-.841-.075,3.614,3.614,0,0,0-1.486.3,3.22,3.22,0,0,0-1.159.87,4.05,4.05,0,0,0-.754,1.392,6.063,6.063,0,0,0-.267,1.875,5.711,5.711,0,0,0,.288,1.887,4.19,4.19,0,0,0,.783,1.393,3.345,3.345,0,0,0,1.163.865,3.486,3.486,0,0,0,1.44.3,6,6,0,0,0,.833-.053,3.394,3.394,0,0,0,.686-.165,3,3,0,0,0,.594-.291,3.685,3.685,0,0,0,.557-.44.817.817,0,0,1,.176-.126A.415.415,0,0,1-211.766,226.343Z" fill="#db003c"/>
    </g>
    <path id="Path_40173" data-name="Path 40173" d="M-273.535,250.822a4.281,4.281,0,0,0-4.192-4.356,4.281,4.281,0,0,0-4.191,4.356,4.282,4.282,0,0,0,4.191,4.357A4.282,4.282,0,0,0-273.535,250.822Zm-4.192,1.69a1.661,1.661,0,0,1-1.625-1.69,1.66,1.66,0,0,1,1.625-1.689,1.66,1.66,0,0,1,1.625,1.689A1.661,1.661,0,0,1-277.727,252.512Z" transform="translate(9859.53 -6442.383)" fill="#db003c"/>
    <g id="Group_38619" data-name="Group 38619" transform="translate(9859.53 -6442.383)">
      <line id="Line_26" data-name="Line 26" x1="10.278" transform="translate(-281.923 198.258)" fill="none"/>
      <path id="Path_40174" data-name="Path 40174" d="M-210.82,196.923h-72.51v40.27a14.907,14.907,0,0,0-8.4,13.5c0,8.16,6.4,14.8,14.25,14.8s14.24-6.64,14.24-14.8a14.916,14.916,0,0,0-8.41-13.5v-37.6h60.83a1.311,1.311,0,0,0,1.29-1.34A1.308,1.308,0,0,0-210.82,196.923Zm-55.1,53.77a11.811,11.811,0,0,1-11.56,12.02,11.815,11.815,0,0,1-11.58-12.02,12.068,12.068,0,0,1,7.53-11.27,1.388,1.388,0,0,0,.87-1.3v-38.48h6.35v38.48a1.379,1.379,0,0,0,.86,1.3A12.068,12.068,0,0,1-265.92,250.693Z" fill="#db003c"/>
    </g>
    <path id="Path_40175" data-name="Path 40175" d="M-271.645,186.328l-.077,6.95h-2.589v-6.95a3.24,3.24,0,0,0-3.172-3.3,3.246,3.246,0,0,0-3.18,3.3v6.95h-2.666v-6.95a5.964,5.964,0,0,1,5.846-6.067A5.957,5.957,0,0,1-271.645,186.328Z" transform="translate(9859.53 -6442.383)" fill="#db003c"/>
    <path id="Path_40176" data-name="Path 40176" d="M-255.26,249.953c0,12.68-9.94,23-22.14,23s-22.13-10.32-22.13-23a23.389,23.389,0,0,1,8.73-18.31v-44.76a13.688,13.688,0,0,1,13.4-13.93,13.688,13.688,0,0,1,13.4,13.93v6.39h-2.73v-6.39a10.9,10.9,0,0,0-10.67-11.09,10.9,10.9,0,0,0-10.67,11.09v45.48a1.426,1.426,0,0,1-.57,1.15,20.475,20.475,0,0,0-8.16,16.44c0,11.12,8.7,20.16,19.4,20.16s19.4-9.04,19.4-20.16a20.475,20.475,0,0,0-8.16-16.44,1.426,1.426,0,0,1-.57-1.15v-32.77H-264v32.05A23.4,23.4,0,0,1-255.26,249.953Z" transform="translate(9859.53 -6442.383)" fill="#db003c"/>
    <ellipse id="Ellipse_146" data-name="Ellipse 146" cx="1.436" cy="1.492" rx="1.436" ry="1.492" transform="translate(9636.245 -6226.036)" fill="#db003c"/>
  </g>
</svg>
