<svg xmlns="http://www.w3.org/2000/svg" width="20" height="15" viewBox="0 0 20 15">
  <path id="Path_40147" data-name="Path 40147" d="M-23.114,8.43l-.85-1.47-2.2-3.85a1.03,1.03,0,0,0-.891-.52H-29.62V2.36a1.009,1.009,0,0,0-1.025-1H-41.966a1.009,1.009,0,0,0-1.025,1V13.23a1.015,1.015,0,0,0,1.025,1h1.732a3.223,3.223,0,0,0,3.053,2.13,3.22,3.22,0,0,0,3.043-2.13h2.715a3.223,3.223,0,0,0,3.053,2.13,3.22,3.22,0,0,0,3.043-2.13h1.311a1.009,1.009,0,0,0,1.025-1V8.92A1.024,1.024,0,0,0-23.114,8.43Zm-4.549-3.84,1.107,1.93H-29.62V4.59Zm-9.518,9.77a1.161,1.161,0,0,1-1.178-1.13,1.161,1.161,0,0,1,1.178-1.13,1.152,1.152,0,0,1,1.168,1.13A1.152,1.152,0,0,1-37.182,14.36Zm8.811,0a1.161,1.161,0,0,1-1.178-1.13A1.161,1.161,0,0,1-28.37,12.1,1.152,1.152,0,0,1-27.2,13.23,1.152,1.152,0,0,1-28.37,14.36Zm3.33-2.13h-.277a.938.938,0,0,0-.092-.21,2.368,2.368,0,0,0-.133-.28c-.051-.09-.1-.17-.164-.26a1.635,1.635,0,0,0-.174-.22,2.27,2.27,0,0,0-.215-.24,1.686,1.686,0,0,0-.143-.13.579.579,0,0,0-.133-.1.973.973,0,0,0-.2-.15,3.063,3.063,0,0,0-1.465-.52c-.1-.01-.215-.02-.328-.02s-.225.01-.328.02a.952.952,0,0,0-.236.03c-.072.01-.133.03-.2.04a3.268,3.268,0,0,0-1.168.54c-.113.09-.225.18-.328.27,0,.01-.01.01-.02.02a4.122,4.122,0,0,0-.287.33.054.054,0,0,0-.031.04,2.632,2.632,0,0,0-.236.35c-.01.02-.02.05-.031.07a3.741,3.741,0,0,0-.184.42h-2.7a.937.937,0,0,0-.092-.21,2.367,2.367,0,0,0-.133-.28c-.051-.09-.1-.17-.164-.26a1.635,1.635,0,0,0-.174-.22,2.27,2.27,0,0,0-.215-.24,1.686,1.686,0,0,0-.143-.13.579.579,0,0,0-.133-.1.973.973,0,0,0-.2-.15,3.063,3.063,0,0,0-1.465-.52c-.1-.01-.215-.02-.328-.02s-.225.01-.328.02a.952.952,0,0,0-.236.03c-.072.01-.133.03-.2.04a3.268,3.268,0,0,0-1.168.54c-.113.09-.225.18-.328.27,0,.01-.01.01-.02.02a4.122,4.122,0,0,0-.287.33.054.054,0,0,0-.031.04,2.632,2.632,0,0,0-.236.35c-.01.02-.02.05-.031.07a3.741,3.741,0,0,0-.184.42h-.707V3.36h9.273V7.52a1.015,1.015,0,0,0,1.025,1h5.225l.379.66Z" transform="translate(42.991 -1.36)" fill="#828d93"/>
</svg>
