<svg xmlns="http://www.w3.org/2000/svg" width="80" height="100" viewBox="0 0 80 100">
  <g id="Group_38637" data-name="Group 38637" transform="translate(-9568.001 6119.88)">
    <g id="Group_38629" data-name="Group 38629" transform="translate(9859.53 -6442.383)">
      <ellipse id="Ellipse_153" data-name="Ellipse 153" cx="1.509" cy="1.465" rx="1.509" ry="1.465" transform="translate(-256.041 350.529)" fill="#db003c"/>
    </g>
    <path id="Path_40203" data-name="Path 40203" d="M-211.915,338.973a1.4,1.4,0,0,0-2.043-.07l-23.972,23.28v-30.89h1.5a4.468,4.468,0,0,0,4.52-4.4,4.46,4.46,0,0,0-4.52-4.39h-36.213a4.466,4.466,0,0,0-4.52,4.39,4.474,4.474,0,0,0,4.52,4.4h1.5V352.5a1.5,1.5,0,0,0,1.513,1.47,1.5,1.5,0,0,0,1.514-1.47v-22.67a1.492,1.492,0,0,0-1.514-1.47h-3.017a1.489,1.489,0,0,1-1.5-1.47,1.489,1.489,0,0,1,1.5-1.47h36.213a1.489,1.489,0,0,1,1.5,1.47,1.489,1.489,0,0,1-1.5,1.47h-27.162a1.483,1.483,0,0,0-1.5,1.47v58.72l-3.016,2.93v-27.94a1.49,1.49,0,0,0-1.514-1.46,1.489,1.489,0,0,0-1.513,1.46v30.88l-19.933,19.35a1.53,1.53,0,0,0-.067,2.12,1.413,1.413,0,0,0,1.05.47,1.418,1.418,0,0,0,.993-.4l17.957-17.44v7.87a16.383,16.383,0,0,0,16.6,16.11,16.385,16.385,0,0,0,16.607-16.11v-40.11l25.947-25.19A1.55,1.55,0,0,0-211.915,338.973Zm-50.16-7.68h15.085v28.45a3.9,3.9,0,0,0-2.063-.59,3.7,3.7,0,0,0-3.759,3.66,3.7,3.7,0,0,0,3.759,3.65,3.9,3.9,0,0,0,2.063-.59v2.29a16.234,16.234,0,0,0-8.386,3.12,13.108,13.108,0,0,1-6.7,2.62Zm0,45.55a16.158,16.158,0,0,0,8.376-3.13,13.3,13.3,0,0,1,6.564-2.59l-14.94,14.5Zm0,12.89,15.085-14.65v31.31a7.447,7.447,0,0,1-7.547,7.32,7.445,7.445,0,0,1-7.538-7.32Zm21.119,16.66a13.392,13.392,0,0,1-13.581,13.18,13.39,13.39,0,0,1-13.571-13.18v-10.8l3.016-2.93v13.73a10.418,10.418,0,0,0,10.555,10.25,10.42,10.42,0,0,0,10.564-10.25v-34.24l3.017-2.93Zm0-41.28-3.017,2.93v-36.75h3.017Z" transform="translate(9859.53 -6442.383)" fill="#db003c"/>
    <ellipse id="Ellipse_154" data-name="Ellipse 154" cx="1.464" cy="1.421" rx="1.464" ry="1.421" transform="translate(9588.27 -6085.669)" fill="#db003c"/>
  </g>
</svg>
