<svg xmlns="http://www.w3.org/2000/svg" width="198.892" height="128.975" viewBox="0 0 198.892 128.975">
  <g id="Component_18_1" data-name="Component 18 – 1" transform="translate(0)">
    <g id="Group_38432" data-name="Group 38432" transform="translate(78.421 14.234)">
      <g id="Group_38419" data-name="Group 38419" transform="translate(0.002 0)">
        <g id="Group_38418" data-name="Group 38418" transform="translate(0)">
          <path id="Path_40087" data-name="Path 40087" d="M-2876.765,266.822l-.02.445-1.368,32.854a1.307,1.307,0,0,1-.982,1.211l-31.97,8.165a1.4,1.4,0,0,1-.157.046l-10.384,2.652h-.006l-35.362,9.035a1.3,1.3,0,0,1-.825.3h-.013a1.308,1.308,0,0,1-1.31-1.283l-35.028-47.442a1.272,1.272,0,0,1-.255-.674l-2.4-30.072-.033-.426a1.319,1.319,0,0,1,1.074-1.395l.543-.1,70.023-12.872a1.334,1.334,0,0,1,1.067.275l46.362,37.745.57.465A1.285,1.285,0,0,1-2876.765,266.822Z" transform="translate(2997.057 -227.25)" fill="#fff"/>
          <path id="Path_40088" data-name="Path 40088" d="M-2995.354,246.89l-.544.1a1.319,1.319,0,0,0-1.073,1.395l.032.426a1.309,1.309,0,0,1,.242-1.7A1.315,1.315,0,0,1-2995.354,246.89Z" transform="translate(2997.147 -233.999)" fill="#fff"/>
          <path id="Path_40089" data-name="Path 40089" d="M-2813.992,287.327l.02-.445a1.287,1.287,0,0,0-.478-1.067l-.57-.465a1.322,1.322,0,0,1,1.028.609A1.292,1.292,0,0,1-2813.992,287.327Z" transform="translate(2934.264 -247.31)" fill="#fff"/>
        </g>
      </g>
      <g id="Group_38421" data-name="Group 38421" transform="translate(0 0.003)">
        <g id="Group_38420" data-name="Group 38420">
          <path id="Path_40090" data-name="Path 40090" d="M-2877.247,265.759l-.57-.465-46.361-37.745a1.335,1.335,0,0,0-1.067-.275l-70.023,12.872-.543.1a1.32,1.32,0,0,0-1.074,1.395l.033.426,2.4,30.072a1.279,1.279,0,0,0,.255.674l35.028,47.442a1.307,1.307,0,0,0,1.309,1.283h.013a1.3,1.3,0,0,0,.825-.3l35.362-9.035h.007l10.384-2.652a1.4,1.4,0,0,0,.157-.046l31.971-8.165a1.307,1.307,0,0,0,.982-1.211l1.368-32.854.02-.445A1.285,1.285,0,0,0-2877.247,265.759Zm-114.624,5.794-2.082-26.111,34.446,39.88.294,30.458Zm34.144,11.818-35.382-40.96,67.745-12.453,44.254,36.023Zm1.159,35.041-.3-31.015L-2925,310.352Zm44.292-11.307-9.415,2.4-33.4-24.048,73.8-16.755Zm31.545-8.06-27.309,6.973,28.494-35.3Z" transform="translate(2997.061 -227.254)" fill="#db003b"/>
          <path id="Path_40091" data-name="Path 40091" d="M-2995.359,246.894l-.544.1a1.32,1.32,0,0,0-1.074,1.395l.033.426a1.309,1.309,0,0,1,.242-1.7A1.314,1.314,0,0,1-2995.359,246.894Z" transform="translate(2997.152 -234.003)" fill="#f199b0"/>
          <path id="Path_40092" data-name="Path 40092" d="M-2814,287.331l.02-.445a1.286,1.286,0,0,0-.478-1.067l-.57-.465a1.322,1.322,0,0,1,1.028.609A1.291,1.291,0,0,1-2814,287.331Z" transform="translate(2934.269 -247.314)" fill="#f199b0"/>
        </g>
      </g>
    </g>
    <g id="Group_38428" data-name="Group 38428" transform="translate(0 34.691)">
      <g id="Group_38419-2" data-name="Group 38419" transform="translate(0.002 0)">
        <g id="Group_38418-2" data-name="Group 38418" transform="translate(0)">
          <path id="Path_40087-2" data-name="Path 40087" d="M-2876.765,266.822l-.02.445-1.368,32.854a1.307,1.307,0,0,1-.982,1.211l-31.97,8.165a1.4,1.4,0,0,1-.157.046l-10.384,2.652h-.006l-35.362,9.035a1.3,1.3,0,0,1-.825.3h-.013a1.308,1.308,0,0,1-1.31-1.283l-35.028-47.442a1.272,1.272,0,0,1-.255-.674l-2.4-30.072-.033-.426a1.319,1.319,0,0,1,1.074-1.395l.543-.1,70.023-12.872a1.334,1.334,0,0,1,1.067.275l46.362,37.745.57.465A1.285,1.285,0,0,1-2876.765,266.822Z" transform="translate(2997.057 -227.25)" fill="#fff"/>
          <path id="Path_40088-2" data-name="Path 40088" d="M-2995.354,246.89l-.544.1a1.319,1.319,0,0,0-1.073,1.395l.032.426a1.309,1.309,0,0,1,.242-1.7A1.315,1.315,0,0,1-2995.354,246.89Z" transform="translate(2997.147 -233.999)" fill="#fff"/>
          <path id="Path_40089-2" data-name="Path 40089" d="M-2813.992,287.327l.02-.445a1.287,1.287,0,0,0-.478-1.067l-.57-.465a1.322,1.322,0,0,1,1.028.609A1.292,1.292,0,0,1-2813.992,287.327Z" transform="translate(2934.264 -247.31)" fill="#fff"/>
        </g>
      </g>
      <g id="Group_38421-2" data-name="Group 38421" transform="translate(0 0.003)">
        <g id="Group_38420-2" data-name="Group 38420">
          <path id="Path_40090-2" data-name="Path 40090" d="M-2877.247,265.759l-.57-.465-46.361-37.745a1.335,1.335,0,0,0-1.067-.275l-70.023,12.872-.543.1a1.32,1.32,0,0,0-1.074,1.395l.033.426,2.4,30.072a1.279,1.279,0,0,0,.255.674l35.028,47.442a1.307,1.307,0,0,0,1.309,1.283h.013a1.3,1.3,0,0,0,.825-.3l35.362-9.035h.007l10.384-2.652a1.4,1.4,0,0,0,.157-.046l31.971-8.165a1.307,1.307,0,0,0,.982-1.211l1.368-32.854.02-.445A1.285,1.285,0,0,0-2877.247,265.759Zm-114.624,5.794-2.082-26.111,34.446,39.88.294,30.458Zm34.144,11.818-35.382-40.96,67.745-12.453,44.254,36.023Zm1.159,35.041-.3-31.015L-2925,310.352Zm44.292-11.307-9.415,2.4-33.4-24.048,73.8-16.755Zm31.545-8.06-27.309,6.973,28.494-35.3Z" transform="translate(2997.061 -227.254)" fill="#db003b"/>
          <path id="Path_40091-2" data-name="Path 40091" d="M-2995.359,246.894l-.544.1a1.32,1.32,0,0,0-1.074,1.395l.033.426a1.309,1.309,0,0,1,.242-1.7A1.314,1.314,0,0,1-2995.359,246.894Z" transform="translate(2997.152 -234.003)" fill="#f199b0"/>
          <path id="Path_40092-2" data-name="Path 40092" d="M-2814,287.331l.02-.445a1.286,1.286,0,0,0-.478-1.067l-.57-.465a1.322,1.322,0,0,1,1.028.609A1.291,1.291,0,0,1-2814,287.331Z" transform="translate(2934.269 -247.314)" fill="#f199b0"/>
        </g>
      </g>
    </g>
    <g id="Group_38433" data-name="Group 38433" transform="translate(43.188)">
      <g id="Group_38419-3" data-name="Group 38419" transform="translate(0.002 0)">
        <g id="Group_38418-3" data-name="Group 38418" transform="translate(0)">
          <path id="Path_40087-3" data-name="Path 40087" d="M-2876.765,266.822l-.02.445-1.368,32.854a1.307,1.307,0,0,1-.982,1.211l-31.97,8.165a1.4,1.4,0,0,1-.157.046l-10.384,2.652h-.006l-35.362,9.035a1.3,1.3,0,0,1-.825.3h-.013a1.308,1.308,0,0,1-1.31-1.283l-35.028-47.442a1.272,1.272,0,0,1-.255-.674l-2.4-30.072-.033-.426a1.319,1.319,0,0,1,1.074-1.395l.543-.1,70.023-12.872a1.334,1.334,0,0,1,1.067.275l46.362,37.745.57.465A1.285,1.285,0,0,1-2876.765,266.822Z" transform="translate(2997.057 -227.25)" fill="#fff"/>
          <path id="Path_40088-3" data-name="Path 40088" d="M-2995.354,246.89l-.544.1a1.319,1.319,0,0,0-1.073,1.395l.032.426a1.309,1.309,0,0,1,.242-1.7A1.315,1.315,0,0,1-2995.354,246.89Z" transform="translate(2997.147 -233.999)" fill="#fff"/>
          <path id="Path_40089-3" data-name="Path 40089" d="M-2813.992,287.327l.02-.445a1.287,1.287,0,0,0-.478-1.067l-.57-.465a1.322,1.322,0,0,1,1.028.609A1.292,1.292,0,0,1-2813.992,287.327Z" transform="translate(2934.264 -247.31)" fill="#fff"/>
        </g>
      </g>
      <g id="Group_38421-3" data-name="Group 38421" transform="translate(0 0.003)">
        <g id="Group_38420-3" data-name="Group 38420">
          <path id="Path_40090-3" data-name="Path 40090" d="M-2877.247,265.759l-.57-.465-46.361-37.745a1.335,1.335,0,0,0-1.067-.275l-70.023,12.872-.543.1a1.32,1.32,0,0,0-1.074,1.395l.033.426,2.4,30.072a1.279,1.279,0,0,0,.255.674l35.028,47.442a1.307,1.307,0,0,0,1.309,1.283h.013a1.3,1.3,0,0,0,.825-.3l35.362-9.035h.007l10.384-2.652a1.4,1.4,0,0,0,.157-.046l31.971-8.165a1.307,1.307,0,0,0,.982-1.211l1.368-32.854.02-.445A1.285,1.285,0,0,0-2877.247,265.759Zm-114.624,5.794-2.082-26.111,34.446,39.88.294,30.458Zm34.144,11.818-35.382-40.96,67.745-12.453,44.254,36.023Zm1.159,35.041-.3-31.015L-2925,310.352Zm44.292-11.307-9.415,2.4-33.4-24.048,73.8-16.755Zm31.545-8.06-27.309,6.973,28.494-35.3Z" transform="translate(2997.061 -227.254)" fill="#db003b"/>
          <path id="Path_40091-3" data-name="Path 40091" d="M-2995.359,246.894l-.544.1a1.32,1.32,0,0,0-1.074,1.395l.033.426a1.309,1.309,0,0,1,.242-1.7A1.314,1.314,0,0,1-2995.359,246.894Z" transform="translate(2997.152 -234.003)" fill="#f199b0"/>
          <path id="Path_40092-3" data-name="Path 40092" d="M-2814,287.331l.02-.445a1.286,1.286,0,0,0-.478-1.067l-.57-.465a1.322,1.322,0,0,1,1.028.609A1.291,1.291,0,0,1-2814,287.331Z" transform="translate(2934.269 -247.314)" fill="#f199b0"/>
        </g>
      </g>
    </g>
  </g>
</svg>
