<svg id="Component_17_1" data-name="Component 17 – 1" xmlns="http://www.w3.org/2000/svg" width="192.024" height="165.064">
  <g id="Group_38485" data-name="Group 38485" transform="translate(59.469 24.199) rotate(31)">
    <g id="Group_38424" data-name="Group 38424">
      <g id="Group_38423" data-name="Group 38423">
        <path id="Path_40093" data-name="Path 40093" d="M1.4.47c-.083.207-.173.436-.277.671C.961,1.051.795.961.636.864A1.357,1.357,0,0,1,0,0,1.871,1.871,0,0,0,.781.415a1.78,1.78,0,0,0,.463.062A1.12,1.12,0,0,0,1.4.47Z" transform="translate(15.725 108.579)" fill="#fff"/>
        <path id="Path_40094" data-name="Path 40094" d="M122.042,12.508a22.927,22.927,0,0,1-4.667,28.52L43.678,106.8a23.143,23.143,0,0,1-26.833,2.918c.1-.235.194-.463.277-.671a1.12,1.12,0,0,1-.152.007,1.78,1.78,0,0,1-.463-.062,1.871,1.871,0,0,1-.781-.415,1.357,1.357,0,0,0,.636.864c.159.1.325.187.484.277-.83,1.943-2.3,4.494-4.6,5.607a1.393,1.393,0,0,1-.6.138h-.055L8.4,115.334a1.386,1.386,0,0,1-1.092-.615c-1.245-1.86-3.243-3.955-4.121-3.989a1.387,1.387,0,0,1-1.058-.56l-1.86-2.517a1.39,1.39,0,0,1,0-1.652c.159-.214,3.526-4.639,7.868-5.289l.359-.041c-.09-.138-.173-.27-.249-.408v-.007a22.041,22.041,0,0,1,4.5-27.732l73.7-65.773a23.28,23.28,0,0,1,27.214-2.7l3.34-3.609a1.381,1.381,0,0,1,1.936-.09,4.415,4.415,0,0,1,1.639,2.413,33.132,33.132,0,0,0,3.229,2.206c.871.3,3.491,1.4,3.4,3.616C127.159,10.047,125.416,11.36,122.042,12.508Z" fill="#fff"/>
        <path id="Path_40095" data-name="Path 40095" d="M0,0" transform="translate(27.436 100.312)" fill="#fff" stroke="#000" stroke-linecap="round" stroke-linejoin="round" stroke-width="4"/>
        <path id="Path_40096" data-name="Path 40096" d="M.111,0A3.279,3.279,0,0,0,0,.449L.359.408C.27.27.187.138.111,0Z" transform="translate(8.141 100.261)" fill="#fff"/>
        <path id="Path_40097" data-name="Path 40097" d="M1.4.47c-.083.207-.173.436-.277.671C.961,1.051.795.961.636.864A1.357,1.357,0,0,1,0,0,1.871,1.871,0,0,0,.781.415a1.78,1.78,0,0,0,.463.062A1.12,1.12,0,0,0,1.4.47Z" transform="translate(15.725 108.579)" fill="#fff"/>
      </g>
    </g>
    <g id="Group_38426" data-name="Group 38426">
      <g id="Group_38425" data-name="Group 38425">
        <path id="Path_40098" data-name="Path 40098" d="M1.4.47c-.083.207-.173.436-.277.671C.961,1.051.795.961.636.864A1.357,1.357,0,0,1,0,0,1.871,1.871,0,0,0,.781.415a1.78,1.78,0,0,0,.463.062A1.12,1.12,0,0,0,1.4.47Z" transform="translate(15.725 108.579)" fill="#db003b"/>
        <path id="Path_40099" data-name="Path 40099" d="M127.214,8.588c.09-2.219-2.531-3.319-3.4-3.616a33.132,33.132,0,0,1-3.229-2.206A4.415,4.415,0,0,0,118.945.353a1.381,1.381,0,0,0-1.936.09l-3.34,3.609a23.28,23.28,0,0,0-27.214,2.7l-73.7,65.773a22.041,22.041,0,0,0-4.5,27.732v.007c.076.138.159.27.249.408l-.359.041C3.8,101.36.431,105.785.272,106a1.39,1.39,0,0,0,0,1.652l1.86,2.517a1.387,1.387,0,0,0,1.058.56c.878.035,2.876,2.13,4.121,3.989a1.386,1.386,0,0,0,1.092.615l3.188.131h.055a1.393,1.393,0,0,0,.6-.138c2.3-1.113,3.768-3.664,4.6-5.607-.159-.09-.325-.18-.484-.277a1.357,1.357,0,0,1-.636-.864,1.871,1.871,0,0,0,.781.415,1.78,1.78,0,0,0,.463.062,1.12,1.12,0,0,0,.152-.007c-.083.207-.173.436-.277.671A23.143,23.143,0,0,0,43.678,106.8l73.7-65.773a22.927,22.927,0,0,0,4.667-28.52C125.416,11.36,127.159,10.047,127.214,8.588ZM11.321,112.686l-2.115-.09c-1-1.4-3.063-3.934-5.179-4.515l-.885-1.2c1.334-1.466,3.9-3.671,6.34-3.471a.736.736,0,0,0,.138.083c3.284,1.6,4.888,2.911,5.282,3.512C14.432,108.53,13.181,111.559,11.321,112.686Zm6.126-6.81c-.5-.968-1.95-2.593-6.548-4.833l.145-.436.042-.131.021-.062a.783.783,0,0,1,.7-.574c2.047,1.48,5.593,4.065,6.285,4.625a.8.8,0,0,1,.18.588A9.231,9.231,0,0,1,17.447,105.875Zm104.831-80.9a20.116,20.116,0,0,1-6.741,13.994l-73.7,65.766A20.362,20.362,0,0,1,19.348,107.9a11.726,11.726,0,0,0,1.334-1.424,1.332,1.332,0,0,0,.277-.581,3.77,3.77,0,0,0-1.127-3.581c-.968-.788-6.506-4.785-6.734-4.957a1.456,1.456,0,0,0-.588-.242,3.886,3.886,0,0,0-2.551.5A19.33,19.33,0,0,1,14.6,74.582l73.7-65.766a20.532,20.532,0,0,1,23.833-2.468,19.852,19.852,0,0,1,1.86,1.21,20.379,20.379,0,0,1,3.1,2.8A20.077,20.077,0,0,1,122.277,24.974Zm-1.812-14.865c-.415-.553-.85-1.086-1.321-1.6a23.011,23.011,0,0,0-3.153-2.9l1.818-1.964c.3.844,1.59,1.888,4.7,3.768a1.463,1.463,0,0,0,.3.138,5.161,5.161,0,0,1,1.542.816A15.187,15.187,0,0,1,120.466,10.109Z" fill="#db003b"/>
        <path id="Path_40100" data-name="Path 40100" d="M0,0" transform="translate(27.436 100.312)" fill="#db003b" stroke="#000" stroke-linecap="round" stroke-linejoin="round" stroke-width="4"/>
        <path id="Path_40101" data-name="Path 40101" d="M.111,0A3.279,3.279,0,0,0,0,.449L.359.408C.27.27.187.138.111,0Z" transform="translate(8.141 100.261)" fill="#db003b"/>
        <path id="Path_40102" data-name="Path 40102" d="M1.4.47c-.083.207-.173.436-.277.671C.961,1.051.795.961.636.864A1.357,1.357,0,0,1,0,0,1.871,1.871,0,0,0,.781.415a1.78,1.78,0,0,0,.463.062A1.12,1.12,0,0,0,1.4.47Z" transform="translate(15.725 108.579)" fill="#db003b"/>
      </g>
    </g>
  </g>
  <g id="Group_38486" data-name="Group 38486" transform="translate(82.979 34.57) rotate(31)">
    <g id="Group_38424-2" data-name="Group 38424">
      <g id="Group_38423-2" data-name="Group 38423">
        <path id="Path_40093-2" data-name="Path 40093" d="M1.4.47c-.083.207-.173.436-.277.671C.961,1.051.795.961.636.864A1.357,1.357,0,0,1,0,0,1.871,1.871,0,0,0,.781.415a1.78,1.78,0,0,0,.463.062A1.12,1.12,0,0,0,1.4.47Z" transform="translate(15.725 108.579)" fill="#fff"/>
        <path id="Path_40094-2" data-name="Path 40094" d="M122.042,12.508a22.927,22.927,0,0,1-4.667,28.52L43.678,106.8a23.143,23.143,0,0,1-26.833,2.918c.1-.235.194-.463.277-.671a1.12,1.12,0,0,1-.152.007,1.78,1.78,0,0,1-.463-.062,1.871,1.871,0,0,1-.781-.415,1.357,1.357,0,0,0,.636.864c.159.1.325.187.484.277-.83,1.943-2.3,4.494-4.6,5.607a1.393,1.393,0,0,1-.6.138h-.055L8.4,115.334a1.386,1.386,0,0,1-1.092-.615c-1.245-1.86-3.243-3.955-4.121-3.989a1.387,1.387,0,0,1-1.058-.56l-1.86-2.517a1.39,1.39,0,0,1,0-1.652c.159-.214,3.526-4.639,7.868-5.289l.359-.041c-.09-.138-.173-.27-.249-.408v-.007a22.041,22.041,0,0,1,4.5-27.732l73.7-65.773a23.28,23.28,0,0,1,27.214-2.7l3.34-3.609a1.381,1.381,0,0,1,1.936-.09,4.415,4.415,0,0,1,1.639,2.413,33.132,33.132,0,0,0,3.229,2.206c.871.3,3.491,1.4,3.4,3.616C127.159,10.047,125.416,11.36,122.042,12.508Z" fill="#fff"/>
        <path id="Path_40095-2" data-name="Path 40095" d="M0,0" transform="translate(27.436 100.312)" fill="#fff" stroke="#000" stroke-linecap="round" stroke-linejoin="round" stroke-width="4"/>
        <path id="Path_40096-2" data-name="Path 40096" d="M.111,0A3.279,3.279,0,0,0,0,.449L.359.408C.27.27.187.138.111,0Z" transform="translate(8.141 100.261)" fill="#fff"/>
        <path id="Path_40097-2" data-name="Path 40097" d="M1.4.47c-.083.207-.173.436-.277.671C.961,1.051.795.961.636.864A1.357,1.357,0,0,1,0,0,1.871,1.871,0,0,0,.781.415a1.78,1.78,0,0,0,.463.062A1.12,1.12,0,0,0,1.4.47Z" transform="translate(15.725 108.579)" fill="#fff"/>
      </g>
    </g>
    <g id="Group_38426-2" data-name="Group 38426">
      <g id="Group_38425-2" data-name="Group 38425">
        <path id="Path_40098-2" data-name="Path 40098" d="M1.4.47c-.083.207-.173.436-.277.671C.961,1.051.795.961.636.864A1.357,1.357,0,0,1,0,0,1.871,1.871,0,0,0,.781.415a1.78,1.78,0,0,0,.463.062A1.12,1.12,0,0,0,1.4.47Z" transform="translate(15.725 108.579)" fill="#db003b"/>
        <path id="Path_40099-2" data-name="Path 40099" d="M127.214,8.588c.09-2.219-2.531-3.319-3.4-3.616a33.132,33.132,0,0,1-3.229-2.206A4.415,4.415,0,0,0,118.945.353a1.381,1.381,0,0,0-1.936.09l-3.34,3.609a23.28,23.28,0,0,0-27.214,2.7l-73.7,65.773a22.041,22.041,0,0,0-4.5,27.732v.007c.076.138.159.27.249.408l-.359.041C3.8,101.36.431,105.785.272,106a1.39,1.39,0,0,0,0,1.652l1.86,2.517a1.387,1.387,0,0,0,1.058.56c.878.035,2.876,2.13,4.121,3.989a1.386,1.386,0,0,0,1.092.615l3.188.131h.055a1.393,1.393,0,0,0,.6-.138c2.3-1.113,3.768-3.664,4.6-5.607-.159-.09-.325-.18-.484-.277a1.357,1.357,0,0,1-.636-.864,1.871,1.871,0,0,0,.781.415,1.78,1.78,0,0,0,.463.062,1.12,1.12,0,0,0,.152-.007c-.083.207-.173.436-.277.671A23.143,23.143,0,0,0,43.678,106.8l73.7-65.773a22.927,22.927,0,0,0,4.667-28.52C125.416,11.36,127.159,10.047,127.214,8.588ZM11.321,112.686l-2.115-.09c-1-1.4-3.063-3.934-5.179-4.515l-.885-1.2c1.334-1.466,3.9-3.671,6.34-3.471a.736.736,0,0,0,.138.083c3.284,1.6,4.888,2.911,5.282,3.512C14.432,108.53,13.181,111.559,11.321,112.686Zm6.126-6.81c-.5-.968-1.95-2.593-6.548-4.833l.145-.436.042-.131.021-.062a.783.783,0,0,1,.7-.574c2.047,1.48,5.593,4.065,6.285,4.625a.8.8,0,0,1,.18.588A9.231,9.231,0,0,1,17.447,105.875Zm104.831-80.9a20.116,20.116,0,0,1-6.741,13.994l-73.7,65.766A20.362,20.362,0,0,1,19.348,107.9a11.726,11.726,0,0,0,1.334-1.424,1.332,1.332,0,0,0,.277-.581,3.77,3.77,0,0,0-1.127-3.581c-.968-.788-6.506-4.785-6.734-4.957a1.456,1.456,0,0,0-.588-.242,3.886,3.886,0,0,0-2.551.5A19.33,19.33,0,0,1,14.6,74.582l73.7-65.766a20.532,20.532,0,0,1,23.833-2.468,19.852,19.852,0,0,1,1.86,1.21,20.379,20.379,0,0,1,3.1,2.8A20.077,20.077,0,0,1,122.277,24.974Zm-1.812-14.865c-.415-.553-.85-1.086-1.321-1.6a23.011,23.011,0,0,0-3.153-2.9l1.818-1.964c.3.844,1.59,1.888,4.7,3.768a1.463,1.463,0,0,0,.3.138,5.161,5.161,0,0,1,1.542.816A15.187,15.187,0,0,1,120.466,10.109Z" fill="#db003b"/>
        <path id="Path_40100-2" data-name="Path 40100" d="M0,0" transform="translate(27.436 100.312)" fill="#db003b" stroke="#000" stroke-linecap="round" stroke-linejoin="round" stroke-width="4"/>
        <path id="Path_40101-2" data-name="Path 40101" d="M.111,0A3.279,3.279,0,0,0,0,.449L.359.408C.27.27.187.138.111,0Z" transform="translate(8.141 100.261)" fill="#db003b"/>
        <path id="Path_40102-2" data-name="Path 40102" d="M1.4.47c-.083.207-.173.436-.277.671C.961,1.051.795.961.636.864A1.357,1.357,0,0,1,0,0,1.871,1.871,0,0,0,.781.415a1.78,1.78,0,0,0,.463.062A1.12,1.12,0,0,0,1.4.47Z" transform="translate(15.725 108.579)" fill="#db003b"/>
      </g>
    </g>
  </g>
  <g id="Group_38487" data-name="Group 38487" transform="translate(74.682) rotate(31)">
    <g id="Group_38424-3" data-name="Group 38424" transform="translate(0 0)">
      <g id="Group_38423-3" data-name="Group 38423">
        <path id="Path_40093-3" data-name="Path 40093" d="M1.4.47c-.083.207-.173.436-.277.671C.961,1.051.795.961.636.864A1.357,1.357,0,0,1,0,0,1.871,1.871,0,0,0,.781.415a1.78,1.78,0,0,0,.463.062A1.12,1.12,0,0,0,1.4.47Z" transform="translate(15.725 108.579)" fill="#fff"/>
        <path id="Path_40094-3" data-name="Path 40094" d="M122.042,12.508a22.927,22.927,0,0,1-4.667,28.52L43.678,106.8a23.143,23.143,0,0,1-26.833,2.918c.1-.235.194-.463.277-.671a1.12,1.12,0,0,1-.152.007,1.78,1.78,0,0,1-.463-.062,1.871,1.871,0,0,1-.781-.415,1.357,1.357,0,0,0,.636.864c.159.1.325.187.484.277-.83,1.943-2.3,4.494-4.6,5.607a1.393,1.393,0,0,1-.6.138h-.055L8.4,115.334a1.386,1.386,0,0,1-1.092-.615c-1.245-1.86-3.243-3.955-4.121-3.989a1.387,1.387,0,0,1-1.058-.56l-1.86-2.517a1.39,1.39,0,0,1,0-1.652c.159-.214,3.526-4.639,7.868-5.289l.359-.041c-.09-.138-.173-.27-.249-.408v-.007a22.041,22.041,0,0,1,4.5-27.732l73.7-65.773a23.28,23.28,0,0,1,27.214-2.7l3.34-3.609a1.381,1.381,0,0,1,1.936-.09,4.415,4.415,0,0,1,1.639,2.413,33.132,33.132,0,0,0,3.229,2.206c.871.3,3.491,1.4,3.4,3.616C127.159,10.047,125.416,11.36,122.042,12.508Z" fill="#fff"/>
        <path id="Path_40095-3" data-name="Path 40095" d="M0,0" transform="translate(27.436 100.312)" fill="#fff" stroke="#000" stroke-linecap="round" stroke-linejoin="round" stroke-width="4"/>
        <path id="Path_40096-3" data-name="Path 40096" d="M.111,0A3.279,3.279,0,0,0,0,.449L.359.408C.27.27.187.138.111,0Z" transform="translate(8.141 100.261)" fill="#fff"/>
        <path id="Path_40097-3" data-name="Path 40097" d="M1.4.47c-.083.207-.173.436-.277.671C.961,1.051.795.961.636.864A1.357,1.357,0,0,1,0,0,1.871,1.871,0,0,0,.781.415a1.78,1.78,0,0,0,.463.062A1.12,1.12,0,0,0,1.4.47Z" transform="translate(15.725 108.579)" fill="#fff"/>
      </g>
    </g>
    <g id="Group_38426-3" data-name="Group 38426" transform="translate(0 0)">
      <g id="Group_38425-3" data-name="Group 38425">
        <path id="Path_40098-3" data-name="Path 40098" d="M1.4.47c-.083.207-.173.436-.277.671C.961,1.051.795.961.636.864A1.357,1.357,0,0,1,0,0,1.871,1.871,0,0,0,.781.415a1.78,1.78,0,0,0,.463.062A1.12,1.12,0,0,0,1.4.47Z" transform="translate(15.725 108.579)" fill="#db003b"/>
        <path id="Path_40099-3" data-name="Path 40099" d="M127.214,8.588c.09-2.219-2.531-3.319-3.4-3.616a33.132,33.132,0,0,1-3.229-2.206A4.415,4.415,0,0,0,118.945.353a1.381,1.381,0,0,0-1.936.09l-3.34,3.609a23.28,23.28,0,0,0-27.214,2.7l-73.7,65.773a22.041,22.041,0,0,0-4.5,27.732v.007c.076.138.159.27.249.408l-.359.041C3.8,101.36.431,105.785.272,106a1.39,1.39,0,0,0,0,1.652l1.86,2.517a1.387,1.387,0,0,0,1.058.56c.878.035,2.876,2.13,4.121,3.989a1.386,1.386,0,0,0,1.092.615l3.188.131h.055a1.393,1.393,0,0,0,.6-.138c2.3-1.113,3.768-3.664,4.6-5.607-.159-.09-.325-.18-.484-.277a1.357,1.357,0,0,1-.636-.864,1.871,1.871,0,0,0,.781.415,1.78,1.78,0,0,0,.463.062,1.12,1.12,0,0,0,.152-.007c-.083.207-.173.436-.277.671A23.143,23.143,0,0,0,43.678,106.8l73.7-65.773a22.927,22.927,0,0,0,4.667-28.52C125.416,11.36,127.159,10.047,127.214,8.588ZM11.321,112.686l-2.115-.09c-1-1.4-3.063-3.934-5.179-4.515l-.885-1.2c1.334-1.466,3.9-3.671,6.34-3.471a.736.736,0,0,0,.138.083c3.284,1.6,4.888,2.911,5.282,3.512C14.432,108.53,13.181,111.559,11.321,112.686Zm6.126-6.81c-.5-.968-1.95-2.593-6.548-4.833l.145-.436.042-.131.021-.062a.783.783,0,0,1,.7-.574c2.047,1.48,5.593,4.065,6.285,4.625a.8.8,0,0,1,.18.588A9.231,9.231,0,0,1,17.447,105.875Zm104.831-80.9a20.116,20.116,0,0,1-6.741,13.994l-73.7,65.766A20.362,20.362,0,0,1,19.348,107.9a11.726,11.726,0,0,0,1.334-1.424,1.332,1.332,0,0,0,.277-.581,3.77,3.77,0,0,0-1.127-3.581c-.968-.788-6.506-4.785-6.734-4.957a1.456,1.456,0,0,0-.588-.242,3.886,3.886,0,0,0-2.551.5A19.33,19.33,0,0,1,14.6,74.582l73.7-65.766a20.532,20.532,0,0,1,23.833-2.468,19.852,19.852,0,0,1,1.86,1.21,20.379,20.379,0,0,1,3.1,2.8A20.077,20.077,0,0,1,122.277,24.974Zm-1.812-14.865c-.415-.553-.85-1.086-1.321-1.6a23.011,23.011,0,0,0-3.153-2.9l1.818-1.964c.3.844,1.59,1.888,4.7,3.768a1.463,1.463,0,0,0,.3.138,5.161,5.161,0,0,1,1.542.816A15.187,15.187,0,0,1,120.466,10.109Z" fill="#db003b"/>
        <path id="Path_40100-3" data-name="Path 40100" d="M0,0" transform="translate(27.436 100.312)" fill="#db003b" stroke="#000" stroke-linecap="round" stroke-linejoin="round" stroke-width="4"/>
        <path id="Path_40101-3" data-name="Path 40101" d="M.111,0A3.279,3.279,0,0,0,0,.449L.359.408C.27.27.187.138.111,0Z" transform="translate(8.141 100.261)" fill="#db003b"/>
        <path id="Path_40102-3" data-name="Path 40102" d="M1.4.47c-.083.207-.173.436-.277.671C.961,1.051.795.961.636.864A1.357,1.357,0,0,1,0,0,1.871,1.871,0,0,0,.781.415a1.78,1.78,0,0,0,.463.062A1.12,1.12,0,0,0,1.4.47Z" transform="translate(15.725 108.579)" fill="#db003b"/>
      </g>
    </g>
  </g>
  <g id="Group_38427" data-name="Group 38427" transform="translate(184.922 36.872) rotate(99)">
    <g id="Group_38424-4" data-name="Group 38424">
      <g id="Group_38423-4" data-name="Group 38423">
        <path id="Path_40093-4" data-name="Path 40093" d="M1.4.47c-.083.207-.173.436-.277.671C.961,1.051.8.961.636.864A1.357,1.357,0,0,1,0,0,1.871,1.871,0,0,0,.781.415a1.78,1.78,0,0,0,.463.062A1.119,1.119,0,0,0,1.4.47Z" transform="translate(15.725 108.579)" fill="#fff"/>
        <path id="Path_40094-4" data-name="Path 40094" d="M122.042,12.508a22.927,22.927,0,0,1-4.667,28.52L43.679,106.8a23.143,23.143,0,0,1-26.833,2.918c.1-.235.194-.463.277-.671a1.119,1.119,0,0,1-.152.007,1.78,1.78,0,0,1-.463-.062,1.871,1.871,0,0,1-.781-.415,1.357,1.357,0,0,0,.636.864c.159.1.325.187.484.277-.83,1.943-2.3,4.494-4.6,5.607a1.394,1.394,0,0,1-.6.138h-.055L8.4,115.334a1.386,1.386,0,0,1-1.092-.615c-1.245-1.86-3.243-3.955-4.121-3.989a1.387,1.387,0,0,1-1.058-.56l-1.86-2.517a1.39,1.39,0,0,1,0-1.652c.159-.214,3.526-4.639,7.868-5.289l.359-.041c-.09-.138-.173-.27-.249-.408v-.007a22.041,22.041,0,0,1,4.5-27.732l73.7-65.773a23.28,23.28,0,0,1,27.214-2.7L117.009.443a1.381,1.381,0,0,1,1.936-.09,4.416,4.416,0,0,1,1.639,2.413,33.127,33.127,0,0,0,3.229,2.206c.871.3,3.491,1.4,3.4,3.616C127.159,10.047,125.416,11.36,122.042,12.508Z" fill="#fff"/>
        <path id="Path_40095-4" data-name="Path 40095" d="M0,0" transform="translate(27.436 100.311)" fill="#fff" stroke="#000" stroke-linecap="round" stroke-linejoin="round" stroke-width="4"/>
        <path id="Path_40096-4" data-name="Path 40096" d="M.111,0A3.279,3.279,0,0,0,0,.449L.359.408C.27.27.187.138.111,0Z" transform="translate(8.141 100.261)" fill="#fff"/>
        <path id="Path_40097-4" data-name="Path 40097" d="M1.4.47c-.083.207-.173.436-.277.671C.961,1.051.8.961.636.864A1.357,1.357,0,0,1,0,0,1.871,1.871,0,0,0,.781.415a1.78,1.78,0,0,0,.463.062A1.119,1.119,0,0,0,1.4.47Z" transform="translate(15.725 108.579)" fill="#fff"/>
      </g>
    </g>
    <g id="Group_38426-4" data-name="Group 38426">
      <g id="Group_38425-4" data-name="Group 38425">
        <path id="Path_40098-4" data-name="Path 40098" d="M1.4.47c-.083.207-.173.436-.277.671C.961,1.051.8.961.636.864A1.357,1.357,0,0,1,0,0,1.871,1.871,0,0,0,.781.415a1.78,1.78,0,0,0,.463.062A1.119,1.119,0,0,0,1.4.47Z" transform="translate(15.725 108.579)" fill="#db003b"/>
        <path id="Path_40099-4" data-name="Path 40099" d="M127.214,8.588c.09-2.219-2.531-3.319-3.4-3.616a33.127,33.127,0,0,1-3.229-2.206A4.416,4.416,0,0,0,118.945.353a1.381,1.381,0,0,0-1.936.09l-3.339,3.609a23.28,23.28,0,0,0-27.214,2.7l-73.7,65.773a22.041,22.041,0,0,0-4.5,27.732v.007c.076.138.159.27.249.408l-.359.041C3.8,101.36.431,105.785.272,106a1.39,1.39,0,0,0,0,1.652l1.86,2.517a1.387,1.387,0,0,0,1.058.56c.878.035,2.876,2.13,4.121,3.989a1.386,1.386,0,0,0,1.092.615l3.187.131h.055a1.394,1.394,0,0,0,.6-.138c2.3-1.113,3.768-3.664,4.6-5.607-.159-.09-.325-.18-.484-.277a1.357,1.357,0,0,1-.636-.864,1.871,1.871,0,0,0,.781.415,1.78,1.78,0,0,0,.463.062,1.119,1.119,0,0,0,.152-.007c-.083.207-.173.436-.277.671A23.143,23.143,0,0,0,43.679,106.8l73.7-65.773a22.927,22.927,0,0,0,4.667-28.52C125.416,11.36,127.159,10.047,127.214,8.588ZM11.321,112.686l-2.116-.09c-1-1.4-3.063-3.934-5.179-4.515l-.885-1.2c1.334-1.466,3.9-3.671,6.34-3.471a.74.74,0,0,0,.138.083c3.284,1.6,4.888,2.911,5.282,3.512C14.432,108.53,13.181,111.559,11.321,112.686Zm6.126-6.81c-.5-.968-1.95-2.593-6.548-4.833l.145-.436.042-.131.021-.062a.782.782,0,0,1,.7-.574c2.047,1.48,5.593,4.065,6.285,4.625a.8.8,0,0,1,.18.588A9.233,9.233,0,0,1,17.447,105.875Zm104.831-80.9a20.116,20.116,0,0,1-6.741,13.994l-73.7,65.766A20.362,20.362,0,0,1,19.348,107.9a11.725,11.725,0,0,0,1.334-1.424,1.332,1.332,0,0,0,.277-.581,3.77,3.77,0,0,0-1.127-3.581c-.968-.788-6.506-4.785-6.734-4.957a1.455,1.455,0,0,0-.588-.242,3.886,3.886,0,0,0-2.551.5A19.33,19.33,0,0,1,14.6,74.582l73.7-65.766a20.532,20.532,0,0,1,23.833-2.468,19.854,19.854,0,0,1,1.86,1.21,20.374,20.374,0,0,1,3.1,2.8A20.077,20.077,0,0,1,122.277,24.974Zm-1.812-14.865c-.415-.553-.85-1.086-1.32-1.6a23.018,23.018,0,0,0-3.153-2.9l1.818-1.964c.3.844,1.59,1.888,4.7,3.768a1.464,1.464,0,0,0,.3.138,5.164,5.164,0,0,1,1.542.816A15.188,15.188,0,0,1,120.466,10.109Z" fill="#db003b"/>
        <path id="Path_40100-4" data-name="Path 40100" d="M0,0" transform="translate(27.436 100.311)" fill="#db003b" stroke="#000" stroke-linecap="round" stroke-linejoin="round" stroke-width="4"/>
        <path id="Path_40101-4" data-name="Path 40101" d="M.111,0A3.279,3.279,0,0,0,0,.449L.359.408C.27.27.187.138.111,0Z" transform="translate(8.141 100.261)" fill="#db003b"/>
        <path id="Path_40102-4" data-name="Path 40102" d="M1.4.47c-.083.207-.173.436-.277.671C.961,1.051.8.961.636.864A1.357,1.357,0,0,1,0,0,1.871,1.871,0,0,0,.781.415a1.78,1.78,0,0,0,.463.062A1.119,1.119,0,0,0,1.4.47Z" transform="translate(15.725 108.579)" fill="#db003b"/>
      </g>
    </g>
  </g>
</svg>
