<svg xmlns="http://www.w3.org/2000/svg" width="20" height="26" viewBox="0 0 20 26">
  <g id="Group_38417" data-name="Group 38417" transform="translate(-4 -28.468)">
    <path id="Path_40083" data-name="Path 40083" d="M14,41.347a6.44,6.44,0,1,1,6.456-6.439A6.455,6.455,0,0,1,14,41.347Zm0-10.879a4.44,4.44,0,1,0,4.455,4.44A4.452,4.452,0,0,0,14,30.468Z" transform="translate(0)" fill="#0d1521"/>
    <path id="Path_40084" data-name="Path 40084" d="M19.444,54.468H8.564A4.451,4.451,0,0,1,5.2,52.888a5.04,5.04,0,0,1-1.135-4.064l1.1-4.659a3.173,3.173,0,0,1,1.83-2.4,3.122,3.122,0,0,1,2.973.221,7.57,7.57,0,0,0,8.081,0,3.125,3.125,0,0,1,2.973-.221A3.2,3.2,0,0,1,22.856,44.2l1.075,4.542a5.075,5.075,0,0,1-1.12,4.143A4.451,4.451,0,0,1,19.444,54.468ZM8.273,43.489a1.122,1.122,0,0,0-.461.1,1.188,1.188,0,0,0-.684.926l-.021.11-1.084,4.58a3.025,3.025,0,0,0,.693,2.38,2.419,2.419,0,0,0,1.849.882h10.88a2.419,2.419,0,0,0,1.849-.882,3.048,3.048,0,0,0,.677-2.458l-1.088-4.6a1.191,1.191,0,0,0-.685-.934,1.116,1.116,0,0,0-1.075.082,9.6,9.6,0,0,1-10.234,0A1.137,1.137,0,0,0,8.273,43.489Z" transform="translate(0)" fill="#0d1521"/>
  </g>
</svg>
