<svg xmlns="http://www.w3.org/2000/svg" width="80" height="100" viewBox="0 0 80 100">
  <g id="Group_38636" data-name="Group 38636" transform="translate(-10057.07 6271.5)">
    <path id="Path_40193" data-name="Path 40193" d="M266.851,235.223a3.188,3.188,0,0,1-.28.223l.289.03A1.128,1.128,0,0,0,266.851,235.223Z" transform="translate(9859.53 -6442.383)" fill="#db003c"/>
    <g id="Group_38624" data-name="Group 38624" transform="translate(9859.53 -6442.383)">
      <path id="Path_40194" data-name="Path 40194" d="M277.482,210.145a1.455,1.455,0,0,0-.154-1.165,1.42,1.42,0,0,0-.964-.679,25.324,25.324,0,0,0-3.432-.35l2.728-9.4a1.462,1.462,0,0,0-.983-1.806,1.44,1.44,0,0,0-1.793.991l-2.978,10.252a17.946,17.946,0,0,0-8.279,2.4l2.583-8.9a1.462,1.462,0,0,0-.983-1.806,1.446,1.446,0,0,0-1.793.981l-2.159,7.456v.01l-.01.01-.53,1.835c-.029-.059-.048-.117-.077-.175a18.027,18.027,0,0,0-5.822-6.845l2.979-10.262a1.47,1.47,0,0,0-.984-1.806,1.447,1.447,0,0,0-1.792.991l-2.728,9.407a25.54,25.54,0,0,0-3.1-1.582,1.436,1.436,0,0,0-1.166.039,1.471,1.471,0,0,0-.761.9c-1.6,5.5-1.629,10.165-.1,13.893a20.091,20.091,0,0,0-1.995-.961,1.435,1.435,0,0,0-1.928.941c-1.522,5.253-1.628,9.738-.308,13.369-.945-.495-1.59-.757-1.687-.8a1.444,1.444,0,0,0-1.927.942,26.764,26.764,0,0,0-1.205,8.262,28.081,28.081,0,0,0-3.181.524c3.287-3.805,4.945-9.388,4.945-16.64a1.445,1.445,0,0,0-1.581-1.447,31.182,31.182,0,0,0-3.075.524c3.094-3.786,4.656-9.242,4.656-16.281a1.432,1.432,0,0,0-.473-1.078,1.411,1.411,0,0,0-1.108-.369,31.47,31.47,0,0,0-3.537.621c3.4-3.805,5.118-9.456,5.118-16.835a1.452,1.452,0,0,0-.473-1.087,1.433,1.433,0,0,0-1.108-.369,31.7,31.7,0,0,0-4.5.864V172.34a1.446,1.446,0,1,0-2.892,0v13.281a21.272,21.272,0,0,0-9.542,6.359V179.747a1.446,1.446,0,1,0-2.891,0V189.3a1.3,1.3,0,0,0-.155.631v2.408c-2.525-3.408-6.38-5.476-9.792-6.709V172.34a1.446,1.446,0,1,0-2.892,0v12.378a32.213,32.213,0,0,0-4.52-.864,1.446,1.446,0,0,0-1.591,1.456c0,7.379,1.726,13.03,5.128,16.835a31.843,31.843,0,0,0-3.537-.621,1.446,1.446,0,0,0-1.591,1.447c0,7.039,1.562,12.5,4.656,16.281a30.786,30.786,0,0,0-3.065-.524,1.467,1.467,0,0,0-1.118.369,1.483,1.483,0,0,0-.473,1.078c0,7.291,1.678,12.883,4.993,16.689a27.527,27.527,0,0,0-3.4-.592,1.446,1.446,0,0,0-1.591,1.446c0,8.379,2.217,14.525,6.574,18.272a16.888,16.888,0,0,0,10.968,3.864c.5,0,.926-.019,1.253-.048v7.019a1.446,1.446,0,1,0,2.892,0v-7.019c.279.019.607.029.993.029a16.758,16.758,0,0,0,12.607-5.33c2,6.611,7.865,8.689,10.178,9.262l-1.523,5.252a1.447,1.447,0,1,0,2.776.816l1.523-5.233a15.348,15.348,0,0,0,4.916.825,12.9,12.9,0,0,0,5.378-1.136c4.356-1.961,7.537-6.33,9.465-12.98a1.46,1.46,0,0,0-1.109-1.845c-.106-.02-.9-.165-2.1-.262,3.21-2.321,5.629-6.233,7.21-11.67a1.479,1.479,0,0,0-.154-1.175,1.448,1.448,0,0,0-.964-.67c-.1-.019-.665-.116-1.562-.213l-.289-.03a3.188,3.188,0,0,0,.28-.223c2.92-2.349,5.137-6.107,6.612-11.2a1.476,1.476,0,0,0-.155-1.174,1.458,1.458,0,0,0-.963-.67,21.59,21.59,0,0,0-2.188-.272C273.424,219.6,275.882,215.65,277.482,210.145ZM200.47,187c3.22.592,10.42,2.446,13.851,7.495,1.851,2.728,2.342,6.1,1.455,10.01a14.39,14.39,0,0,1-9.812-3.165C202.581,198.408,200.731,193.592,200.47,187Zm15.306,69.922a14.347,14.347,0,0,1-9.812-3.175c-3.383-2.922-5.233-7.737-5.494-14.33,3.22.593,10.42,2.447,13.851,7.486C216.172,249.641,216.663,253,215.776,256.922Zm0-17.544a14.351,14.351,0,0,1-9.812-3.174c-3.383-2.923-5.233-7.748-5.494-14.33,3.22.592,10.42,2.436,13.851,7.485C216.172,232.1,216.663,235.456,215.776,239.378Zm0-17.213A14.285,14.285,0,0,1,205.964,219c-3.383-2.932-5.233-7.748-5.494-14.33,3.229.6,10.439,2.456,13.851,7.495C216.181,214.893,216.663,218.252,215.776,222.165Zm31.846-19.049c2.477,1.282,7.3,4.3,8.752,8.787a9.785,9.785,0,0,1-1.022,7.806,11.4,11.4,0,0,1-6.631-4.6C246.812,212.145,246.446,208.116,247.622,203.116ZM243.6,216.98c2.467,1.292,7.286,4.311,8.742,8.8a9.725,9.725,0,0,1-1.022,7.815,11.4,11.4,0,0,1-6.612-4.582C242.793,226.048,242.417,222.01,243.6,216.98Zm-22.487-22.485c3.422-5.039,10.631-6.893,13.86-7.485-.27,6.582-2.111,11.4-5.5,14.33a14.357,14.357,0,0,1-9.8,3.165C218.784,200.592,219.265,197.233,221.116,194.495Zm0,17.67c3.422-5.039,10.631-6.893,13.86-7.495-.27,6.582-2.111,11.4-5.5,14.33a14.252,14.252,0,0,1-9.8,3.165C218.784,218.252,219.265,214.893,221.116,212.165Zm0,17.2c3.422-5.039,10.631-6.893,13.86-7.5-.27,6.592-2.111,11.407-5.5,14.33a14.317,14.317,0,0,1-9.8,3.174C218.784,235.466,219.265,232.1,221.116,229.369Zm13.571,13.291a21.5,21.5,0,0,1-2.323,7.5,13.411,13.411,0,0,1-12.684,6.757,16.042,16.042,0,0,1-.443-3.65c0-9.971,11.421-13.049,15.73-13.855C234.918,240.544,234.822,241.631,234.687,242.66Zm8.723,18.223a10.655,10.655,0,0,1-8.309-9.7,3.382,3.382,0,0,0,.164-.33q.261-.51.492-1.048c.2-.476.395-.971.569-1.476.106-.291.2-.6.3-.913.106-.349.2-.7.29-1.058.077-.3.154-.612.221-.932.029-.1.048-.2.068-.3,2.6,1.583,6.265,4.427,7.344,8.311A9.894,9.894,0,0,1,243.41,260.883ZM240.8,242.514c-1.928-2.961-2.3-6.99-1.118-12.009,2.477,1.291,7.306,4.32,8.752,8.8a9.723,9.723,0,0,1-1.032,7.8A11.313,11.313,0,0,1,240.8,242.514Zm14.13,19.107a11.313,11.313,0,0,1-8.048.272,13.116,13.116,0,0,1,.443-2.641l.039-.116.009-.029.01-.039a8.742,8.742,0,0,1,2.805-4.3c3.6-2.981,9.291-2.9,12.067-2.651C260.576,256.98,258.109,260.175,254.928,261.621Zm3.99-13.776a11.32,11.32,0,0,1-8.048.271,12.874,12.874,0,0,1,.328-2.194l.144-.5a8.831,8.831,0,0,1,2.834-4.427c3.614-2.98,9.3-2.9,12.077-2.65C264.566,243.2,262.108,246.388,258.918,247.845Zm11.248-23.01c-1.291,3.747-3.055,6.5-5.262,8.233a9.925,9.925,0,0,1-2.063,1.262,8.8,8.8,0,0,1-.916.359,11.631,11.631,0,0,1-7.132-.087,13.425,13.425,0,0,1,.472-2.7,8.761,8.761,0,0,1,2.834-4.427C261.7,224.495,267.39,224.573,270.166,224.835Zm-3.306-4.379a11.383,11.383,0,0,1-8.048.282,12.707,12.707,0,0,1,.328-2.194l.144-.505a8.781,8.781,0,0,1,2.834-4.437c3.615-2.981,9.3-2.9,12.077-2.641C272.508,215.815,270.051,219.01,266.86,220.456Z" fill="#db003c"/>
    </g>
    <ellipse id="Ellipse_150" data-name="Ellipse 150" cx="1.91" cy="1.928" rx="1.91" ry="1.928" transform="translate(10075.661 -6269.913)" fill="#db003c"/>
    <ellipse id="Ellipse_151" data-name="Ellipse 151" cx="1.91" cy="1.928" rx="1.91" ry="1.928" transform="translate(10121.92 -6248.839)" fill="#db003c"/>
  </g>
</svg>
